<?xml version="1.0" encoding="UTF-8" standalone="no"?>
<!-- Created with Inkscape (http://www.inkscape.org/) -->

<svg
   width="100"
   height="100"
   viewBox="0 0 100 100"
   version="1.1"
   id="svg2204"
   inkscape:version="1.2.2 (732a01da63, 2022-12-09)"
   sodipodi:docname="github_logo.svg"
   inkscape:export-filename="vimeo.svg"
   inkscape:export-xdpi="96"
   inkscape:export-ydpi="96"
   xml:space="preserve"
   xmlns:inkscape="http://www.inkscape.org/namespaces/inkscape"
   xmlns:sodipodi="http://sodipodi.sourceforge.net/DTD/sodipodi-0.dtd"
   xmlns="http://www.w3.org/2000/svg"
   xmlns:svg="http://www.w3.org/2000/svg"><sodipodi:namedview
     id="namedview2206"
     pagecolor="#505050"
     bordercolor="#eeeeee"
     borderopacity="1"
     inkscape:showpageshadow="false"
     inkscape:pageopacity="0"
     inkscape:pagecheckerboard="false"
     inkscape:deskcolor="#505050"
     inkscape:document-units="px"
     showgrid="false"
     inkscape:zoom="3.3638608"
     inkscape:cx="70.454758"
     inkscape:cy="57.969105"
     inkscape:window-width="1920"
     inkscape:window-height="1009"
     inkscape:window-x="-8"
     inkscape:window-y="-8"
     inkscape:window-maximized="1"
     inkscape:current-layer="layer1" /><defs
     id="defs2201"><path
       d="m 69.35,58.24 h 45.63 V 233.89 H 69.35 Z"
       id="g5jjnq26yS-3" /><path
       d="m 201.2,139.15 c -3.92,-26.77 -6.1,-41.65 -6.53,-44.62 -1.91,-14.33 -3.73,-26.8 -5.47,-37.44 -3.95,0 -23.66,0 -59.16,0 v 175.65 h 39.97 l 0.14,-115.98 16.82,115.98 h 28.47 l 15.95,-118.56 0.15,118.56 h 39.84 V 57.09 h -59.61 z"
       id="i3Prh1JpXt-5" /><path
       d="m 346.71,93.63 c 0.5,2.24 0.76,7.32 0.76,15.26 0,6.81 0,61.29 0,68.1 0,11.69 -0.76,18.85 -2.27,21.49 -1.52,2.64 -5.56,3.95 -12.11,3.95 0,-11.53 0,-103.77 0,-115.3 4.97,0 8.36,0.53 10.16,1.57 1.8,1.05 2.96,2.69 3.46,4.93 z m 20.61,137.32 c 5.43,-1.19 9.99,-3.29 13.69,-6.28 3.69,-3 6.28,-7.15 7.76,-12.46 1.49,-5.3 2.37,-15.83 2.37,-31.58 0,-6.16 0,-55.51 0,-61.68 0,-16.62 -0.65,-27.76 -1.66,-33.42 -1.02,-5.67 -3.55,-10.82 -7.6,-15.44 -4.06,-4.62 -9.98,-7.94 -17.76,-9.96 -7.79,-2.02 -20.49,-3.04 -42.58,-3.04 -2.27,0 -13.61,0 -34.04,0 v 175.65 h 55.28 c 12.74,-0.4 20.92,-0.99 24.54,-1.79 z"
       id="a4ov9rRGQm-8" /><path
       d="m 464.76,204.7 c -0.84,2.23 -4.52,3.36 -7.3,3.36 -2.72,0 -4.53,-1.08 -5.45,-3.25 -0.92,-2.16 -1.37,-7.09 -1.37,-14.81 0,-4.64 0,-41.78 0,-46.42 0,-8 0.4,-12.99 1.21,-14.98 0.8,-1.97 2.56,-2.97 5.28,-2.97 2.78,0 6.51,1.13 7.47,3.4 0.95,2.27 1.43,7.12 1.43,14.55 0,3 0,18 0,45.01 -0.29,9.25 -0.71,14.62 -1.27,16.11 z m -58.08,26.51 h 41.08 c 1.71,-6.71 2.65,-10.44 2.84,-11.19 3.72,4.5 7.81,7.88 12.3,10.12 4.47,2.25 11.16,3.37 16.34,3.37 7.21,0 13.43,-1.89 18.68,-5.68 5.24,-3.78 8.58,-8.26 10,-13.41 1.42,-5.16 2.13,-13 2.13,-23.54 0,-4.93 0,-44.35 0,-49.28 0,-10.6 -0.24,-17.52 -0.71,-20.77 -0.47,-3.25 -1.87,-6.56 -4.2,-9.95 -2.33,-3.39 -5.72,-6.02 -10.16,-7.9 -4.44,-1.88 -9.68,-2.82 -15.72,-2.82 -5.25,0 -11.97,1.05 -16.45,3.12 -4.47,2.07 -8.53,5.21 -12.17,9.42 0,-3.81 0,-22.85 0,-57.14 h -43.96 z"
       id="fk968BpsX-4" /></defs><g
     inkscape:label="Layer 1"
     inkscape:groupmode="layer"
     id="layer1"><path
       fill-rule="evenodd"
       clip-rule="evenodd"
       d="M 50.04648,0 C 22.37199,0 0,22.916789 0,51.2675 c 0,22.662501 14.33467,41.845745 34.22032,48.63536 2.48635,0.511 3.397,-1.102865 3.397,-2.460471 0,-1.188281 -0.0865,-5.262381 -0.0865,-9.507311 -13.9218,3.056363 -16.82081,-6.111403 -16.82081,-6.111403 -2.23728,-5.941643 -5.5523,-7.468726 -5.5523,-7.468726 -4.55661,-3.140588 0.33154,-3.140588 0.33154,-3.140588 5.05447,0.340175 7.70659,5.262392 7.70659,5.262392 4.47365,7.808411 11.68226,5.602088 14.58243,4.24375 0.41421,-3.310208 1.7404,-5.601936 3.14909,-6.87487 C 29.82375,72.657352 18.14137,68.24354 18.14137,48.550977 c 0,-5.602074 1.98733,-10.185382 5.13642,-13.750034 -0.49671,-1.272193 -2.23723,-6.536363 0.4982,-13.58115 0,0 4.22572,-1.357602 13.75354,5.262388 a 48.116484,48.926866 0 0 1 12.5123,-1.697741 c 4.22572,0 8.5333,0.594904 12.51109,1.697741 9.52898,-6.620587 13.75474,-5.262388 13.75474,-5.262388 2.7351,7.044787 0.99483,12.30836 0.49667,13.58115 3.23205,3.564652 5.13744,8.14796 5.13744,13.750034 0,19.692563 -11.68238,24.020685 -22.86883,25.294656 1.82341,1.612478 3.39688,4.667661 3.39688,9.506142 0,6.875021 -0.0874,12.39259 -0.0874,14.089597 0,1.357607 0.91224,2.971848 3.39701,2.462378 C 85.66524,93.112208 99.99975,73.930001 99.99975,51.2675 100.08715,22.916789 77.62775,0 50.03637,0 Z"
       fill="#ffffff"
       id="path3574"
       style="stroke-width:1.033" /></g></svg>
