<?xml version="1.0" encoding="UTF-8" standalone="no"?>
<!-- Created with Inkscape (http://www.inkscape.org/) -->

<svg
   width="100"
   height="100"
   viewBox="0 0 100 100"
   version="1.1"
   id="svg2204"
   inkscape:version="1.2 (dc2aedaf03, 2022-05-15)"
   sodipodi:docname="template.svg"
   inkscape:export-filename="instagram.svg"
   inkscape:export-xdpi="96"
   inkscape:export-ydpi="96"
   xml:space="preserve"
   xmlns:inkscape="http://www.inkscape.org/namespaces/inkscape"
   xmlns:sodipodi="http://sodipodi.sourceforge.net/DTD/sodipodi-0.dtd"
   xmlns="http://www.w3.org/2000/svg"
   xmlns:svg="http://www.w3.org/2000/svg"><sodipodi:namedview
     id="namedview2206"
     pagecolor="#505050"
     bordercolor="#eeeeee"
     borderopacity="1"
     inkscape:showpageshadow="false"
     inkscape:pageopacity="0"
     inkscape:pagecheckerboard="false"
     inkscape:deskcolor="#505050"
     inkscape:document-units="px"
     showgrid="false"
     inkscape:zoom="3.3638608"
     inkscape:cx="42.659315"
     inkscape:cy="64.509209"
     inkscape:window-width="1920"
     inkscape:window-height="1017"
     inkscape:window-x="-8"
     inkscape:window-y="-8"
     inkscape:window-maximized="1"
     inkscape:current-layer="layer1" /><defs
     id="defs2201" /><g
     inkscape:label="Layer 1"
     inkscape:groupmode="layer"
     id="layer1"><rect
       style="fill:#006699;fill-opacity:1;stroke-width:17.1759;stroke-miterlimit:0;stop-color:#000000"
       id="rect149246-5"
       width="100"
       height="100"
       x="0"
       y="0"
       rx="20"
       ry="20" /><g
       id="g150135"
       transform="matrix(4.4198774,0,0,4.4286978,-1593.8214,-9149.2172)"><path
         d="m 368.06007,2083.9338 v -9.1097 h -3.02789 v 9.1097 z m -1.51396,-10.3534 c 1.05589,0 1.71308,-0.6996 1.71308,-1.5738 -0.0197,-0.8938 -0.65719,-1.5739 -1.69305,-1.5739 -1.03575,0 -1.71295,0.6801 -1.71295,1.5739 0,0.8742 0.65707,1.5738 1.67319,1.5738 h 0.0197 z"
         style="fill:#ffffff;fill-opacity:1;fill-rule:evenodd;stroke:none;stroke-width:0.269565"
         id="path150131"
         inkscape:connector-curvature="0" /><path
         d="m 369.73549,2083.9338 h 3.02786 v -5.0872 c 0,-0.2723 0.0197,-0.5443 0.0996,-0.7389 0.21889,-0.544 0.7171,-1.1074 1.55356,-1.1074 1.09564,0 1.53393,0.8354 1.53393,2.06 v 4.8735 h 3.02761 v -5.2233 c 0,-2.7981 -1.49379,-4.1001 -3.4859,-4.1001 -1.63345,0 -2.35055,0.913 -2.74897,1.5349 h 0.0202 v -1.3212 h -3.02786 c 0.0397,0.8548 0,9.1097 0,9.1097 z"
         style="fill:#ffffff;fill-opacity:1;fill-rule:evenodd;stroke:none;stroke-width:0.269565"
         id="path150133"
         inkscape:connector-curvature="0" /></g></g></svg>
