<?xml version="1.0" encoding="UTF-8" standalone="no"?>
<!-- Created with Inkscape (http://www.inkscape.org/) -->

<svg
   width="100"
   height="100"
   viewBox="0 0 100 100"
   version="1.1"
   id="svg2204"
   inkscape:version="1.2 (dc2aedaf03, 2022-05-15)"
   sodipodi:docname="template.svg"
   inkscape:export-filename="linkedIn.svg"
   inkscape:export-xdpi="96"
   inkscape:export-ydpi="96"
   xml:space="preserve"
   xmlns:inkscape="http://www.inkscape.org/namespaces/inkscape"
   xmlns:sodipodi="http://sodipodi.sourceforge.net/DTD/sodipodi-0.dtd"
   xmlns="http://www.w3.org/2000/svg"
   xmlns:svg="http://www.w3.org/2000/svg"><sodipodi:namedview
     id="namedview2206"
     pagecolor="#505050"
     bordercolor="#eeeeee"
     borderopacity="1"
     inkscape:showpageshadow="false"
     inkscape:pageopacity="0"
     inkscape:pagecheckerboard="false"
     inkscape:deskcolor="#505050"
     inkscape:document-units="px"
     showgrid="false"
     inkscape:zoom="3.3638608"
     inkscape:cx="42.659315"
     inkscape:cy="64.509209"
     inkscape:window-width="1920"
     inkscape:window-height="1017"
     inkscape:window-x="-8"
     inkscape:window-y="-8"
     inkscape:window-maximized="1"
     inkscape:current-layer="layer1" /><defs
     id="defs2201" /><g
     inkscape:label="Layer 1"
     inkscape:groupmode="layer"
     id="layer1"><rect
       style="fill:#1ab7ea;fill-opacity:1;stroke:none;stroke-width:2.05068;stroke-opacity:1;stop-color:#000000"
       id="rect65187"
       width="100"
       height="100"
       x="-1.2974915e-06"
       y="1.9293202e-07"
       rx="20"
       ry="20" /><path
       class="st0"
       d="M 81.693489,35.288452 C 81.40927,41.449224 77.09621,49.887499 68.754541,60.600392 60.128536,71.78506 52.827714,77.38028 46.857037,77.38028 c -3.696145,0 -6.82619,-3.412071 -9.384998,-10.238233 L 32.354307,48.372338 c -1.898842,-6.828759 -3.937284,-10.240541 -6.115354,-10.240541 -0.474718,0 -2.132393,0.994911 -4.978104,2.985021 L 18.27554,37.278563 c 3.102113,-2.726195 6.181345,-5.475761 9.242831,-8.247546 4.170835,-3.602224 7.298341,-5.498556 9.384999,-5.6864 4.929887,-0.474949 7.963442,2.891532 9.100693,10.09569 1.231202,7.773174 2.086687,12.609226 2.558895,14.502673 1.421556,6.445568 2.985309,9.669506 4.6912,9.669506 1.327664,0 3.31789,-2.086774 5.973188,-6.257435 2.655327,-4.170951 4.076941,-7.346701 4.264786,-9.527253 0.378227,-3.602223 -1.04333,-5.404778 -4.264786,-5.404778 -1.515508,0 -3.081771,0.332695 -4.691201,0.995199 3.127477,-10.143877 9.100664,-15.07111 17.917052,-14.786891 6.539288,0.190441 9.618548,4.40929 9.240292,12.657124 z"
       id="path65732"
       style="fill:#ffffff;stroke-width:0.0253854" /></g></svg>
