<?xml version="1.0" encoding="UTF-8" standalone="no"?>
<!-- Created with Inkscape (http://www.inkscape.org/) -->

<svg
   width="100"
   height="30"
   viewBox="0 0 26.458333 7.9375"
   version="1.1"
   id="svg3562"
   inkscape:version="1.2 (dc2aedaf03, 2022-05-15)"
   sodipodi:docname="3dprinting.svg"
   xml:space="preserve"
   xmlns:inkscape="http://www.inkscape.org/namespaces/inkscape"
   xmlns:sodipodi="http://sodipodi.sourceforge.net/DTD/sodipodi-0.dtd"
   xmlns="http://www.w3.org/2000/svg"
   xmlns:svg="http://www.w3.org/2000/svg"><sodipodi:namedview
     id="namedview3564"
     pagecolor="#505050"
     bordercolor="#eeeeee"
     borderopacity="1"
     inkscape:showpageshadow="0"
     inkscape:pageopacity="0"
     inkscape:pagecheckerboard="0"
     inkscape:deskcolor="#505050"
     inkscape:document-units="px"
     showgrid="false"
     inkscape:zoom="4.7572176"
     inkscape:cx="-6.9368279"
     inkscape:cy="35.104554"
     inkscape:window-width="1920"
     inkscape:window-height="1017"
     inkscape:window-x="-8"
     inkscape:window-y="-8"
     inkscape:window-maximized="1"
     inkscape:current-layer="layer1" /><defs
     id="defs3559" /><g
     inkscape:label="Layer 1"
     inkscape:groupmode="layer"
     id="layer1"><g
       id="g26795"
       transform="translate(9.0099938,-9.343697)"><path
         id="path25357-8"
         style="fill:#724587;fill-opacity:1;stroke-width:0.0304497"
         d="m 7.3725239,9.3437092 v 1.8907638 c -1.208e-4,0.06907 -2.589e-4,0.143436 0,0.199781 v 0.802247 H 8.122094 l 0.3389458,1.229287 0.7794997,-0.0013 0.33734,-1.228037 H 10.339314 V 9.3437066 Z m 1.2384299,4.4937628 0.010527,0.43538 c 0.00726,1.118904 1.2089967,0.991332 1.7732752,0.998683 0.559006,0.0072 0.857098,0.0122 1.01895,0.02204 0.358843,0.0094 0.361629,0.1898 2.59e-4,0.193078 -0.160759,0.0091 -0.454711,0.01449 -0.998701,0.01942 -0.325278,0.003 -0.7399535,0.0057 -1.2690095,0.009 l -1.9473669,0.01221 c -1.2869698,-4.32e-4 -1.1590633,1.079339 0.00973,1.075505 0.3778834,0.0092 0.9754329,0.0085 1.9467829,0.0085 1.2014315,0 1.9581905,0.0062 2.2636265,0.01856 0.294571,0.0028 0.281731,0.194596 -2.59e-4,0.207199 -0.310394,0.01353 -1.058631,0.02115 -2.3939045,0.02527 l -2.7318498,0.0078 -1.985e-4,0.411071 2.7107283,-1.73e-4 c 1.0408945,-5.3e-5 1.7732305,-0.0042 2.1989875,-0.01247 0.997817,-0.01394 1.29431,-1.100058 -0.04792,-1.071212 l -1.9712535,-0.01232 c -1.2404127,-0.0078 -1.8520614,-0.01262 -2.156919,-0.02352 -0.525847,0.0024 -0.449893,-0.197233 0.01396,-0.197037 0.309432,-0.01055 0.9211952,-0.01538 2.142959,-0.02303 1.1704515,-0.0073 1.7995025,-0.0099 2.1534245,-0.0262 0.942596,-0.04406 0.984584,-0.877785 -0.03263,-0.953407 -0.637789,-0.0034 -0.663088,-0.0095 -1.4993535,-0.0024 -0.552105,-0.01676 -0.742787,-0.276336 -0.76177,-0.72319 l -0.0056,-0.402209 z"
         sodipodi:nodetypes="ccccccccccccccccscccscccccccccccscccccc" /><g
         aria-label="3D"
         transform="matrix(0.22512659,0,0,0.22512659,93.443655,-175.27832)"
         id="text26107"
         style="font-size:40px;line-height:1.25;white-space:pre;shape-inside:url(#rect26109);display:inline;fill:#724587;fill-opacity:1"><path
           d="m -413.94531,842.62212 q 0,1.89453 -0.70313,3.41797 -0.70312,1.5039 -2.16797,2.57812 -1.44531,1.05469 -3.65234,1.6211 -2.20703,0.5664 -5.19531,0.5664 -0.66406,0 -1.40625,-0.0391 -0.72266,-0.0195 -1.44531,-0.0781 -0.72266,-0.0391 -1.40625,-0.11719 -0.6836,-0.0586 -1.23047,-0.15625 v -4.14063 q 1.23047,0.23438 2.7539,0.39063 1.54297,0.13672 3.20313,0.13672 1.62109,0 2.79297,-0.27344 1.17187,-0.27344 1.93359,-0.78125 0.76172,-0.52734 1.11328,-1.28906 0.3711,-0.76172 0.3711,-1.71875 0,-0.83985 -0.3711,-1.52344 -0.37109,-0.68359 -1.13281,-1.15234 -0.76172,-0.48829 -1.95313,-0.74219 -1.17187,-0.27344 -2.79296,-0.27344 h -2.83204 v -3.63281 h 2.59766 q 1.52344,0 2.51953,-0.29297 1.01563,-0.3125 1.60156,-0.82031 0.60547,-0.50782 0.85938,-1.19141 0.25391,-0.70312 0.25391,-1.46484 0,-1.5625 -1.01563,-2.36328 -1.01562,-0.82032 -3.14453,-0.82032 -1.52344,0 -3.00781,0.29297 -1.48438,0.29297 -3.06641,0.78125 v -4.0039 q 0.87891,-0.29297 1.67969,-0.48829 0.80078,-0.19531 1.60156,-0.33203 0.80078,-0.13672 1.62109,-0.19531 0.82032,-0.0586 1.69922,-0.0586 2.10938,0 3.69141,0.44922 1.60156,0.44921 2.67578,1.28906 1.09375,0.82031 1.64063,2.01172 0.54687,1.1914 0.54687,2.65625 0,2.32422 -1.07422,3.76953 -1.05469,1.42578 -2.96875,2.1875 1.23047,0.19531 2.22656,0.68359 0.9961,0.46875 1.69922,1.23047 0.72266,0.74219 1.09375,1.71875 0.39063,0.97656 0.39063,2.16797 z"
           style="font-weight:bold;font-family:Consolas;-inkscape-font-specification:'Consolas Bold';fill:#724587;fill-opacity:1"
           id="path26129" /><path
           d="m -390.91797,837.32915 q 0,2.96875 -0.74219,5.39063 -0.72265,2.42187 -2.28515,4.14062 -1.54297,1.69922 -3.96485,2.63672 -2.42187,0.91797 -5.80078,0.91797 h -6.48437 v -25.52735 h 7.55859 q 2.92969,0 5.11719,0.74219 2.20703,0.72266 3.67187,2.2461 1.46485,1.52343 2.1875,3.86718 0.74219,2.34375 0.74219,5.58594 z m -5.15625,0.3125 q 0,-2.07031 -0.33203,-3.69141 -0.33203,-1.62109 -1.13281,-2.73437 -0.78125,-1.13281 -2.10938,-1.71875 -1.32812,-0.58594 -3.30078,-0.58594 h -2.4414 v 17.48047 h 2.10937 q 3.53516,0 5.37109,-2.10937 1.83594,-2.10938 1.83594,-6.64063 z"
           style="font-weight:bold;font-family:Consolas;-inkscape-font-specification:'Consolas Bold';fill:#724587;fill-opacity:1"
           id="path26131" /></g></g></g></svg>
