<?xml version="1.0" encoding="UTF-8" standalone="no"?>
<!-- Created with Inkscape (http://www.inkscape.org/) -->

<svg
   width="100"
   height="30"
   viewBox="0 0 26.458333 7.9375"
   version="1.1"
   id="svg3562"
   inkscape:version="1.2 (dc2aedaf03, 2022-05-15)"
   sodipodi:docname="book.svg"
   xml:space="preserve"
   xmlns:inkscape="http://www.inkscape.org/namespaces/inkscape"
   xmlns:sodipodi="http://sodipodi.sourceforge.net/DTD/sodipodi-0.dtd"
   xmlns="http://www.w3.org/2000/svg"
   xmlns:svg="http://www.w3.org/2000/svg"><sodipodi:namedview
     id="namedview3564"
     pagecolor="#505050"
     bordercolor="#eeeeee"
     borderopacity="1"
     inkscape:showpageshadow="0"
     inkscape:pageopacity="0"
     inkscape:pagecheckerboard="0"
     inkscape:deskcolor="#505050"
     inkscape:document-units="px"
     showgrid="false"
     inkscape:zoom="6.7277216"
     inkscape:cx="41.916122"
     inkscape:cy="21.998532"
     inkscape:window-width="1920"
     inkscape:window-height="1017"
     inkscape:window-x="-8"
     inkscape:window-y="-8"
     inkscape:window-maximized="1"
     inkscape:current-layer="layer1" /><defs
     id="defs3559" /><g
     inkscape:label="Layer 1"
     inkscape:groupmode="layer"
     id="layer1"><g
       style="fill:#724587;fill-opacity:1"
       id="g7449"
       transform="matrix(0.60573151,0,0,0.60573151,8.3833149,-0.54265734)"><path
         d="M 1,2.828 C 1.885,2.458 3.154,2.059 4.388,1.935 5.718,1.801 6.846,1.998 7.5,2.687 v 9.746 C 6.565,11.903 5.38,11.83 4.287,11.94 3.107,12.06 1.917,12.401 1,12.751 Z M 8.5,2.687 C 9.154,1.998 10.282,1.801 11.612,1.935 12.846,2.059 14.115,2.458 15,2.828 v 9.923 C 14.082,12.401 12.893,12.059 11.713,11.941 10.619,11.83 9.435,11.902 8.5,12.433 Z M 8,1.783 C 7.015,0.936 5.587,0.81 4.287,0.94 2.773,1.093 1.245,1.612 0.293,2.045 A 0.5,0.5 0 0 0 0,2.5 v 11 a 0.5,0.5 0 0 0 0.707,0.455 c 0.882,-0.4 2.303,-0.881 3.68,-1.02 1.409,-0.142 2.59,0.087 3.223,0.877 a 0.5,0.5 0 0 0 0.78,0 c 0.633,-0.79 1.814,-1.019 3.222,-0.877 1.378,0.139 2.8,0.62 3.681,1.02 A 0.5,0.5 0 0 0 16,13.5 V 2.5 A 0.5,0.5 0 0 0 15.707,2.045 C 14.755,1.612 13.227,1.093 11.713,0.94 10.413,0.809 8.985,0.936 8,1.783 Z"
         id="path7440"
         style="fill:#724587;fill-opacity:1" /></g></g></svg>
