<?xml version="1.0" encoding="UTF-8" standalone="no"?>
<!-- Created with Inkscape (http://www.inkscape.org/) -->

<svg
   width="80"
   height="30"
   viewBox="0 0 21.166666 7.9375"
   version="1.1"
   id="svg3562"
   inkscape:version="1.2.2 (732a01da63, 2022-12-09)"
   sodipodi:docname="bootstrap.svg"
   xml:space="preserve"
   xmlns:inkscape="http://www.inkscape.org/namespaces/inkscape"
   xmlns:sodipodi="http://sodipodi.sourceforge.net/DTD/sodipodi-0.dtd"
   xmlns="http://www.w3.org/2000/svg"
   xmlns:svg="http://www.w3.org/2000/svg"><sodipodi:namedview
     id="namedview3564"
     pagecolor="#505050"
     bordercolor="#eeeeee"
     borderopacity="1"
     inkscape:showpageshadow="0"
     inkscape:pageopacity="0"
     inkscape:pagecheckerboard="0"
     inkscape:deskcolor="#505050"
     inkscape:document-units="px"
     showgrid="false"
     inkscape:zoom="6.7277216"
     inkscape:cx="15.607067"
     inkscape:cy="17.985286"
     inkscape:window-width="3840"
     inkscape:window-height="2054"
     inkscape:window-x="-11"
     inkscape:window-y="-11"
     inkscape:window-maximized="1"
     inkscape:current-layer="layer1" /><defs
     id="defs3559"><linearGradient
       id="bs-logo-a"
       x1="76.079002"
       x2="523.47998"
       y1="10.798"
       y2="365.94501"
       gradientUnits="userSpaceOnUse"><stop
         stop-color="#9013fe"
         id="stop12590" /><stop
         offset="1"
         stop-color="#6610f2"
         id="stop12592" /></linearGradient><linearGradient
       id="bs-logo-b"
       x1="193.508"
       x2="293.51401"
       y1="109.74"
       y2="278.87201"
       gradientUnits="userSpaceOnUse"><stop
         stop-color="#fff"
         id="stop12595" /><stop
         offset="1"
         stop-color="#f1e5fc"
         id="stop12597" /></linearGradient><style
       type="text/css"
       id="style4969">
   <![CDATA[
    .fil15 {fill:#290104}
    .fil14 {fill:#290104}
    .fil17 {fill:#381401}
    .fil13 {fill:#5D1917}
    .fil12 {fill:#5D1917}
    .fil9 {fill:#9D401F}
    .fil10 {fill:#9D401F}
    .fil16 {fill:#A64917}
    .fil6 {fill:#E0711C}
    .fil3 {fill:#F0B113}
    .fil8 {fill:#F4911B}
    .fil7 {fill:#F5DB5A}
    .fil11 {fill:#F76E2A}
    .fil0 {fill:#FFAF1B}
    .fil2 {fill:#FFC71B}
    .fil1 {fill:#FFC71B}
    .fil4 {fill:#FFD744}
    .fil5 {fill:#FFE474}
   ]]>
  </style><style
       type="text/css"
       id="style4969-1">
   <![CDATA[
    .fil15 {fill:#290104}
    .fil14 {fill:#290104}
    .fil17 {fill:#381401}
    .fil13 {fill:#5D1917}
    .fil12 {fill:#5D1917}
    .fil9 {fill:#9D401F}
    .fil10 {fill:#9D401F}
    .fil16 {fill:#A64917}
    .fil6 {fill:#E0711C}
    .fil3 {fill:#F0B113}
    .fil8 {fill:#F4911B}
    .fil7 {fill:#F5DB5A}
    .fil11 {fill:#F76E2A}
    .fil0 {fill:#FFAF1B}
    .fil2 {fill:#FFC71B}
    .fil1 {fill:#FFC71B}
    .fil4 {fill:#FFD744}
    .fil5 {fill:#FFE474}
   ]]>
  </style><style
       type="text/css"
       id="style4969-6">
   <![CDATA[
    .fil15 {fill:#290104}
    .fil14 {fill:#290104}
    .fil17 {fill:#381401}
    .fil13 {fill:#5D1917}
    .fil12 {fill:#5D1917}
    .fil9 {fill:#9D401F}
    .fil10 {fill:#9D401F}
    .fil16 {fill:#A64917}
    .fil6 {fill:#E0711C}
    .fil3 {fill:#F0B113}
    .fil8 {fill:#F4911B}
    .fil7 {fill:#F5DB5A}
    .fil11 {fill:#F76E2A}
    .fil0 {fill:#FFAF1B}
    .fil2 {fill:#FFC71B}
    .fil1 {fill:#FFC71B}
    .fil4 {fill:#FFD744}
    .fil5 {fill:#FFE474}
   ]]>
  </style><style
       type="text/css"
       id="style4969-0">
   <![CDATA[
    .fil15 {fill:#290104}
    .fil14 {fill:#290104}
    .fil17 {fill:#381401}
    .fil13 {fill:#5D1917}
    .fil12 {fill:#5D1917}
    .fil9 {fill:#9D401F}
    .fil10 {fill:#9D401F}
    .fil16 {fill:#A64917}
    .fil6 {fill:#E0711C}
    .fil3 {fill:#F0B113}
    .fil8 {fill:#F4911B}
    .fil7 {fill:#F5DB5A}
    .fil11 {fill:#F76E2A}
    .fil0 {fill:#FFAF1B}
    .fil2 {fill:#FFC71B}
    .fil1 {fill:#FFC71B}
    .fil4 {fill:#FFD744}
    .fil5 {fill:#FFE474}
   ]]>
  </style><linearGradient
       id="linearGradient14321"
       inkscape:swatch="solid"><stop
         style="stop-color:#ffffff;stop-opacity:1;"
         offset="0"
         id="stop14319" /></linearGradient><style
       type="text/css"
       id="style4969-5">
   <![CDATA[
    .fil15 {fill:#290104}
    .fil14 {fill:#290104}
    .fil17 {fill:#381401}
    .fil13 {fill:#5D1917}
    .fil12 {fill:#5D1917}
    .fil9 {fill:#9D401F}
    .fil10 {fill:#9D401F}
    .fil16 {fill:#A64917}
    .fil6 {fill:#E0711C}
    .fil3 {fill:#F0B113}
    .fil8 {fill:#F4911B}
    .fil7 {fill:#F5DB5A}
    .fil11 {fill:#F76E2A}
    .fil0 {fill:#FFAF1B}
    .fil2 {fill:#FFC71B}
    .fil1 {fill:#FFC71B}
    .fil4 {fill:#FFD744}
    .fil5 {fill:#FFE474}
   ]]>
  </style><style
       type="text/css"
       id="style4969-1-7">
   <![CDATA[
    .fil15 {fill:#290104}
    .fil14 {fill:#290104}
    .fil17 {fill:#381401}
    .fil13 {fill:#5D1917}
    .fil12 {fill:#5D1917}
    .fil9 {fill:#9D401F}
    .fil10 {fill:#9D401F}
    .fil16 {fill:#A64917}
    .fil6 {fill:#E0711C}
    .fil3 {fill:#F0B113}
    .fil8 {fill:#F4911B}
    .fil7 {fill:#F5DB5A}
    .fil11 {fill:#F76E2A}
    .fil0 {fill:#FFAF1B}
    .fil2 {fill:#FFC71B}
    .fil1 {fill:#FFC71B}
    .fil4 {fill:#FFD744}
    .fil5 {fill:#FFE474}
   ]]>
  </style><style
       type="text/css"
       id="style4969-6-1">
   <![CDATA[
    .fil15 {fill:#290104}
    .fil14 {fill:#290104}
    .fil17 {fill:#381401}
    .fil13 {fill:#5D1917}
    .fil12 {fill:#5D1917}
    .fil9 {fill:#9D401F}
    .fil10 {fill:#9D401F}
    .fil16 {fill:#A64917}
    .fil6 {fill:#E0711C}
    .fil3 {fill:#F0B113}
    .fil8 {fill:#F4911B}
    .fil7 {fill:#F5DB5A}
    .fil11 {fill:#F76E2A}
    .fil0 {fill:#FFAF1B}
    .fil2 {fill:#FFC71B}
    .fil1 {fill:#FFC71B}
    .fil4 {fill:#FFD744}
    .fil5 {fill:#FFE474}
   ]]>
  </style><style
       type="text/css"
       id="style4969-0-2">
   <![CDATA[
    .fil15 {fill:#290104}
    .fil14 {fill:#290104}
    .fil17 {fill:#381401}
    .fil13 {fill:#5D1917}
    .fil12 {fill:#5D1917}
    .fil9 {fill:#9D401F}
    .fil10 {fill:#9D401F}
    .fil16 {fill:#A64917}
    .fil6 {fill:#E0711C}
    .fil3 {fill:#F0B113}
    .fil8 {fill:#F4911B}
    .fil7 {fill:#F5DB5A}
    .fil11 {fill:#F76E2A}
    .fil0 {fill:#FFAF1B}
    .fil2 {fill:#FFC71B}
    .fil1 {fill:#FFC71B}
    .fil4 {fill:#FFD744}
    .fil5 {fill:#FFE474}
   ]]>
  </style><style
       id="style3506">.cls-1{fill:#10aa50;}.cls-2{fill:#b8c4c2;}.cls-3{fill:#12924f;}.cls-4{fill:#21313c;}</style><filter
       id="bs-logo-c-8"
       width="197"
       height="249"
       x="161.901"
       y="83.457001"
       color-interpolation-filters="sRGB"
       filterUnits="userSpaceOnUse"><feFlood
         flood-opacity="0"
         result="BackgroundImageFix"
         id="feFlood12600-7" /><feColorMatrix
         in="SourceAlpha"
         values="0 0 0 0 0 0 0 0 0 0 0 0 0 0 0 0 0 0 127 0"
         id="feColorMatrix12602-6" /><feOffset
         dy="4"
         id="feOffset12604-8" /><feGaussianBlur
         stdDeviation="8"
         id="feGaussianBlur12606-4" /><feColorMatrix
         values="0 0 0 0 0 0 0 0 0 0 0 0 0 0 0 0 0 0 0.15 0"
         id="feColorMatrix12608-0" /><feBlend
         in2="BackgroundImageFix"
         result="effect1_dropShadow"
         id="feBlend12610-5"
         mode="normal" /><feBlend
         in="SourceGraphic"
         in2="effect1_dropShadow"
         result="shape"
         id="feBlend12612-0"
         mode="normal" /></filter></defs><g
     inkscape:label="Layer 1"
     inkscape:groupmode="layer"
     id="layer1"><g
       id="g12641"
       transform="matrix(0.01487965,0,0,0.01487965,6.7741414,0)"><path
         fill="url(#bs-logo-a)"
         d="M 56.481,53.32 C 55.515,25.58 77.128,0 106.342,0 h 299.353 c 29.214,0 50.827,25.58 49.861,53.32 -0.928,26.647 0.277,61.165 8.964,89.31 8.715,28.232 23.411,46.077 47.48,48.37 v 26 c -24.069,2.293 -38.765,20.138 -47.48,48.37 -8.687,28.145 -9.892,62.663 -8.964,89.311 C 456.522,382.42 434.909,408 405.695,408 H 106.342 C 77.128,408 55.515,382.42 56.482,354.681 57.409,328.033 56.204,293.515 47.516,265.37 38.802,237.138 24.07,219.293 0,217 v -26 c 24.069,-2.293 38.802,-20.138 47.516,-48.37 8.688,-28.145 9.893,-62.663 8.965,-89.31 z"
         id="path12617"
         style="fill:url(#bs-logo-a)" /><path
         fill="url(#bs-logo-b)"
         filter="url(#bs-logo-c)"
         stroke="#ffffff"
         d="m 267.103,312.457 c 47.297,0 75.798,-23.158 75.798,-61.355 0,-28.873 -20.336,-49.776 -50.532,-53.085 v -1.203 c 22.185,-3.609 39.594,-24.211 39.594,-47.219 0,-32.783 -25.882,-54.138 -65.322,-54.138 h -88.74 v 217 z m -54.692,-189.48 h 45.911 c 24.958,0 39.131,11.128 39.131,31.279 0,21.505 -16.484,33.535 -46.372,33.535 h -38.67 z m 0,161.961 v -71.431 h 45.602 c 32.661,0 49.608,12.03 49.608,35.49 0,23.459 -16.484,35.941 -47.605,35.941 z"
         id="path12619"
         style="fill:url(#bs-logo-b);filter:url(#bs-logo-c-8)" /></g><g
       aria-label="BOOTSTRAP"
       id="text6994"
       style="font-weight:bold;font-size:1.51694px;line-height:1.25;font-family:Ebrima;-inkscape-font-specification:'Ebrima Bold';stroke-width:0.0554874"><path
         d="M 6.2162036,7.9129968 V 6.8508425 h 0.3866419 q 0.1777665,0 0.2733159,0.065181 0.095549,0.065181 0.095549,0.183692 0,0.08592 -0.058515,0.1503607 -0.057774,0.06444 -0.1481387,0.089624 v 0.00296 q 0.1133261,0.014073 0.1807292,0.083698 0.068144,0.069625 0.068144,0.1696188 0,0.1459166 -0.1044378,0.231837 -0.1044378,0.08518 -0.2851669,0.08518 z M 6.4554476,7.0271275 V 7.2789633 H 6.560626 q 0.074069,0 0.1162889,-0.035553 0.04296,-0.036294 0.04296,-0.099253 0,-0.1170296 -0.1748036,-0.1170296 z m 0,0.4296022 v 0.279982 h 0.1296213 q 0.082958,0 0.1296213,-0.038516 0.047404,-0.038516 0.047404,-0.1051785 0,-0.0637 -0.046664,-0.099994 -0.045923,-0.036294 -0.1288806,-0.036294 z"
         style="fill:#ffffff"
         id="path317" /><path
         d="m 7.6375942,7.9315141 q -0.2281336,0 -0.3718281,-0.1481387 -0.1436945,-0.1488793 -0.1436945,-0.3873826 0,-0.2518357 0.1459166,-0.4073813 0.1459166,-0.1555456 0.3866419,-0.1555456 0.2273929,0 0.3673839,0.1488793 0.1407317,0.1488794 0.1407317,0.3925675 0,0.2503544 -0.1459165,0.4036779 -0.1451759,0.1533235 -0.379235,0.1533235 z m 0.01037,-0.8925355 q -0.1259179,0 -0.1999872,0.094809 -0.074069,0.094068 -0.074069,0.2496136 0,0.1577677 0.074069,0.2496137 0.074069,0.091846 0.1940616,0.091846 0.1236958,0 0.1962838,-0.088883 0.072588,-0.089624 0.072588,-0.2481323 0,-0.1651746 -0.070366,-0.2570206 -0.070366,-0.091846 -0.1925802,-0.091846 z"
         style="fill:#ffffff"
         id="path319" /><path
         d="m 8.7878908,7.9315141 q -0.2281335,0 -0.371828,-0.1481387 -0.1436945,-0.1488793 -0.1436945,-0.3873826 0,-0.2518357 0.1459166,-0.4073813 0.1459165,-0.1555456 0.3866419,-0.1555456 0.2273928,0 0.3673839,0.1488793 0.1407317,0.1488794 0.1407317,0.3925675 0,0.2503544 -0.1459166,0.4036779 -0.1451759,0.1533235 -0.379235,0.1533235 z m 0.01037,-0.8925355 q -0.1259178,0 -0.1999872,0.094809 -0.074069,0.094068 -0.074069,0.2496136 0,0.1577677 0.074069,0.2496137 0.074069,0.091846 0.1940617,0.091846 0.1236958,0 0.1962837,-0.088883 0.072588,-0.089624 0.072588,-0.2481323 0,-0.1651746 -0.070366,-0.2570206 -0.070366,-0.091846 -0.1925803,-0.091846 z"
         style="fill:#ffffff"
         id="path321" /><path
         d="M 10.235206,7.0456448 H 9.9322622 v 0.867352 H 9.6922776 V 7.0456448 H 9.3908154 V 6.8508425 h 0.8443906 z"
         style="fill:#ffffff"
         id="path323" /><path
         d="M 10.329274,7.8722586 V 7.6352368 q 0.06444,0.054071 0.139991,0.081476 0.07555,0.026665 0.152583,0.026665 0.04518,0 0.07851,-0.00815 0.03407,-0.00815 0.05629,-0.022221 0.02296,-0.014814 0.03407,-0.034072 0.01111,-0.019999 0.01111,-0.04296 0,-0.031109 -0.01778,-0.055552 -0.01778,-0.024443 -0.04888,-0.045182 -0.03037,-0.02074 -0.07259,-0.039998 -0.04222,-0.019258 -0.09111,-0.039257 -0.124436,-0.051849 -0.185914,-0.1266586 -0.06074,-0.07481 -0.06074,-0.1807292 0,-0.082958 0.03333,-0.1422131 0.03333,-0.059996 0.09036,-0.098512 0.05777,-0.038516 0.133325,-0.056293 0.07555,-0.018517 0.15999,-0.018517 0.08296,0 0.146657,0.01037 0.06444,0.00963 0.118511,0.030368 v 0.2214673 q -0.02667,-0.018517 -0.05852,-0.032591 -0.03111,-0.014073 -0.06444,-0.022962 -0.03333,-0.00963 -0.06666,-0.014073 -0.03259,-0.00444 -0.06222,-0.00444 -0.04074,0 -0.07407,0.00815 -0.03333,0.00741 -0.05629,0.02148 -0.02296,0.014073 -0.03555,0.034072 -0.01259,0.019258 -0.01259,0.043701 0,0.026665 0.01407,0.048145 0.01407,0.020739 0.04,0.039997 0.02592,0.018517 0.06296,0.037035 0.03703,0.017777 0.0837,0.037035 0.0637,0.026665 0.114067,0.057033 0.05111,0.029628 0.0874,0.067403 0.03629,0.037775 0.05555,0.086661 0.01926,0.048145 0.01926,0.1125853 0,0.088883 -0.03407,0.1496201 -0.03333,0.059996 -0.09111,0.097772 -0.05777,0.037035 -0.134807,0.05333 -0.07629,0.016295 -0.161471,0.016295 -0.0874,0 -0.166656,-0.014814 -0.07851,-0.014814 -0.136287,-0.044442 z"
         style="fill:#ffffff"
         id="path325" /><path
         d="M 11.974354,7.0456448 H 11.67141 v 0.867352 H 11.431425 V 7.0456448 H 11.129963 V 6.8508425 h 0.844391 z"
         style="fill:#ffffff"
         id="path327" /><path
         d="M 13.008362,7.9129968 H 12.733564 L 12.56839,7.6396809 q -0.01852,-0.031109 -0.03555,-0.055552 -0.01704,-0.024443 -0.03481,-0.041479 -0.01704,-0.017777 -0.03629,-0.026665 -0.01852,-0.00963 -0.04074,-0.00963 h -0.06444 V 7.9129968 H 12.117308 V 6.8508425 h 0.379235 q 0.386642,0 0.386642,0.2888704 0,0.055552 -0.01704,0.1029564 -0.01704,0.046664 -0.04814,0.084439 -0.03111,0.037775 -0.07555,0.065181 -0.0437,0.027406 -0.09777,0.04296 v 0.00296 q 0.0237,0.00741 0.04592,0.024443 0.02222,0.016295 0.04296,0.038516 0.02074,0.022221 0.03926,0.048145 0.01926,0.025184 0.03481,0.049626 z m -0.65181,-0.8829065 v 0.2955366 h 0.103697 q 0.07703,0 0.123695,-0.044442 0.0474,-0.045182 0.0474,-0.1118447 0,-0.1392503 -0.166656,-0.1392503 z"
         style="fill:#ffffff"
         id="path329" /><path
         d="M 14.041629,7.9129968 H 13.780905 L 13.705354,7.6767156 H 13.3276 L 13.25279,7.9129968 H 12.993548 L 13.38019,6.8508425 h 0.283685 z M 13.650543,7.4930236 13.536476,7.1360094 Q 13.523884,7.096012 13.518699,7.04046 h -0.0059 q -0.0037,0.046664 -0.01852,0.092587 l -0.115548,0.3599769 z"
         style="fill:#ffffff"
         id="path331" /><path
         d="M 14.413457,7.5470942 V 7.9129968 H 14.174213 V 6.8508425 h 0.374791 q 0.401456,0 0.401456,0.3384969 0,0.1599897 -0.115548,0.2592426 -0.114808,0.098512 -0.307388,0.098512 z m 0,-0.5125598 v 0.33109 h 0.09407 q 0.191099,0 0.191099,-0.1673967 0,-0.1636933 -0.191099,-0.1636933 z"
         style="fill:#ffffff"
         id="path333" /></g></g></svg>
