<?xml version="1.0" encoding="UTF-8" standalone="no"?>
<!-- Created with Inkscape (http://www.inkscape.org/) -->

<svg
   width="80"
   height="30"
   viewBox="0 0 21.166666 7.9375"
   version="1.1"
   id="svg3562"
   inkscape:version="1.2.2 (732a01da63, 2022-12-09)"
   sodipodi:docname="css3.svg"
   xml:space="preserve"
   xmlns:inkscape="http://www.inkscape.org/namespaces/inkscape"
   xmlns:sodipodi="http://sodipodi.sourceforge.net/DTD/sodipodi-0.dtd"
   xmlns="http://www.w3.org/2000/svg"
   xmlns:svg="http://www.w3.org/2000/svg"><sodipodi:namedview
     id="namedview3564"
     pagecolor="#505050"
     bordercolor="#eeeeee"
     borderopacity="1"
     inkscape:showpageshadow="0"
     inkscape:pageopacity="0"
     inkscape:pagecheckerboard="0"
     inkscape:deskcolor="#505050"
     inkscape:document-units="px"
     showgrid="false"
     inkscape:zoom="6.7277216"
     inkscape:cx="15.607067"
     inkscape:cy="17.985286"
     inkscape:window-width="3840"
     inkscape:window-height="2054"
     inkscape:window-x="-11"
     inkscape:window-y="-11"
     inkscape:window-maximized="1"
     inkscape:current-layer="layer1"
     showguides="true"><sodipodi:guide
       position="8.0448126,1.8688113"
       orientation="0,-1"
       id="guide7559"
       inkscape:locked="false" /></sodipodi:namedview><defs
     id="defs3559"><style
       type="text/css"
       id="style4969">
   <![CDATA[
    .fil15 {fill:#290104}
    .fil14 {fill:#290104}
    .fil17 {fill:#381401}
    .fil13 {fill:#5D1917}
    .fil12 {fill:#5D1917}
    .fil9 {fill:#9D401F}
    .fil10 {fill:#9D401F}
    .fil16 {fill:#A64917}
    .fil6 {fill:#E0711C}
    .fil3 {fill:#F0B113}
    .fil8 {fill:#F4911B}
    .fil7 {fill:#F5DB5A}
    .fil11 {fill:#F76E2A}
    .fil0 {fill:#FFAF1B}
    .fil2 {fill:#FFC71B}
    .fil1 {fill:#FFC71B}
    .fil4 {fill:#FFD744}
    .fil5 {fill:#FFE474}
   ]]>
  </style><style
       type="text/css"
       id="style4969-1">
   <![CDATA[
    .fil15 {fill:#290104}
    .fil14 {fill:#290104}
    .fil17 {fill:#381401}
    .fil13 {fill:#5D1917}
    .fil12 {fill:#5D1917}
    .fil9 {fill:#9D401F}
    .fil10 {fill:#9D401F}
    .fil16 {fill:#A64917}
    .fil6 {fill:#E0711C}
    .fil3 {fill:#F0B113}
    .fil8 {fill:#F4911B}
    .fil7 {fill:#F5DB5A}
    .fil11 {fill:#F76E2A}
    .fil0 {fill:#FFAF1B}
    .fil2 {fill:#FFC71B}
    .fil1 {fill:#FFC71B}
    .fil4 {fill:#FFD744}
    .fil5 {fill:#FFE474}
   ]]>
  </style><style
       type="text/css"
       id="style4969-6">
   <![CDATA[
    .fil15 {fill:#290104}
    .fil14 {fill:#290104}
    .fil17 {fill:#381401}
    .fil13 {fill:#5D1917}
    .fil12 {fill:#5D1917}
    .fil9 {fill:#9D401F}
    .fil10 {fill:#9D401F}
    .fil16 {fill:#A64917}
    .fil6 {fill:#E0711C}
    .fil3 {fill:#F0B113}
    .fil8 {fill:#F4911B}
    .fil7 {fill:#F5DB5A}
    .fil11 {fill:#F76E2A}
    .fil0 {fill:#FFAF1B}
    .fil2 {fill:#FFC71B}
    .fil1 {fill:#FFC71B}
    .fil4 {fill:#FFD744}
    .fil5 {fill:#FFE474}
   ]]>
  </style><style
       type="text/css"
       id="style4969-0">
   <![CDATA[
    .fil15 {fill:#290104}
    .fil14 {fill:#290104}
    .fil17 {fill:#381401}
    .fil13 {fill:#5D1917}
    .fil12 {fill:#5D1917}
    .fil9 {fill:#9D401F}
    .fil10 {fill:#9D401F}
    .fil16 {fill:#A64917}
    .fil6 {fill:#E0711C}
    .fil3 {fill:#F0B113}
    .fil8 {fill:#F4911B}
    .fil7 {fill:#F5DB5A}
    .fil11 {fill:#F76E2A}
    .fil0 {fill:#FFAF1B}
    .fil2 {fill:#FFC71B}
    .fil1 {fill:#FFC71B}
    .fil4 {fill:#FFD744}
    .fil5 {fill:#FFE474}
   ]]>
  </style><linearGradient
       id="linearGradient14321"
       inkscape:swatch="solid"><stop
         style="stop-color:#ffffff;stop-opacity:1;"
         offset="0"
         id="stop14319" /></linearGradient><style
       type="text/css"
       id="style4969-5">
   <![CDATA[
    .fil15 {fill:#290104}
    .fil14 {fill:#290104}
    .fil17 {fill:#381401}
    .fil13 {fill:#5D1917}
    .fil12 {fill:#5D1917}
    .fil9 {fill:#9D401F}
    .fil10 {fill:#9D401F}
    .fil16 {fill:#A64917}
    .fil6 {fill:#E0711C}
    .fil3 {fill:#F0B113}
    .fil8 {fill:#F4911B}
    .fil7 {fill:#F5DB5A}
    .fil11 {fill:#F76E2A}
    .fil0 {fill:#FFAF1B}
    .fil2 {fill:#FFC71B}
    .fil1 {fill:#FFC71B}
    .fil4 {fill:#FFD744}
    .fil5 {fill:#FFE474}
   ]]>
  </style><style
       type="text/css"
       id="style4969-1-7">
   <![CDATA[
    .fil15 {fill:#290104}
    .fil14 {fill:#290104}
    .fil17 {fill:#381401}
    .fil13 {fill:#5D1917}
    .fil12 {fill:#5D1917}
    .fil9 {fill:#9D401F}
    .fil10 {fill:#9D401F}
    .fil16 {fill:#A64917}
    .fil6 {fill:#E0711C}
    .fil3 {fill:#F0B113}
    .fil8 {fill:#F4911B}
    .fil7 {fill:#F5DB5A}
    .fil11 {fill:#F76E2A}
    .fil0 {fill:#FFAF1B}
    .fil2 {fill:#FFC71B}
    .fil1 {fill:#FFC71B}
    .fil4 {fill:#FFD744}
    .fil5 {fill:#FFE474}
   ]]>
  </style><style
       type="text/css"
       id="style4969-6-1">
   <![CDATA[
    .fil15 {fill:#290104}
    .fil14 {fill:#290104}
    .fil17 {fill:#381401}
    .fil13 {fill:#5D1917}
    .fil12 {fill:#5D1917}
    .fil9 {fill:#9D401F}
    .fil10 {fill:#9D401F}
    .fil16 {fill:#A64917}
    .fil6 {fill:#E0711C}
    .fil3 {fill:#F0B113}
    .fil8 {fill:#F4911B}
    .fil7 {fill:#F5DB5A}
    .fil11 {fill:#F76E2A}
    .fil0 {fill:#FFAF1B}
    .fil2 {fill:#FFC71B}
    .fil1 {fill:#FFC71B}
    .fil4 {fill:#FFD744}
    .fil5 {fill:#FFE474}
   ]]>
  </style><style
       type="text/css"
       id="style4969-0-2">
   <![CDATA[
    .fil15 {fill:#290104}
    .fil14 {fill:#290104}
    .fil17 {fill:#381401}
    .fil13 {fill:#5D1917}
    .fil12 {fill:#5D1917}
    .fil9 {fill:#9D401F}
    .fil10 {fill:#9D401F}
    .fil16 {fill:#A64917}
    .fil6 {fill:#E0711C}
    .fil3 {fill:#F0B113}
    .fil8 {fill:#F4911B}
    .fil7 {fill:#F5DB5A}
    .fil11 {fill:#F76E2A}
    .fil0 {fill:#FFAF1B}
    .fil2 {fill:#FFC71B}
    .fil1 {fill:#FFC71B}
    .fil4 {fill:#FFD744}
    .fil5 {fill:#FFE474}
   ]]>
  </style><style
       id="style3506">.cls-1{fill:#10aa50;}.cls-2{fill:#b8c4c2;}.cls-3{fill:#12924f;}.cls-4{fill:#21313c;}</style></defs><g
     inkscape:label="Layer 1"
     inkscape:groupmode="layer"
     id="layer1"><g
       id="g17493"
       transform="matrix(1.109532,0,0,1.109532,34.443911,-194.95729)"><polygon
         id="polygon2989"
         points="74.633,100.62 437.367,100.62 404.321,470.819 255.778,512 107.644,470.877 "
         style="fill:#264de4"
         transform="matrix(0.01326444,0,0,0.01326444,-24.90078,174.39446)" /><polygon
         id="polygon2991"
         points="256,130.894 256,480.523 376.03,447.246 404.27,130.894 "
         style="fill:#2965f1"
         transform="matrix(0.01326444,0,0,0.01326444,-24.90078,174.39446)" /><polygon
         id="polygon2993"
         points="256,313.627 256,268.217 150.31,268.217 154.38,313.627 "
         style="fill:#ebebeb"
         transform="matrix(0.01326444,0,0,0.01326444,-24.90078,174.39446)" /><polygon
         id="polygon2995"
         points="256,221.716 256,176.305 255.843,176.305 142.132,176.305 146.26,221.716 "
         style="fill:#ebebeb"
         transform="matrix(0.01326444,0,0,0.01326444,-24.90078,174.39446)" /><polygon
         id="polygon2997"
         points="201.994,336.333 177.419,336.333 156.409,336.333 162.771,407.634 255.791,433.457 256,433.399 256,386.153 255.801,386.206 205.227,372.55 "
         style="fill:#ebebeb"
         transform="matrix(0.01326444,0,0,0.01326444,-24.90078,174.39446)" /><polygon
         id="polygon3005"
         points="348.937,407.634 349.62,399.962 360.291,280.411 361.399,268.217 369.597,176.305 255.843,176.305 255.843,221.716 319.831,221.716 315.699,268.217 255.843,268.217 255.843,313.627 311.761,313.627 306.49,372.521 255.843,386.191 255.843,433.435 "
         style="fill:#ffffff"
         transform="matrix(0.01326444,0,0,0.01326444,-24.90078,174.39446)" /></g><g
       aria-label="CSS3"
       id="text6994"
       style="font-weight:bold;font-size:1.51694px;line-height:1.25;font-family:Ebrima;-inkscape-font-specification:'Ebrima Bold';stroke-width:0.0554874"><path
         d="m 9.7333875,7.8752214 q -0.1162888,0.056293 -0.3036843,0.056293 -0.2444288,0 -0.3844198,-0.1436945 -0.1399911,-0.1436945 -0.1399911,-0.3829385 0,-0.2547985 0.157027,-0.4133069 0.1577677,-0.1585083 0.4088628,-0.1585083 0.1555456,0 0.2622054,0.039257 v 0.2303556 q -0.1066598,-0.0637 -0.2429474,-0.0637 -0.1496201,0 -0.241466,0.094068 -0.091846,0.094068 -0.091846,0.2547985 0,0.1540642 0.086661,0.2459102 0.086661,0.091105 0.2333184,0.091105 0.1399911,0 0.2562799,-0.068144 z"
         style="fill:#ffffff"
         id="path308" /><path
         d="M 9.8696751,7.8722586 V 7.6352368 q 0.06444,0.054071 0.1399909,0.081476 0.07555,0.026665 0.152583,0.026665 0.04518,0 0.07851,-0.00815 0.03407,-0.00815 0.05629,-0.022221 0.02296,-0.014814 0.03407,-0.034072 0.01111,-0.019999 0.01111,-0.04296 0,-0.031109 -0.01778,-0.055552 -0.01778,-0.024443 -0.04889,-0.045182 -0.03037,-0.02074 -0.07259,-0.039998 -0.04222,-0.019258 -0.09111,-0.039257 -0.1244367,-0.051849 -0.1859142,-0.1266586 -0.060737,-0.07481 -0.060737,-0.1807292 0,-0.082958 0.033331,-0.1422131 0.033331,-0.059996 0.090365,-0.098512 0.057774,-0.038516 0.1333253,-0.056293 0.07555,-0.018517 0.159989,-0.018517 0.08296,0 0.146658,0.01037 0.06444,0.00963 0.118511,0.030368 v 0.2214673 q -0.02666,-0.018517 -0.05851,-0.032591 -0.03111,-0.014073 -0.06444,-0.022962 -0.03333,-0.00963 -0.06666,-0.014073 -0.03259,-0.00444 -0.06222,-0.00444 -0.04074,0 -0.07407,0.00815 -0.03333,0.00741 -0.05629,0.02148 -0.02296,0.014073 -0.03555,0.034072 -0.01259,0.019258 -0.01259,0.043701 0,0.026665 0.01407,0.048145 0.01407,0.020739 0.04,0.039997 0.02593,0.018517 0.06296,0.037035 0.03704,0.017777 0.0837,0.037035 0.0637,0.026665 0.114066,0.057033 0.05111,0.029628 0.0874,0.067403 0.03629,0.037775 0.05555,0.086661 0.01926,0.048145 0.01926,0.1125853 0,0.088883 -0.03407,0.1496201 -0.03333,0.059996 -0.0911,0.097772 -0.05777,0.037035 -0.134806,0.05333 -0.07629,0.016295 -0.161471,0.016295 -0.0874,0 -0.166656,-0.014814 -0.078514,-0.014814 -0.1362879,-0.044442 z"
         style="fill:#ffffff"
         id="path310" /><path
         d="M 10.719991,7.8722586 V 7.6352368 q 0.06444,0.054071 0.139991,0.081476 0.07555,0.026665 0.152583,0.026665 0.04518,0 0.07851,-0.00815 0.03407,-0.00815 0.05629,-0.022221 0.02296,-0.014814 0.03407,-0.034072 0.01111,-0.019999 0.01111,-0.04296 0,-0.031109 -0.01778,-0.055552 -0.01778,-0.024443 -0.04889,-0.045182 -0.03037,-0.02074 -0.07259,-0.039998 -0.04222,-0.019258 -0.0911,-0.039257 -0.124437,-0.051849 -0.185914,-0.1266586 -0.06074,-0.07481 -0.06074,-0.1807292 0,-0.082958 0.03333,-0.1422131 0.03333,-0.059996 0.09037,-0.098512 0.05777,-0.038516 0.133325,-0.056293 0.07555,-0.018517 0.159989,-0.018517 0.08296,0 0.146658,0.01037 0.06444,0.00963 0.11851,0.030368 v 0.2214673 q -0.02666,-0.018517 -0.05851,-0.032591 -0.03111,-0.014073 -0.06444,-0.022962 -0.03333,-0.00963 -0.06666,-0.014073 -0.03259,-0.00444 -0.06222,-0.00444 -0.04074,0 -0.07407,0.00815 -0.03333,0.00741 -0.05629,0.02148 -0.02296,0.014073 -0.03555,0.034072 -0.01259,0.019258 -0.01259,0.043701 0,0.026665 0.01407,0.048145 0.01407,0.020739 0.04,0.039997 0.02593,0.018517 0.06296,0.037035 0.03703,0.017777 0.0837,0.037035 0.0637,0.026665 0.114066,0.057033 0.05111,0.029628 0.0874,0.067403 0.03629,0.037775 0.05555,0.086661 0.01926,0.048145 0.01926,0.1125853 0,0.088883 -0.03407,0.1496201 -0.03333,0.059996 -0.0911,0.097772 -0.05777,0.037035 -0.134806,0.05333 -0.07629,0.016295 -0.161471,0.016295 -0.0874,0 -0.166656,-0.014814 -0.07851,-0.014814 -0.136288,-0.044442 z"
         style="fill:#ffffff"
         id="path312" /><path
         d="M 11.58438,7.8781842 V 7.6744935 q 0.10666,0.077773 0.248873,0.077773 0.08962,0 0.13925,-0.038516 0.05037,-0.038516 0.05037,-0.1074006 0,-0.071106 -0.06222,-0.1096226 -0.06148,-0.038516 -0.169618,-0.038516 h -0.09851 V 7.2789633 h 0.09111 q 0.207394,0 0.207394,-0.137769 0,-0.1296213 -0.159249,-0.1296213 -0.10666,0 -0.207394,0.068884 V 6.8893585 q 0.111844,-0.056293 0.260724,-0.056293 0.162952,0 0.253317,0.073329 0.0911,0.073329 0.0911,0.1903582 0,0.2081348 -0.211098,0.2607241 v 0.0037 q 0.112586,0.014073 0.177767,0.082217 0.06518,0.067403 0.06518,0.1659153 0,0.1488794 -0.108882,0.2355405 -0.108882,0.086661 -0.300722,0.086661 -0.164433,0 -0.26739,-0.05333 z"
         style="fill:#ffffff"
         id="path314" /></g></g></svg>
