<?xml version="1.0" encoding="UTF-8" standalone="no"?>
<!-- Created with Inkscape (http://www.inkscape.org/) -->

<svg
   width="80"
   height="30"
   viewBox="0 0 21.166666 7.9375"
   version="1.1"
   id="svg3562"
   inkscape:version="1.2.2 (732a01da63, 2022-12-09)"
   sodipodi:docname="gitHub.svg"
   xml:space="preserve"
   xmlns:inkscape="http://www.inkscape.org/namespaces/inkscape"
   xmlns:sodipodi="http://sodipodi.sourceforge.net/DTD/sodipodi-0.dtd"
   xmlns="http://www.w3.org/2000/svg"
   xmlns:svg="http://www.w3.org/2000/svg"><sodipodi:namedview
     id="namedview3564"
     pagecolor="#505050"
     bordercolor="#eeeeee"
     borderopacity="1"
     inkscape:showpageshadow="0"
     inkscape:pageopacity="0"
     inkscape:pagecheckerboard="0"
     inkscape:deskcolor="#505050"
     inkscape:document-units="px"
     showgrid="false"
     inkscape:zoom="6.7277216"
     inkscape:cx="15.607067"
     inkscape:cy="17.985286"
     inkscape:window-width="3840"
     inkscape:window-height="2054"
     inkscape:window-x="-11"
     inkscape:window-y="-11"
     inkscape:window-maximized="1"
     inkscape:current-layer="layer1"
     showguides="true"><sodipodi:guide
       position="8.0448126,1.8688113"
       orientation="0,-1"
       id="guide7559"
       inkscape:locked="false" /></sodipodi:namedview><defs
     id="defs3559"><style
       type="text/css"
       id="style4969">
   <![CDATA[
    .fil15 {fill:#290104}
    .fil14 {fill:#290104}
    .fil17 {fill:#381401}
    .fil13 {fill:#5D1917}
    .fil12 {fill:#5D1917}
    .fil9 {fill:#9D401F}
    .fil10 {fill:#9D401F}
    .fil16 {fill:#A64917}
    .fil6 {fill:#E0711C}
    .fil3 {fill:#F0B113}
    .fil8 {fill:#F4911B}
    .fil7 {fill:#F5DB5A}
    .fil11 {fill:#F76E2A}
    .fil0 {fill:#FFAF1B}
    .fil2 {fill:#FFC71B}
    .fil1 {fill:#FFC71B}
    .fil4 {fill:#FFD744}
    .fil5 {fill:#FFE474}
   ]]>
  </style><style
       type="text/css"
       id="style4969-1">
   <![CDATA[
    .fil15 {fill:#290104}
    .fil14 {fill:#290104}
    .fil17 {fill:#381401}
    .fil13 {fill:#5D1917}
    .fil12 {fill:#5D1917}
    .fil9 {fill:#9D401F}
    .fil10 {fill:#9D401F}
    .fil16 {fill:#A64917}
    .fil6 {fill:#E0711C}
    .fil3 {fill:#F0B113}
    .fil8 {fill:#F4911B}
    .fil7 {fill:#F5DB5A}
    .fil11 {fill:#F76E2A}
    .fil0 {fill:#FFAF1B}
    .fil2 {fill:#FFC71B}
    .fil1 {fill:#FFC71B}
    .fil4 {fill:#FFD744}
    .fil5 {fill:#FFE474}
   ]]>
  </style><style
       type="text/css"
       id="style4969-6">
   <![CDATA[
    .fil15 {fill:#290104}
    .fil14 {fill:#290104}
    .fil17 {fill:#381401}
    .fil13 {fill:#5D1917}
    .fil12 {fill:#5D1917}
    .fil9 {fill:#9D401F}
    .fil10 {fill:#9D401F}
    .fil16 {fill:#A64917}
    .fil6 {fill:#E0711C}
    .fil3 {fill:#F0B113}
    .fil8 {fill:#F4911B}
    .fil7 {fill:#F5DB5A}
    .fil11 {fill:#F76E2A}
    .fil0 {fill:#FFAF1B}
    .fil2 {fill:#FFC71B}
    .fil1 {fill:#FFC71B}
    .fil4 {fill:#FFD744}
    .fil5 {fill:#FFE474}
   ]]>
  </style><style
       type="text/css"
       id="style4969-0">
   <![CDATA[
    .fil15 {fill:#290104}
    .fil14 {fill:#290104}
    .fil17 {fill:#381401}
    .fil13 {fill:#5D1917}
    .fil12 {fill:#5D1917}
    .fil9 {fill:#9D401F}
    .fil10 {fill:#9D401F}
    .fil16 {fill:#A64917}
    .fil6 {fill:#E0711C}
    .fil3 {fill:#F0B113}
    .fil8 {fill:#F4911B}
    .fil7 {fill:#F5DB5A}
    .fil11 {fill:#F76E2A}
    .fil0 {fill:#FFAF1B}
    .fil2 {fill:#FFC71B}
    .fil1 {fill:#FFC71B}
    .fil4 {fill:#FFD744}
    .fil5 {fill:#FFE474}
   ]]>
  </style><linearGradient
       id="linearGradient14321"
       inkscape:swatch="solid"><stop
         style="stop-color:#ffffff;stop-opacity:1;"
         offset="0"
         id="stop14319" /></linearGradient><style
       type="text/css"
       id="style4969-5">
   <![CDATA[
    .fil15 {fill:#290104}
    .fil14 {fill:#290104}
    .fil17 {fill:#381401}
    .fil13 {fill:#5D1917}
    .fil12 {fill:#5D1917}
    .fil9 {fill:#9D401F}
    .fil10 {fill:#9D401F}
    .fil16 {fill:#A64917}
    .fil6 {fill:#E0711C}
    .fil3 {fill:#F0B113}
    .fil8 {fill:#F4911B}
    .fil7 {fill:#F5DB5A}
    .fil11 {fill:#F76E2A}
    .fil0 {fill:#FFAF1B}
    .fil2 {fill:#FFC71B}
    .fil1 {fill:#FFC71B}
    .fil4 {fill:#FFD744}
    .fil5 {fill:#FFE474}
   ]]>
  </style><style
       type="text/css"
       id="style4969-1-7">
   <![CDATA[
    .fil15 {fill:#290104}
    .fil14 {fill:#290104}
    .fil17 {fill:#381401}
    .fil13 {fill:#5D1917}
    .fil12 {fill:#5D1917}
    .fil9 {fill:#9D401F}
    .fil10 {fill:#9D401F}
    .fil16 {fill:#A64917}
    .fil6 {fill:#E0711C}
    .fil3 {fill:#F0B113}
    .fil8 {fill:#F4911B}
    .fil7 {fill:#F5DB5A}
    .fil11 {fill:#F76E2A}
    .fil0 {fill:#FFAF1B}
    .fil2 {fill:#FFC71B}
    .fil1 {fill:#FFC71B}
    .fil4 {fill:#FFD744}
    .fil5 {fill:#FFE474}
   ]]>
  </style><style
       type="text/css"
       id="style4969-6-1">
   <![CDATA[
    .fil15 {fill:#290104}
    .fil14 {fill:#290104}
    .fil17 {fill:#381401}
    .fil13 {fill:#5D1917}
    .fil12 {fill:#5D1917}
    .fil9 {fill:#9D401F}
    .fil10 {fill:#9D401F}
    .fil16 {fill:#A64917}
    .fil6 {fill:#E0711C}
    .fil3 {fill:#F0B113}
    .fil8 {fill:#F4911B}
    .fil7 {fill:#F5DB5A}
    .fil11 {fill:#F76E2A}
    .fil0 {fill:#FFAF1B}
    .fil2 {fill:#FFC71B}
    .fil1 {fill:#FFC71B}
    .fil4 {fill:#FFD744}
    .fil5 {fill:#FFE474}
   ]]>
  </style><style
       type="text/css"
       id="style4969-0-2">
   <![CDATA[
    .fil15 {fill:#290104}
    .fil14 {fill:#290104}
    .fil17 {fill:#381401}
    .fil13 {fill:#5D1917}
    .fil12 {fill:#5D1917}
    .fil9 {fill:#9D401F}
    .fil10 {fill:#9D401F}
    .fil16 {fill:#A64917}
    .fil6 {fill:#E0711C}
    .fil3 {fill:#F0B113}
    .fil8 {fill:#F4911B}
    .fil7 {fill:#F5DB5A}
    .fil11 {fill:#F76E2A}
    .fil0 {fill:#FFAF1B}
    .fil2 {fill:#FFC71B}
    .fil1 {fill:#FFC71B}
    .fil4 {fill:#FFD744}
    .fil5 {fill:#FFE474}
   ]]>
  </style><style
       id="style3506">.cls-1{fill:#10aa50;}.cls-2{fill:#b8c4c2;}.cls-3{fill:#12924f;}.cls-4{fill:#21313c;}</style></defs><g
     inkscape:label="Layer 1"
     inkscape:groupmode="layer"
     id="layer1"><path
       fill-rule="evenodd"
       clip-rule="evenodd"
       d="M 10.586213,0 C 8.8767804,0 7.4948809,1.3921056 7.4948809,3.1143012 c 0,1.3766588 0.8854406,2.5419662 2.1137625,2.9544091 0.153578,0.031041 0.209831,-0.066995 0.209831,-0.1494641 0,-0.072184 -0.00536,-0.3196696 -0.00536,-0.5775323 C 8.953177,5.5273762 8.7741071,4.9704696 8.7741071,4.9704696 8.6359136,4.6095379 8.4311455,4.5167737 8.4311455,4.5167737 8.1496868,4.3259953 8.451625,4.3259953 8.451625,4.3259953 8.7638351,4.3466586 8.9276549,4.6456649 8.9276549,4.6456649 9.2039882,5.1199958 9.6492575,4.9859701 9.8283997,4.9034565 9.8539838,4.702374 9.9359044,4.5631604 10.022917,4.4858347 9.3370565,4.4136511 8.6154447,4.1455295 8.6154447,2.949283 c 0,-0.3403044 0.122755,-0.6187225 0.3172727,-0.835261 -0.030681,-0.077281 -0.1381935,-0.3970588 0.030773,-0.8250022 0,0 0.2610204,-0.082469 0.8495466,0.3196695 a 2.9721166,2.9721166 0 0 1 0.772873,-0.103131 c 0.26102,0 0.527094,0.036138 0.772801,0.103131 0.588597,-0.4021748 0.849618,-0.3196695 0.849618,-0.3196695 0.168945,0.4279434 0.06145,0.7476849 0.03068,0.8250022 0.199642,0.2165385 0.317335,0.4949566 0.317335,0.835261 0,1.1962465 -0.721612,1.4591633 -1.412589,1.5365517 0.11263,0.097952 0.209822,0.2835426 0.209822,0.5774611 0,0.4176309 -0.0054,0.7528018 -0.0054,0.8558884 0,0.082469 0.05635,0.1805279 0.20983,0.1495797 C 12.786338,5.6562046 13.671769,4.49096 13.671769,3.1143012 13.677169,1.3921056 12.289869,0 10.585571,0 Z"
       fill="#ffffff"
       id="path3574"
       style="stroke-width:0.0632767" /><g
       aria-label="GITHUB"
       id="text6994"
       style="font-weight:bold;font-size:1.51694px;line-height:1.25;font-family:Ebrima;-inkscape-font-specification:'Ebrima Bold';stroke-width:0.0554874"><path
         d="m 8.7360438,7.8418902 q -0.1555456,0.089624 -0.3866419,0.089624 -0.2562799,0 -0.4044186,-0.1414724 -0.147398,-0.1422132 -0.147398,-0.3910861 0,-0.2503544 0.1614712,-0.4081221 0.1614711,-0.1577676 0.4296021,-0.1577676 0.1688781,0 0.2977587,0.046664 v 0.2244301 q -0.122955,-0.071106 -0.3007215,-0.071106 -0.1488793,0 -0.2429474,0.097031 -0.093327,0.09629 -0.093327,0.2577613 0,0.1636932 0.083698,0.2533171 0.084439,0.089624 0.2273929,0.089624 0.08592,0 0.1362875,-0.024443 V 7.4989492 H 8.2842209 V 7.3078503 h 0.4518229 z"
         style="fill:#ffffff"
         id="path248" /><path
         d="m 9.2708244,6.8508425 v 0.1851733 h -0.088883 v 0.6918076 h 0.088883 V 7.9129968 H 8.853814 V 7.7278234 h 0.088883 V 7.0360158 H 8.853814 V 6.8508425 Z"
         style="fill:#ffffff"
         id="path250" /><path
         d="M 10.169285,7.0456448 H 9.8663419 v 0.867352 H 9.6263572 V 7.0456448 H 9.324895 V 6.8508425 h 0.84439 z"
         style="fill:#ffffff"
         id="path252" /><path
         d="m 11.23144,7.9129968 h -0.239985 v -0.432565 h -0.439972 v 0.432565 H 10.312239 V 6.8508425 h 0.239244 v 0.4236766 h 0.439972 V 6.8508425 h 0.239985 z"
         style="fill:#ffffff"
         id="path254" /><path
         d="m 12.340258,7.4530262 q 0,0.4784879 -0.445898,0.4784879 -0.432565,0 -0.432565,-0.4673775 V 6.8508425 h 0.239985 v 0.6162569 q 0,0.2577613 0.201469,0.2577613 0.197765,0 0.197765,-0.248873 V 6.8508425 h 0.239244 z"
         style="fill:#ffffff"
         id="path256" /><path
         d="M 12.571354,7.9129968 V 6.8508425 h 0.386642 q 0.177766,0 0.273316,0.065181 0.09555,0.065181 0.09555,0.183692 0,0.08592 -0.05851,0.1503607 -0.05777,0.06444 -0.148138,0.089624 v 0.00296 q 0.113326,0.014073 0.180729,0.083698 0.06814,0.069625 0.06814,0.1696188 0,0.1459166 -0.104438,0.231837 -0.104438,0.08518 -0.285167,0.08518 z m 0.239244,-0.8858693 v 0.2518358 h 0.105178 q 0.07407,0 0.116289,-0.035553 0.04296,-0.036294 0.04296,-0.099253 0,-0.1170296 -0.174803,-0.1170296 z m 0,0.4296022 v 0.279982 h 0.129621 q 0.08296,0 0.129621,-0.038516 0.04741,-0.038516 0.04741,-0.1051785 0,-0.0637 -0.04666,-0.099994 -0.04592,-0.036294 -0.12888,-0.036294 z"
         style="fill:#ffffff"
         id="path258" /></g></g></svg>
