<?xml version="1.0" encoding="UTF-8" standalone="no"?>
<!-- Created with Inkscape (http://www.inkscape.org/) -->

<svg
   width="80"
   height="30"
   viewBox="0 0 21.166666 7.9375"
   version="1.1"
   id="svg3562"
   inkscape:version="1.2.2 (732a01da63, 2022-12-09)"
   sodipodi:docname="javascript.svg"
   xml:space="preserve"
   xmlns:inkscape="http://www.inkscape.org/namespaces/inkscape"
   xmlns:sodipodi="http://sodipodi.sourceforge.net/DTD/sodipodi-0.dtd"
   xmlns="http://www.w3.org/2000/svg"
   xmlns:svg="http://www.w3.org/2000/svg"><sodipodi:namedview
     id="namedview3564"
     pagecolor="#505050"
     bordercolor="#eeeeee"
     borderopacity="1"
     inkscape:showpageshadow="0"
     inkscape:pageopacity="0"
     inkscape:pagecheckerboard="0"
     inkscape:deskcolor="#505050"
     inkscape:document-units="px"
     showgrid="false"
     inkscape:zoom="6.7277216"
     inkscape:cx="15.607067"
     inkscape:cy="17.985286"
     inkscape:window-width="3840"
     inkscape:window-height="2054"
     inkscape:window-x="-11"
     inkscape:window-y="-11"
     inkscape:window-maximized="1"
     inkscape:current-layer="layer1"
     showguides="true"><sodipodi:guide
       position="8.0448126,1.8688113"
       orientation="0,-1"
       id="guide7559"
       inkscape:locked="false" /></sodipodi:namedview><defs
     id="defs3559"><style
       type="text/css"
       id="style4969">
   <![CDATA[
    .fil15 {fill:#290104}
    .fil14 {fill:#290104}
    .fil17 {fill:#381401}
    .fil13 {fill:#5D1917}
    .fil12 {fill:#5D1917}
    .fil9 {fill:#9D401F}
    .fil10 {fill:#9D401F}
    .fil16 {fill:#A64917}
    .fil6 {fill:#E0711C}
    .fil3 {fill:#F0B113}
    .fil8 {fill:#F4911B}
    .fil7 {fill:#F5DB5A}
    .fil11 {fill:#F76E2A}
    .fil0 {fill:#FFAF1B}
    .fil2 {fill:#FFC71B}
    .fil1 {fill:#FFC71B}
    .fil4 {fill:#FFD744}
    .fil5 {fill:#FFE474}
   ]]>
  </style><style
       type="text/css"
       id="style4969-1">
   <![CDATA[
    .fil15 {fill:#290104}
    .fil14 {fill:#290104}
    .fil17 {fill:#381401}
    .fil13 {fill:#5D1917}
    .fil12 {fill:#5D1917}
    .fil9 {fill:#9D401F}
    .fil10 {fill:#9D401F}
    .fil16 {fill:#A64917}
    .fil6 {fill:#E0711C}
    .fil3 {fill:#F0B113}
    .fil8 {fill:#F4911B}
    .fil7 {fill:#F5DB5A}
    .fil11 {fill:#F76E2A}
    .fil0 {fill:#FFAF1B}
    .fil2 {fill:#FFC71B}
    .fil1 {fill:#FFC71B}
    .fil4 {fill:#FFD744}
    .fil5 {fill:#FFE474}
   ]]>
  </style><style
       type="text/css"
       id="style4969-6">
   <![CDATA[
    .fil15 {fill:#290104}
    .fil14 {fill:#290104}
    .fil17 {fill:#381401}
    .fil13 {fill:#5D1917}
    .fil12 {fill:#5D1917}
    .fil9 {fill:#9D401F}
    .fil10 {fill:#9D401F}
    .fil16 {fill:#A64917}
    .fil6 {fill:#E0711C}
    .fil3 {fill:#F0B113}
    .fil8 {fill:#F4911B}
    .fil7 {fill:#F5DB5A}
    .fil11 {fill:#F76E2A}
    .fil0 {fill:#FFAF1B}
    .fil2 {fill:#FFC71B}
    .fil1 {fill:#FFC71B}
    .fil4 {fill:#FFD744}
    .fil5 {fill:#FFE474}
   ]]>
  </style><style
       type="text/css"
       id="style4969-0">
   <![CDATA[
    .fil15 {fill:#290104}
    .fil14 {fill:#290104}
    .fil17 {fill:#381401}
    .fil13 {fill:#5D1917}
    .fil12 {fill:#5D1917}
    .fil9 {fill:#9D401F}
    .fil10 {fill:#9D401F}
    .fil16 {fill:#A64917}
    .fil6 {fill:#E0711C}
    .fil3 {fill:#F0B113}
    .fil8 {fill:#F4911B}
    .fil7 {fill:#F5DB5A}
    .fil11 {fill:#F76E2A}
    .fil0 {fill:#FFAF1B}
    .fil2 {fill:#FFC71B}
    .fil1 {fill:#FFC71B}
    .fil4 {fill:#FFD744}
    .fil5 {fill:#FFE474}
   ]]>
  </style><linearGradient
       id="linearGradient14321"
       inkscape:swatch="solid"><stop
         style="stop-color:#ffffff;stop-opacity:1;"
         offset="0"
         id="stop14319" /></linearGradient><style
       type="text/css"
       id="style4969-5">
   <![CDATA[
    .fil15 {fill:#290104}
    .fil14 {fill:#290104}
    .fil17 {fill:#381401}
    .fil13 {fill:#5D1917}
    .fil12 {fill:#5D1917}
    .fil9 {fill:#9D401F}
    .fil10 {fill:#9D401F}
    .fil16 {fill:#A64917}
    .fil6 {fill:#E0711C}
    .fil3 {fill:#F0B113}
    .fil8 {fill:#F4911B}
    .fil7 {fill:#F5DB5A}
    .fil11 {fill:#F76E2A}
    .fil0 {fill:#FFAF1B}
    .fil2 {fill:#FFC71B}
    .fil1 {fill:#FFC71B}
    .fil4 {fill:#FFD744}
    .fil5 {fill:#FFE474}
   ]]>
  </style><style
       type="text/css"
       id="style4969-1-7">
   <![CDATA[
    .fil15 {fill:#290104}
    .fil14 {fill:#290104}
    .fil17 {fill:#381401}
    .fil13 {fill:#5D1917}
    .fil12 {fill:#5D1917}
    .fil9 {fill:#9D401F}
    .fil10 {fill:#9D401F}
    .fil16 {fill:#A64917}
    .fil6 {fill:#E0711C}
    .fil3 {fill:#F0B113}
    .fil8 {fill:#F4911B}
    .fil7 {fill:#F5DB5A}
    .fil11 {fill:#F76E2A}
    .fil0 {fill:#FFAF1B}
    .fil2 {fill:#FFC71B}
    .fil1 {fill:#FFC71B}
    .fil4 {fill:#FFD744}
    .fil5 {fill:#FFE474}
   ]]>
  </style><style
       type="text/css"
       id="style4969-6-1">
   <![CDATA[
    .fil15 {fill:#290104}
    .fil14 {fill:#290104}
    .fil17 {fill:#381401}
    .fil13 {fill:#5D1917}
    .fil12 {fill:#5D1917}
    .fil9 {fill:#9D401F}
    .fil10 {fill:#9D401F}
    .fil16 {fill:#A64917}
    .fil6 {fill:#E0711C}
    .fil3 {fill:#F0B113}
    .fil8 {fill:#F4911B}
    .fil7 {fill:#F5DB5A}
    .fil11 {fill:#F76E2A}
    .fil0 {fill:#FFAF1B}
    .fil2 {fill:#FFC71B}
    .fil1 {fill:#FFC71B}
    .fil4 {fill:#FFD744}
    .fil5 {fill:#FFE474}
   ]]>
  </style><style
       type="text/css"
       id="style4969-0-2">
   <![CDATA[
    .fil15 {fill:#290104}
    .fil14 {fill:#290104}
    .fil17 {fill:#381401}
    .fil13 {fill:#5D1917}
    .fil12 {fill:#5D1917}
    .fil9 {fill:#9D401F}
    .fil10 {fill:#9D401F}
    .fil16 {fill:#A64917}
    .fil6 {fill:#E0711C}
    .fil3 {fill:#F0B113}
    .fil8 {fill:#F4911B}
    .fil7 {fill:#F5DB5A}
    .fil11 {fill:#F76E2A}
    .fil0 {fill:#FFAF1B}
    .fil2 {fill:#FFC71B}
    .fil1 {fill:#FFC71B}
    .fil4 {fill:#FFD744}
    .fil5 {fill:#FFE474}
   ]]>
  </style><style
       id="style3506">.cls-1{fill:#10aa50;}.cls-2{fill:#b8c4c2;}.cls-3{fill:#12924f;}.cls-4{fill:#21313c;}</style></defs><g
     inkscape:label="Layer 1"
     inkscape:groupmode="layer"
     id="layer1"><g
       id="g16295"
       transform="matrix(0.33801998,0,0,0.33801998,14.821496,-58.224576)"><g
         transform="matrix(0.1759709,0,0,0.1759709,-97.64213,163.38081)"
         id="g3768"><path
           style="fill:#d6ba32"
           inkscape:connector-curvature="0"
           d="m 439.03,51.2 c 9.97,-0.42 19.96,0.12 29.94,-0.05 11.01,-0.35 22.01,-0.06 33.03,-0.02 8.74,0.02 17.48,-0.04 26.22,0.03 -2.75,30.33 -5.52,60.66 -8.07,91.01 -11.71,3.33 -23.43,6.61 -35.14,9.92 -1.5,0.62 -3.04,0.04 -4.48,-0.35 -11.13,-3.2 -22.26,-6.37 -33.41,-9.45 -2.9,-30.34 -5.63,-60.71 -8.09,-91.09 m 44.78,7.91 c -0.41,14.96 -0.06,29.92 -0.18,44.88 0.11,13.68 -0.2,27.37 0.16,41.05 9.84,-2.32 19.55,-5.17 29.26,-7.98 2.44,-25.97 4.82,-51.94 6.86,-77.94 -12.03,-0.12 -24.07,0.02 -36.1,-0.01"
           id="path3770"
           sodipodi:nodetypes="ccccccccccccccc" /></g><g
         transform="matrix(0.1759709,0,0,0.1759709,-97.64213,163.38081)"
         id="g3796"><path
           style="fill:#ffda3e"
           inkscape:connector-curvature="0"
           d="m 483.81,59.11 c 12.03,0.03 24.07,-0.11 36.1,0.01 -2.04,26 -4.42,51.97 -6.86,77.94 -9.71,2.81 -19.42,5.66 -29.26,7.98 -0.36,-13.68 -0.05,-27.37 -0.16,-41.05 0.12,-14.96 -0.23,-29.92 0.18,-44.88 m 3.37,11.63 c 0.04,12.88 0.05,25.77 0,38.65 5.88,-0.95 11.74,-2.04 17.6,-3.11 -0.09,3 -0.21,6 -0.34,9 -5.71,1.52 -11.41,3.09 -17.15,4.5 -0.09,3.46 -0.1,6.92 -0.07,10.39 7.23,-1.62 14.35,-3.66 21.53,-5.47 0.9,-0.42 2.63,-0.37 2.55,-1.78 0.87,-9.26 1.41,-18.56 2.25,-27.84 -5.95,0.49 -11.84,1.49 -17.79,1.9 -0.05,-5.26 -0.06,-10.52 0.02,-15.78 6.26,0 12.51,0 18.77,0.01 0.4,-3.51 0.75,-7.03 1.02,-10.55 -9.46,0.04 -18.93,-0.09 -28.39,0.08 z"
           id="path3798" /></g><path
         id="path3806"
         d="m -14.697916,184.07573 1.94e-4,-8.25091 1.497865,-1.1e-4 1.1e-4,10.46522 -4.561646,-1.22965 3.6e-5,-1.81586 c 1.067988,0.29005 2.153785,0.60415 3.063441,0.83131 z"
         inkscape:connector-curvature="0"
         style="fill:#ebebeb;stroke-width:0.140777"
         sodipodi:nodetypes="cccccccc" /></g><g
       aria-label="JAVASCRIPT"
       id="text6994"
       style="font-weight:bold;font-size:1.51694px;line-height:1.25;font-family:Ebrima;-inkscape-font-specification:'Ebrima Bold';stroke-width:0.0554874"><path
         d="m 6.6917301,7.4915422 q 0,0.2133197 -0.099253,0.3266458 -0.098512,0.1133261 -0.2859076,0.1133261 -0.083698,0 -0.1548049,-0.028887 V 7.678197 q 0.061478,0.046664 0.137769,0.046664 0.1636932,0 0.1636932,-0.2429475 V 6.8508425 h 0.2385033 z"
         style="fill:#ffffff"
         id="path307" /><path
         d="M 7.8583221,7.9129968 H 7.597598 L 7.5220473,7.6767156 H 7.1442937 l -0.07481,0.2362812 H 6.810241 L 7.1968829,6.8508425 H 7.4805685 Z M 7.467236,7.4930236 7.3531692,7.1360094 Q 7.3405774,7.096012 7.3353926,7.04046 h -0.00593 q -0.0037,0.046664 -0.018517,0.092587 L 7.1954015,7.4930236 Z"
         style="fill:#ffffff"
         id="path309" /><path
         d="M 8.875294,6.8508425 8.5093915,7.9129968 H 8.2382977 L 7.8768394,6.8508425 h 0.2577613 l 0.2214673,0.739212 q 0.017777,0.059996 0.02148,0.1059191 h 0.00444 q 0.00518,-0.049626 0.022961,-0.1088819 l 0.219986,-0.7362492 z"
         style="fill:#ffffff"
         id="path311" /><path
         d="M 9.9367077,7.9129968 H 9.6759836 L 9.6004329,7.6767156 H 9.2226793 l -0.07481,0.2362812 H 8.8886266 L 9.2752685,6.8508425 H 9.558954 Z M 9.5456216,7.4930236 9.4315548,7.1360094 Q 9.418963,7.096012 9.4137782,7.04046 h -0.00593 q -0.0037,0.046664 -0.018517,0.092587 L 9.2737871,7.4930236 Z"
         style="fill:#ffffff"
         id="path313" /><path
         d="M 10.020406,7.8722586 V 7.6352368 q 0.06444,0.054071 0.139991,0.081476 0.07555,0.026665 0.152583,0.026665 0.04518,0 0.07851,-0.00815 0.03407,-0.00815 0.05629,-0.022221 0.02296,-0.014814 0.03407,-0.034072 0.01111,-0.019999 0.01111,-0.04296 0,-0.031109 -0.01778,-0.055552 -0.01778,-0.024443 -0.04889,-0.045182 -0.03037,-0.02074 -0.07259,-0.039998 -0.04222,-0.019258 -0.09111,-0.039257 -0.124437,-0.051849 -0.185914,-0.1266586 -0.06074,-0.07481 -0.06074,-0.1807292 0,-0.082958 0.03333,-0.1422131 0.03333,-0.059996 0.09037,-0.098512 0.05777,-0.038516 0.133324,-0.056293 0.07555,-0.018517 0.15999,-0.018517 0.08296,0 0.146657,0.01037 0.06444,0.00963 0.118511,0.030368 v 0.2214673 q -0.02667,-0.018517 -0.05851,-0.032591 -0.03111,-0.014073 -0.06444,-0.022962 -0.03333,-0.00963 -0.06666,-0.014073 -0.03259,-0.00444 -0.06222,-0.00444 -0.04074,0 -0.07407,0.00815 -0.03333,0.00741 -0.05629,0.02148 -0.02296,0.014073 -0.03555,0.034072 -0.01259,0.019258 -0.01259,0.043701 0,0.026665 0.01407,0.048145 0.01407,0.020739 0.04,0.039997 0.02592,0.018517 0.06296,0.037035 0.03704,0.017777 0.0837,0.037035 0.0637,0.026665 0.114067,0.057033 0.05111,0.029628 0.0874,0.067403 0.03629,0.037775 0.05555,0.086661 0.01926,0.048145 0.01926,0.1125853 0,0.088883 -0.03407,0.1496201 -0.03333,0.059996 -0.09111,0.097772 -0.05777,0.037035 -0.134806,0.05333 -0.07629,0.016295 -0.161471,0.016295 -0.0874,0 -0.166656,-0.014814 -0.07851,-0.014814 -0.136288,-0.044442 z"
         style="fill:#ffffff"
         id="path315" /><path
         d="m 11.68104,7.8752214 q -0.116289,0.056293 -0.303684,0.056293 -0.244429,0 -0.38442,-0.1436945 -0.139991,-0.1436945 -0.139991,-0.3829385 0,-0.2547985 0.157027,-0.4133069 0.157768,-0.1585083 0.408863,-0.1585083 0.155545,0 0.262205,0.039257 v 0.2303556 q -0.10666,-0.0637 -0.242947,-0.0637 -0.14962,0 -0.241466,0.094068 -0.09185,0.094068 -0.09185,0.2547985 0,0.1540642 0.08666,0.2459102 0.08666,0.091105 0.233318,0.091105 0.139991,0 0.25628,-0.068144 z"
         style="fill:#ffffff"
         id="path317" /><path
         d="M 12.757268,7.9129968 H 12.482471 L 12.317296,7.6396809 q -0.01852,-0.031109 -0.03555,-0.055552 -0.01704,-0.024443 -0.03481,-0.041479 -0.01704,-0.017777 -0.03629,-0.026665 -0.01852,-0.00963 -0.04074,-0.00963 h -0.06444 V 7.9129968 H 11.866214 V 6.8508425 h 0.379235 q 0.386642,0 0.386642,0.2888704 0,0.055552 -0.01704,0.1029564 -0.01704,0.046664 -0.04814,0.084439 -0.03111,0.037775 -0.07555,0.065181 -0.0437,0.027406 -0.09777,0.04296 v 0.00296 q 0.0237,0.00741 0.04592,0.024443 0.02222,0.016295 0.04296,0.038516 0.02074,0.022221 0.03926,0.048145 0.01926,0.025184 0.03481,0.049626 z m -0.65181,-0.8829065 v 0.2955366 h 0.103697 q 0.07703,0 0.123696,-0.044442 0.0474,-0.045182 0.0474,-0.1118447 0,-0.1392503 -0.166656,-0.1392503 z"
         style="fill:#ffffff"
         id="path319" /><path
         d="m 13.184648,6.8508425 v 0.1851733 h -0.08888 v 0.6918076 h 0.08888 v 0.1851734 h -0.41701 V 7.7278234 h 0.08888 V 7.0360158 h -0.08888 V 6.8508425 Z"
         style="fill:#ffffff"
         id="path321" /><path
         d="M 13.576475,7.5470942 V 7.9129968 H 13.337231 V 6.8508425 h 0.374791 q 0.401456,0 0.401456,0.3384969 0,0.1599897 -0.115548,0.2592426 -0.114808,0.098512 -0.307388,0.098512 z m 0,-0.5125598 v 0.33109 h 0.09407 q 0.191099,0 0.191099,-0.1673967 0,-0.1636933 -0.191099,-0.1636933 z"
         style="fill:#ffffff"
         id="path323" /><path
         d="m 15.014901,7.0456448 h -0.302944 v 0.867352 H 14.471973 V 7.0456448 H 14.170511 V 6.8508425 h 0.84439 z"
         style="fill:#ffffff"
         id="path325" /></g></g></svg>
