<?xml version="1.0" encoding="UTF-8" standalone="no"?>
<!-- Created with Inkscape (http://www.inkscape.org/) -->

<svg
   width="80"
   height="30"
   viewBox="0 0 21.166666 7.9375"
   version="1.1"
   id="svg3562"
   inkscape:version="1.2 (dc2aedaf03, 2022-05-15)"
   sodipodi:docname="express.svg"
   xml:space="preserve"
   xmlns:inkscape="http://www.inkscape.org/namespaces/inkscape"
   xmlns:sodipodi="http://sodipodi.sourceforge.net/DTD/sodipodi-0.dtd"
   xmlns="http://www.w3.org/2000/svg"
   xmlns:svg="http://www.w3.org/2000/svg"><sodipodi:namedview
     id="namedview3564"
     pagecolor="#505050"
     bordercolor="#eeeeee"
     borderopacity="1"
     inkscape:showpageshadow="0"
     inkscape:pageopacity="0"
     inkscape:pagecheckerboard="0"
     inkscape:deskcolor="#505050"
     inkscape:document-units="px"
     showgrid="false"
     inkscape:zoom="6.7277216"
     inkscape:cx="37.977196"
     inkscape:cy="17.985286"
     inkscape:window-width="1920"
     inkscape:window-height="1017"
     inkscape:window-x="-8"
     inkscape:window-y="-8"
     inkscape:window-maximized="1"
     inkscape:current-layer="layer1"
     showguides="true"><sodipodi:guide
       position="8.0448126,1.8688113"
       orientation="0,-1"
       id="guide7559"
       inkscape:locked="false" /></sodipodi:namedview><defs
     id="defs3559"><style
       type="text/css"
       id="style4969">
   <![CDATA[
    .fil15 {fill:#290104}
    .fil14 {fill:#290104}
    .fil17 {fill:#381401}
    .fil13 {fill:#5D1917}
    .fil12 {fill:#5D1917}
    .fil9 {fill:#9D401F}
    .fil10 {fill:#9D401F}
    .fil16 {fill:#A64917}
    .fil6 {fill:#E0711C}
    .fil3 {fill:#F0B113}
    .fil8 {fill:#F4911B}
    .fil7 {fill:#F5DB5A}
    .fil11 {fill:#F76E2A}
    .fil0 {fill:#FFAF1B}
    .fil2 {fill:#FFC71B}
    .fil1 {fill:#FFC71B}
    .fil4 {fill:#FFD744}
    .fil5 {fill:#FFE474}
   ]]>
  </style><style
       type="text/css"
       id="style4969-1">
   <![CDATA[
    .fil15 {fill:#290104}
    .fil14 {fill:#290104}
    .fil17 {fill:#381401}
    .fil13 {fill:#5D1917}
    .fil12 {fill:#5D1917}
    .fil9 {fill:#9D401F}
    .fil10 {fill:#9D401F}
    .fil16 {fill:#A64917}
    .fil6 {fill:#E0711C}
    .fil3 {fill:#F0B113}
    .fil8 {fill:#F4911B}
    .fil7 {fill:#F5DB5A}
    .fil11 {fill:#F76E2A}
    .fil0 {fill:#FFAF1B}
    .fil2 {fill:#FFC71B}
    .fil1 {fill:#FFC71B}
    .fil4 {fill:#FFD744}
    .fil5 {fill:#FFE474}
   ]]>
  </style><style
       type="text/css"
       id="style4969-6">
   <![CDATA[
    .fil15 {fill:#290104}
    .fil14 {fill:#290104}
    .fil17 {fill:#381401}
    .fil13 {fill:#5D1917}
    .fil12 {fill:#5D1917}
    .fil9 {fill:#9D401F}
    .fil10 {fill:#9D401F}
    .fil16 {fill:#A64917}
    .fil6 {fill:#E0711C}
    .fil3 {fill:#F0B113}
    .fil8 {fill:#F4911B}
    .fil7 {fill:#F5DB5A}
    .fil11 {fill:#F76E2A}
    .fil0 {fill:#FFAF1B}
    .fil2 {fill:#FFC71B}
    .fil1 {fill:#FFC71B}
    .fil4 {fill:#FFD744}
    .fil5 {fill:#FFE474}
   ]]>
  </style><style
       type="text/css"
       id="style4969-0">
   <![CDATA[
    .fil15 {fill:#290104}
    .fil14 {fill:#290104}
    .fil17 {fill:#381401}
    .fil13 {fill:#5D1917}
    .fil12 {fill:#5D1917}
    .fil9 {fill:#9D401F}
    .fil10 {fill:#9D401F}
    .fil16 {fill:#A64917}
    .fil6 {fill:#E0711C}
    .fil3 {fill:#F0B113}
    .fil8 {fill:#F4911B}
    .fil7 {fill:#F5DB5A}
    .fil11 {fill:#F76E2A}
    .fil0 {fill:#FFAF1B}
    .fil2 {fill:#FFC71B}
    .fil1 {fill:#FFC71B}
    .fil4 {fill:#FFD744}
    .fil5 {fill:#FFE474}
   ]]>
  </style><linearGradient
       id="linearGradient14321"
       inkscape:swatch="solid"><stop
         style="stop-color:#ffffff;stop-opacity:1;"
         offset="0"
         id="stop14319" /></linearGradient><style
       type="text/css"
       id="style4969-5">
   <![CDATA[
    .fil15 {fill:#290104}
    .fil14 {fill:#290104}
    .fil17 {fill:#381401}
    .fil13 {fill:#5D1917}
    .fil12 {fill:#5D1917}
    .fil9 {fill:#9D401F}
    .fil10 {fill:#9D401F}
    .fil16 {fill:#A64917}
    .fil6 {fill:#E0711C}
    .fil3 {fill:#F0B113}
    .fil8 {fill:#F4911B}
    .fil7 {fill:#F5DB5A}
    .fil11 {fill:#F76E2A}
    .fil0 {fill:#FFAF1B}
    .fil2 {fill:#FFC71B}
    .fil1 {fill:#FFC71B}
    .fil4 {fill:#FFD744}
    .fil5 {fill:#FFE474}
   ]]>
  </style><style
       type="text/css"
       id="style4969-1-7">
   <![CDATA[
    .fil15 {fill:#290104}
    .fil14 {fill:#290104}
    .fil17 {fill:#381401}
    .fil13 {fill:#5D1917}
    .fil12 {fill:#5D1917}
    .fil9 {fill:#9D401F}
    .fil10 {fill:#9D401F}
    .fil16 {fill:#A64917}
    .fil6 {fill:#E0711C}
    .fil3 {fill:#F0B113}
    .fil8 {fill:#F4911B}
    .fil7 {fill:#F5DB5A}
    .fil11 {fill:#F76E2A}
    .fil0 {fill:#FFAF1B}
    .fil2 {fill:#FFC71B}
    .fil1 {fill:#FFC71B}
    .fil4 {fill:#FFD744}
    .fil5 {fill:#FFE474}
   ]]>
  </style><style
       type="text/css"
       id="style4969-6-1">
   <![CDATA[
    .fil15 {fill:#290104}
    .fil14 {fill:#290104}
    .fil17 {fill:#381401}
    .fil13 {fill:#5D1917}
    .fil12 {fill:#5D1917}
    .fil9 {fill:#9D401F}
    .fil10 {fill:#9D401F}
    .fil16 {fill:#A64917}
    .fil6 {fill:#E0711C}
    .fil3 {fill:#F0B113}
    .fil8 {fill:#F4911B}
    .fil7 {fill:#F5DB5A}
    .fil11 {fill:#F76E2A}
    .fil0 {fill:#FFAF1B}
    .fil2 {fill:#FFC71B}
    .fil1 {fill:#FFC71B}
    .fil4 {fill:#FFD744}
    .fil5 {fill:#FFE474}
   ]]>
  </style><style
       type="text/css"
       id="style4969-0-2">
   <![CDATA[
    .fil15 {fill:#290104}
    .fil14 {fill:#290104}
    .fil17 {fill:#381401}
    .fil13 {fill:#5D1917}
    .fil12 {fill:#5D1917}
    .fil9 {fill:#9D401F}
    .fil10 {fill:#9D401F}
    .fil16 {fill:#A64917}
    .fil6 {fill:#E0711C}
    .fil3 {fill:#F0B113}
    .fil8 {fill:#F4911B}
    .fil7 {fill:#F5DB5A}
    .fil11 {fill:#F76E2A}
    .fil0 {fill:#FFAF1B}
    .fil2 {fill:#FFC71B}
    .fil1 {fill:#FFC71B}
    .fil4 {fill:#FFD744}
    .fil5 {fill:#FFE474}
   ]]>
  </style><style
       id="style3506">.cls-1{fill:#10aa50;}.cls-2{fill:#b8c4c2;}.cls-3{fill:#12924f;}.cls-4{fill:#21313c;}</style></defs><g
     inkscape:label="Layer 1"
     inkscape:groupmode="layer"
     id="layer1"><g
       id="g16295"
       transform="matrix(0.33801998,0,0,0.33801998,14.821496,-58.224576)"><g
         transform="matrix(0.1759709,0,0,0.1759709,-97.64213,163.38081)"
         id="g3768"><path
           style="fill:#d6ba32"
           inkscape:connector-curvature="0"
           d="m 439.03,51.2 c 9.97,-0.42 19.96,0.12 29.94,-0.05 11.01,-0.35 22.01,-0.06 33.03,-0.02 8.74,0.02 17.48,-0.04 26.22,0.03 -2.75,30.33 -5.52,60.66 -8.07,91.01 -11.71,3.33 -23.43,6.61 -35.14,9.92 -1.5,0.62 -3.04,0.04 -4.48,-0.35 -11.13,-3.2 -22.26,-6.37 -33.41,-9.45 -2.9,-30.34 -5.63,-60.71 -8.09,-91.09 m 44.78,7.91 c -0.41,14.96 -0.06,29.92 -0.18,44.88 0.11,13.68 -0.2,27.37 0.16,41.05 9.84,-2.32 19.55,-5.17 29.26,-7.98 2.44,-25.97 4.82,-51.94 6.86,-77.94 -12.03,-0.12 -24.07,0.02 -36.1,-0.01"
           id="path3770"
           sodipodi:nodetypes="ccccccccccccccc" /></g><g
         transform="matrix(0.1759709,0,0,0.1759709,-97.64213,163.38081)"
         id="g3796"><path
           style="fill:#ffda3e"
           inkscape:connector-curvature="0"
           d="m 483.81,59.11 c 12.03,0.03 24.07,-0.11 36.1,0.01 -2.04,26 -4.42,51.97 -6.86,77.94 -9.71,2.81 -19.42,5.66 -29.26,7.98 -0.36,-13.68 -0.05,-27.37 -0.16,-41.05 0.12,-14.96 -0.23,-29.92 0.18,-44.88 m 3.37,11.63 c 0.04,12.88 0.05,25.77 0,38.65 5.88,-0.95 11.74,-2.04 17.6,-3.11 -0.09,3 -0.21,6 -0.34,9 -5.71,1.52 -11.41,3.09 -17.15,4.5 -0.09,3.46 -0.1,6.92 -0.07,10.39 7.23,-1.62 14.35,-3.66 21.53,-5.47 0.9,-0.42 2.63,-0.37 2.55,-1.78 0.87,-9.26 1.41,-18.56 2.25,-27.84 -5.95,0.49 -11.84,1.49 -17.79,1.9 -0.05,-5.26 -0.06,-10.52 0.02,-15.78 6.26,0 12.51,0 18.77,0.01 0.4,-3.51 0.75,-7.03 1.02,-10.55 -9.46,0.04 -18.93,-0.09 -28.39,0.08 z"
           id="path3798" /></g><path
         id="path3806"
         d="m -14.697916,184.07573 1.94e-4,-8.25091 1.497865,-1.1e-4 1.1e-4,10.46522 -4.561646,-1.22965 3.6e-5,-1.81586 c 1.067988,0.29005 2.153785,0.60415 3.063441,0.83131 z"
         inkscape:connector-curvature="0"
         style="fill:#ebebeb;stroke-width:0.140777"
         sodipodi:nodetypes="cccccccc" /></g><text
       xml:space="preserve"
       style="font-style:normal;font-variant:normal;font-weight:bold;font-stretch:normal;font-size:1.51694px;line-height:1.25;font-family:Ebrima;-inkscape-font-specification:'Ebrima Bold';fill:#000000;fill-opacity:1;stroke:none;stroke-width:0.0554874"
       x="6.1273217"
       y="7.9129968"
       id="text6994"><tspan
         sodipodi:role="line"
         id="tspan6992"
         style="font-style:normal;font-variant:normal;font-weight:bold;font-stretch:normal;font-size:1.51694px;font-family:Ebrima;-inkscape-font-specification:'Ebrima Bold';fill:#ffffff;stroke-width:0.0554874"
         x="6.1273217"
         y="7.9129968">JAVASCRIPT</tspan></text></g></svg>
