<?xml version="1.0" encoding="UTF-8" standalone="no"?>
<!-- Created with Inkscape (http://www.inkscape.org/) -->

<svg
   width="400"
   height="200"
   viewBox="0 0 105.83333 52.916668"
   version="1.1"
   id="svg5"
   xml:space="preserve"
   inkscape:version="1.2.2 (732a01da63, 2022-12-09)"
   sodipodi:docname="msthebear_logo_new.svg"
   xmlns:inkscape="http://www.inkscape.org/namespaces/inkscape"
   xmlns:sodipodi="http://sodipodi.sourceforge.net/DTD/sodipodi-0.dtd"
   xmlns="http://www.w3.org/2000/svg"
   xmlns:svg="http://www.w3.org/2000/svg"><sodipodi:namedview
     id="namedview7"
     pagecolor="#505050"
     bordercolor="#eeeeee"
     borderopacity="1"
     inkscape:showpageshadow="0"
     inkscape:pageopacity="0"
     inkscape:pagecheckerboard="0"
     inkscape:deskcolor="#505050"
     inkscape:document-units="px"
     showgrid="false"
     inkscape:zoom="1.6819304"
     inkscape:cx="124.26198"
     inkscape:cy="140.90952"
     inkscape:window-width="1920"
     inkscape:window-height="1009"
     inkscape:window-x="-8"
     inkscape:window-y="-8"
     inkscape:window-maximized="1"
     inkscape:current-layer="layer1" /><defs
     id="defs2"><style
       type="text/css"
       id="style4969">
   <![CDATA[
    .fil15 {fill:#290104}
    .fil14 {fill:#290104}
    .fil17 {fill:#381401}
    .fil13 {fill:#5D1917}
    .fil12 {fill:#5D1917}
    .fil9 {fill:#9D401F}
    .fil10 {fill:#9D401F}
    .fil16 {fill:#A64917}
    .fil6 {fill:#E0711C}
    .fil3 {fill:#F0B113}
    .fil8 {fill:#F4911B}
    .fil7 {fill:#F5DB5A}
    .fil11 {fill:#F76E2A}
    .fil0 {fill:#FFAF1B}
    .fil2 {fill:#FFC71B}
    .fil1 {fill:#FFC71B}
    .fil4 {fill:#FFD744}
    .fil5 {fill:#FFE474}
   ]]>
  </style><style
       type="text/css"
       id="style4969-1">
   <![CDATA[
    .fil15 {fill:#290104}
    .fil14 {fill:#290104}
    .fil17 {fill:#381401}
    .fil13 {fill:#5D1917}
    .fil12 {fill:#5D1917}
    .fil9 {fill:#9D401F}
    .fil10 {fill:#9D401F}
    .fil16 {fill:#A64917}
    .fil6 {fill:#E0711C}
    .fil3 {fill:#F0B113}
    .fil8 {fill:#F4911B}
    .fil7 {fill:#F5DB5A}
    .fil11 {fill:#F76E2A}
    .fil0 {fill:#FFAF1B}
    .fil2 {fill:#FFC71B}
    .fil1 {fill:#FFC71B}
    .fil4 {fill:#FFD744}
    .fil5 {fill:#FFE474}
   ]]>
  </style><style
       type="text/css"
       id="style4969-6">
   <![CDATA[
    .fil15 {fill:#290104}
    .fil14 {fill:#290104}
    .fil17 {fill:#381401}
    .fil13 {fill:#5D1917}
    .fil12 {fill:#5D1917}
    .fil9 {fill:#9D401F}
    .fil10 {fill:#9D401F}
    .fil16 {fill:#A64917}
    .fil6 {fill:#E0711C}
    .fil3 {fill:#F0B113}
    .fil8 {fill:#F4911B}
    .fil7 {fill:#F5DB5A}
    .fil11 {fill:#F76E2A}
    .fil0 {fill:#FFAF1B}
    .fil2 {fill:#FFC71B}
    .fil1 {fill:#FFC71B}
    .fil4 {fill:#FFD744}
    .fil5 {fill:#FFE474}
   ]]>
  </style><style
       type="text/css"
       id="style4969-0">
   <![CDATA[
    .fil15 {fill:#290104}
    .fil14 {fill:#290104}
    .fil17 {fill:#381401}
    .fil13 {fill:#5D1917}
    .fil12 {fill:#5D1917}
    .fil9 {fill:#9D401F}
    .fil10 {fill:#9D401F}
    .fil16 {fill:#A64917}
    .fil6 {fill:#E0711C}
    .fil3 {fill:#F0B113}
    .fil8 {fill:#F4911B}
    .fil7 {fill:#F5DB5A}
    .fil11 {fill:#F76E2A}
    .fil0 {fill:#FFAF1B}
    .fil2 {fill:#FFC71B}
    .fil1 {fill:#FFC71B}
    .fil4 {fill:#FFD744}
    .fil5 {fill:#FFE474}
   ]]>
  </style></defs><g
     inkscape:label="Layer 1"
     inkscape:groupmode="layer"
     id="layer1"><g
       id="Layer_x0020_1"
       inkscape:label="Layer 1"
       inkscape:groupmode="layer"
       transform="matrix(0.26458333,0,0,0.26458333,-1432.1105,-422.78987)"
       style="clip-rule:evenodd;fill-rule:evenodd;image-rendering:optimizeQuality;shape-rendering:geometricPrecision;text-rendering:geometricPrecision">
  <metadata
   id="CorelCorpID_0Corel-Layer" />
  
 </g><g
       id="g570"
       transform="translate(0,-1.4944416)"><g
         id="g10196"
         transform="matrix(0.83499379,0,0,0.83499379,8.7315786,13.68371)"><g
           id="g461"
           transform="matrix(1.2857188,0,0,1.2857188,-32.324523,-103.81623)"
           style="fill:#eb901d;fill-opacity:1"><path
             d="M 32.324018,80.933672 V 89.88592 H 30.289165 V 83.842185 L 29.47633,89.88592 h -1.443198 l -0.857071,-5.905498 v 5.905498 h -2.034853 v -8.952248 h 3.013573 q 0.132708,0.807306 0.282004,1.902146 l 0.320711,2.27815 0.530831,-4.180296 z"
             style="font-size:11.3244px;line-height:1;font-family:Impact;-inkscape-font-specification:Impact;text-align:center;text-anchor:middle;clip-rule:evenodd;fill:#eb901d;fill-opacity:1;fill-rule:evenodd;stroke-width:0.365264;image-rendering:optimizeQuality;shape-rendering:geometricPrecision;text-rendering:geometricPrecision"
             id="path405" /><path
             d="M 35.586418,80.933672 V 89.88592 H 33.258502 V 80.933672 Z"
             style="font-size:11.3244px;line-height:1;font-family:Impact;-inkscape-font-specification:Impact;text-align:center;text-anchor:middle;clip-rule:evenodd;fill:#eb901d;fill-opacity:1;fill-rule:evenodd;stroke-width:0.365264;image-rendering:optimizeQuality;shape-rendering:geometricPrecision;text-rendering:geometricPrecision"
             id="path407" /><path
             d="m 41.956393,84.837494 h -2.327916 v -1.559317 q 0,-0.680128 -0.07741,-0.846012 -0.07188,-0.171415 -0.32624,-0.171415 -0.287533,0 -0.364946,0.204592 -0.07741,0.204591 -0.07741,0.884718 v 4.158178 q 0,0.65248 0.07741,0.851542 0.07741,0.199062 0.348358,0.199062 0.259886,0 0.337299,-0.199062 0.08294,-0.199062 0.08294,-0.934484 v -1.122487 h 2.327916 v 0.348358 q 0,1.387903 -0.199061,1.968499 -0.193533,0.580597 -0.868131,1.017427 -0.669068,0.43683 -1.653318,0.43683 -1.022956,0 -1.686495,-0.370476 -0.663539,-0.370476 -0.879189,-1.022956 -0.21565,-0.65801 -0.21565,-1.974029 v -2.61545 q 0,-0.967661 0.06635,-1.448727 0.06635,-0.486595 0.392594,-0.934484 0.331769,-0.447889 0.912366,-0.702245 0.586126,-0.259887 1.343666,-0.259887 1.028486,0 1.697554,0.398124 0.669069,0.398123 0.87919,0.995308 0.21012,0.591656 0.21012,1.846851 z"
             style="font-size:11.3244px;line-height:1;font-family:Impact;-inkscape-font-specification:Impact;text-align:center;text-anchor:middle;clip-rule:evenodd;fill:#eb901d;fill-opacity:1;fill-rule:evenodd;stroke-width:0.365264;image-rendering:optimizeQuality;shape-rendering:geometricPrecision;text-rendering:geometricPrecision"
             id="path409" /><path
             d="m 48.143895,80.933672 v 8.952248 h -2.327916 v -3.760055 h -0.696716 v 3.760055 h -2.327916 v -8.952248 h 2.327916 v 3.201576 h 0.696716 v -3.201576 z"
             style="font-size:11.3244px;line-height:1;font-family:Impact;-inkscape-font-specification:Impact;text-align:center;text-anchor:middle;clip-rule:evenodd;fill:#eb901d;fill-opacity:1;fill-rule:evenodd;stroke-width:0.365264;image-rendering:optimizeQuality;shape-rendering:geometricPrecision;text-rendering:geometricPrecision"
             id="path411" /><path
             d="m 53.09832,80.933672 1.332608,8.952248 h -2.383211 l -0.116119,-1.609082 h -0.834954 l -0.138237,1.609082 h -2.410859 l 1.183312,-8.952248 z m -1.233076,5.756202 q -0.176944,-1.520611 -0.353888,-3.754526 -0.353887,2.565685 -0.442359,3.754526 z"
             style="font-size:11.3244px;line-height:1;font-family:Impact;-inkscape-font-specification:Impact;text-align:center;text-anchor:middle;clip-rule:evenodd;fill:#eb901d;fill-opacity:1;fill-rule:evenodd;stroke-width:0.365264;image-rendering:optimizeQuality;shape-rendering:geometricPrecision;text-rendering:geometricPrecision"
             id="path413" /><path
             d="m 57.156967,80.933672 v 7.160693 h 1.41555 v 1.791555 h -3.743466 v -8.952248 z"
             style="font-size:11.3244px;line-height:1;font-family:Impact;-inkscape-font-specification:Impact;text-align:center;text-anchor:middle;clip-rule:evenodd;fill:#eb901d;fill-opacity:1;fill-rule:evenodd;stroke-width:0.365264;image-rendering:optimizeQuality;shape-rendering:geometricPrecision;text-rendering:geometricPrecision"
             id="path415" /></g><g
           id="g471"
           transform="matrix(1.2857188,0,0,1.2857188,-32.221765,-103.81623)"
           style="fill:#eb901d;fill-opacity:1"><path
             d="m 66.064982,83.643123 h -2.162036 v -0.663539 q 0,-0.464477 -0.08294,-0.591655 -0.08294,-0.127179 -0.276475,-0.127179 -0.210121,0 -0.320711,0.171415 -0.10506,0.171414 -0.10506,0.519772 0,0.447889 0.121649,0.674598 0.116119,0.226709 0.658009,0.54742 1.553784,0.923425 1.957434,1.51508 0.40366,0.591656 0.40366,1.907675 0,0.956602 -0.22671,1.410021 -0.22118,0.453418 -0.8626,0.76307 -0.64142,0.304122 -1.492963,0.304122 -0.934484,0 -1.598023,-0.353888 -0.658012,-0.353887 -0.862603,-0.901307 -0.204591,-0.54742 -0.204591,-1.553787 v -0.586126 h 2.162031 v 1.08931 q 0,0.503183 0.08847,0.64695 0.094,0.143767 0.32624,0.143767 0.232239,0 0.342828,-0.182473 0.11612,-0.182474 0.11612,-0.541891 0,-0.790717 -0.21565,-1.034015 -0.22118,-0.243297 -1.08931,-0.812835 -0.868131,-0.575067 -1.150135,-0.834953 -0.282004,-0.259886 -0.470007,-0.718834 -0.182473,-0.458948 -0.182473,-1.172253 0,-1.028485 0.259886,-1.504021 0.265416,-0.475537 0.851542,-0.740952 0.586126,-0.270946 1.41555,-0.270946 0.906838,0 1.542728,0.293064 0.64142,0.293063 0.84601,0.740952 0.21013,0.442359 0.21013,1.509551 z"
             style="font-size:11.3244px;line-height:1;font-family:Impact;-inkscape-font-specification:Impact;text-align:center;text-anchor:middle;clip-rule:evenodd;fill:#eb901d;fill-opacity:1;fill-rule:evenodd;stroke-width:0.365264;image-rendering:optimizeQuality;shape-rendering:geometricPrecision;text-rendering:geometricPrecision"
             id="path417" /><path
             d="m 70.881162,80.933672 v 1.791556 l -1.73626,5.369137 h 1.73626 v 1.791555 h -4.29088 v -1.299431 l 1.79155,-5.861261 h -1.58143 v -1.791556 z"
             style="font-size:11.3244px;line-height:1;font-family:Impact;-inkscape-font-specification:Impact;text-align:center;text-anchor:middle;clip-rule:evenodd;fill:#eb901d;fill-opacity:1;fill-rule:evenodd;stroke-width:0.365264;image-rendering:optimizeQuality;shape-rendering:geometricPrecision;text-rendering:geometricPrecision"
             id="path419" /><path
             d="m 76.443832,80.933672 -1.69755,5.711966 v 3.240282 h -2.1565 v -3.240282 l -1.63673,-5.711966 h 2.13991 q 0.50319,2.61545 0.56401,3.522287 0.19353,-1.432139 0.64695,-3.522287 z"
             style="font-size:11.3244px;line-height:1;font-family:Impact;-inkscape-font-specification:Impact;text-align:center;text-anchor:middle;clip-rule:evenodd;fill:#eb901d;fill-opacity:1;fill-rule:evenodd;stroke-width:0.365264;image-rendering:optimizeQuality;shape-rendering:geometricPrecision;text-rendering:geometricPrecision"
             id="path421" /><path
             d="m 84.024772,80.933672 v 8.952248 h -2.03485 v -6.043735 l -0.81284,6.043735 h -1.4432 l -0.85707,-5.905498 v 5.905498 h -2.03485 v -8.952248 h 3.01357 q 0.13271,0.807306 0.28201,1.902146 l 0.32071,2.27815 0.53083,-4.180296 z"
             style="font-size:11.3244px;line-height:1;font-family:Impact;-inkscape-font-specification:Impact;text-align:center;text-anchor:middle;clip-rule:evenodd;fill:#eb901d;fill-opacity:1;fill-rule:evenodd;stroke-width:0.365264;image-rendering:optimizeQuality;shape-rendering:geometricPrecision;text-rendering:geometricPrecision"
             id="path423" /><path
             d="m 90.394742,84.837494 h -2.32791 v -1.559317 q 0,-0.680128 -0.0774,-0.846012 -0.0719,-0.171415 -0.32624,-0.171415 -0.28753,0 -0.36494,0.204592 -0.0774,0.204591 -0.0774,0.884718 v 4.158178 q 0,0.65248 0.0774,0.851542 0.0774,0.199062 0.34836,0.199062 0.25988,0 0.33729,-0.199062 0.0829,-0.199062 0.0829,-0.934484 v -1.122487 h 2.32791 v 0.348358 q 0,1.387903 -0.19906,1.968499 -0.19353,0.580597 -0.86813,1.017427 -0.66907,0.43683 -1.65332,0.43683 -1.02295,0 -1.68649,-0.370476 -0.66354,-0.370476 -0.87919,-1.022956 -0.21565,-0.65801 -0.21565,-1.974029 v -2.61545 q 0,-0.967661 0.0663,-1.448727 0.0664,-0.486595 0.3926,-0.934484 0.33177,-0.447889 0.91236,-0.702245 0.58613,-0.259887 1.34367,-0.259887 1.02848,0 1.69755,0.398124 0.66907,0.398123 0.87919,0.995308 0.21012,0.591656 0.21012,1.846851 z"
             style="font-size:11.3244px;line-height:1;font-family:Impact;-inkscape-font-specification:Impact;text-align:center;text-anchor:middle;clip-rule:evenodd;fill:#eb901d;fill-opacity:1;fill-rule:evenodd;stroke-width:0.365264;image-rendering:optimizeQuality;shape-rendering:geometricPrecision;text-rendering:geometricPrecision"
             id="path425" /><path
             d="m 95.122462,80.933672 v 1.791556 l -1.73626,5.369137 h 1.73626 v 1.791555 h -4.29088 v -1.299431 l 1.79155,-5.861261 h -1.58143 v -1.791556 z"
             style="font-size:11.3244px;line-height:1;font-family:Impact;-inkscape-font-specification:Impact;text-align:center;text-anchor:middle;clip-rule:evenodd;fill:#eb901d;fill-opacity:1;fill-rule:evenodd;stroke-width:0.365264;image-rendering:optimizeQuality;shape-rendering:geometricPrecision;text-rendering:geometricPrecision"
             id="path427" /><path
             d="m 99.971822,80.933672 1.332608,8.952248 h -2.383208 l -0.11612,-1.609082 h -0.83495 l -0.13824,1.609082 h -2.41086 l 1.18331,-8.952248 z m -1.23307,5.756202 q -0.17695,-1.520611 -0.35389,-3.754526 -0.35389,2.565685 -0.44236,3.754526 z"
             style="font-size:11.3244px;line-height:1;font-family:Impact;-inkscape-font-specification:Impact;text-align:center;text-anchor:middle;clip-rule:evenodd;fill:#eb901d;fill-opacity:1;fill-rule:evenodd;stroke-width:0.365264;image-rendering:optimizeQuality;shape-rendering:geometricPrecision;text-rendering:geometricPrecision"
             id="path429" /><path
             d="m 107.24863,80.933672 -1.3326,4.042059 1.45978,4.910189 h -2.40533 l -0.94001,-3.837468 v 3.837468 h -2.32792 v -8.952248 h 2.32792 v 3.478051 l 1.03401,-3.478051 z"
             style="font-size:11.3244px;line-height:1;font-family:Impact;-inkscape-font-specification:Impact;text-align:center;text-anchor:middle;clip-rule:evenodd;fill:#eb901d;fill-opacity:1;fill-rule:evenodd;stroke-width:0.365264;image-rendering:optimizeQuality;shape-rendering:geometricPrecision;text-rendering:geometricPrecision"
             id="path431" /></g></g><g
         id="g537"
         transform="translate(0,2.9888771)"><g
           id="g10733"
           transform="matrix(0.83499379,0,0,0.83499379,8.7184195,9.4804365)"><g
             id="g493"
             transform="matrix(1.3061137,0,0,1.3061137,-33.039492,-97.872876)"
             style="fill:#f3bf7c;fill-opacity:1"><g
               id="g476"
               style="fill:#f3bf7c;fill-opacity:1"><path
                 d="m 50.640461,93.263135 v 1.791555 h -1.382373 v 7.16069 h -2.327916 v -7.16069 h -1.376844 v -1.791555 z"
                 style="font-size:11.3244px;line-height:1;font-family:Impact;-inkscape-font-specification:Impact;text-align:center;text-anchor:middle;clip-rule:evenodd;fill:#f3bf7c;fill-opacity:1;fill-rule:evenodd;stroke-width:0.365264;image-rendering:optimizeQuality;shape-rendering:geometricPrecision;text-rendering:geometricPrecision"
                 id="path433" /><path
                 d="m 56.52384,93.263135 v 8.952245 h -2.327916 v -3.760052 h -0.696716 v 3.760052 h -2.327916 v -8.952245 h 2.327916 v 3.201576 h 0.696716 v -3.201576 z"
                 style="font-size:11.3244px;line-height:1;font-family:Impact;-inkscape-font-specification:Impact;text-align:center;text-anchor:middle;clip-rule:evenodd;fill:#f3bf7c;fill-opacity:1;fill-rule:evenodd;stroke-width:0.365264;image-rendering:optimizeQuality;shape-rendering:geometricPrecision;text-rendering:geometricPrecision"
                 id="path435" /><path
                 d="m 57.458325,93.263135 h 3.881703 v 1.791555 h -1.553787 v 1.697554 h 1.454256 v 1.703084 h -1.454256 v 1.968502 h 1.708613 v 1.79155 h -4.036529 z"
                 style="font-size:11.3244px;line-height:1;font-family:Impact;-inkscape-font-specification:Impact;text-align:center;text-anchor:middle;clip-rule:evenodd;fill:#f3bf7c;fill-opacity:1;fill-rule:evenodd;stroke-width:0.365264;image-rendering:optimizeQuality;shape-rendering:geometricPrecision;text-rendering:geometricPrecision"
                 id="path437" /></g><g
               id="g482"
               style="fill:#f3bf7c;fill-opacity:1"><path
                 d="m 64.16007,93.263135 h 2.322382 q 1.10037,0 1.66438,0.171414 0.56954,0.171414 0.9179,0.696716 0.34836,0.519772 0.34836,1.680965 0,0.785188 -0.24883,1.09484 -0.2433,0.309648 -0.96766,0.475538 0.8073,0.18247 1.09484,0.60824 0.28753,0.42024 0.28753,1.2939 v 0.829432 q 0,0.90683 -0.21012,1.34366 -0.20459,0.43683 -0.65801,0.59719 -0.45342,0.16035 -1.85791,0.16035 H 64.16007 Z m 2.327912,1.531669 v 1.990617 q 0.1493,-0.0055 0.23224,-0.0055 0.34283,0 0.43683,-0.165885 0.094,-0.171414 0.094,-0.967661 0,-0.420242 -0.0774,-0.586126 -0.0774,-0.171415 -0.20459,-0.215651 -0.12165,-0.04424 -0.48107,-0.04976 z m 0,3.384054 v 2.504862 q 0.49213,-0.0166 0.62484,-0.15483 0.13823,-0.13824 0.13823,-0.680132 v -0.83495 q 0,-0.57507 -0.12165,-0.69672 -0.12164,-0.12165 -0.64142,-0.13823 z"
                 style="font-size:11.3244px;line-height:1;font-family:Impact;-inkscape-font-specification:Impact;text-align:center;text-anchor:middle;clip-rule:evenodd;fill:#f3bf7c;fill-opacity:1;fill-rule:evenodd;stroke-width:0.365264;image-rendering:optimizeQuality;shape-rendering:geometricPrecision;text-rendering:geometricPrecision"
                 id="path439" /><path
                 d="m 70.413922,93.263135 h 3.88171 v 1.791555 h -1.55379 v 1.697554 h 1.45425 v 1.703084 h -1.45425 v 1.968502 h 1.70861 v 1.79155 h -4.03653 z"
                 style="font-size:11.3244px;line-height:1;font-family:Impact;-inkscape-font-specification:Impact;text-align:center;text-anchor:middle;clip-rule:evenodd;fill:#f3bf7c;fill-opacity:1;fill-rule:evenodd;stroke-width:0.365264;image-rendering:optimizeQuality;shape-rendering:geometricPrecision;text-rendering:geometricPrecision"
                 id="path441" /><path
                 d="m 79.139462,93.263135 1.33261,8.952245 h -2.38321 l -0.11612,-1.60908 h -0.83495 l -0.13824,1.60908 h -2.41086 l 1.18331,-8.952245 z m -1.23307,5.756203 q -0.17695,-1.52061 -0.35389,-3.754527 -0.35389,2.565687 -0.44236,3.754527 z"
                 style="font-size:11.3244px;line-height:1;font-family:Impact;-inkscape-font-specification:Impact;text-align:center;text-anchor:middle;clip-rule:evenodd;fill:#f3bf7c;fill-opacity:1;fill-rule:evenodd;stroke-width:0.365264;image-rendering:optimizeQuality;shape-rendering:geometricPrecision;text-rendering:geometricPrecision"
                 id="path443" /><path
                 d="m 80.870192,93.263135 h 1.64779 q 1.64779,0 2.22839,0.127178 0.58612,0.127178 0.95107,0.65248 0.37048,0.519772 0.37048,1.664377 0,1.045074 -0.25989,1.404488 -0.25989,0.35942 -1.02296,0.4313 0.69119,0.17142 0.92896,0.45895 0.23777,0.28753 0.29306,0.53083 0.0608,0.23777 0.0608,1.32155 v 2.361092 h -2.16204 v -2.974862 q 0,-0.71884 -0.11612,-0.89025 -0.11059,-0.17141 -0.59165,-0.17141 v 4.036522 h -2.32792 z m 2.32792,1.531669 v 1.990617 q 0.39259,0 0.54742,-0.10506 0.16035,-0.11059 0.16035,-0.702246 V 95.48599 q 0,-0.42577 -0.15482,-0.558478 -0.1493,-0.132708 -0.55295,-0.132708 z"
                 style="font-size:11.3244px;line-height:1;font-family:Impact;-inkscape-font-specification:Impact;text-align:center;text-anchor:middle;clip-rule:evenodd;fill:#f3bf7c;fill-opacity:1;fill-rule:evenodd;stroke-width:0.365264;image-rendering:optimizeQuality;shape-rendering:geometricPrecision;text-rendering:geometricPrecision"
                 id="path445" /></g></g><path
             id="path5686"
             style="fill:#49b293;fill-opacity:1;stroke-width:0.693706;stroke-miterlimit:0;stop-color:#000000"
             inkscape:transform-center-x="0.011446276"
             inkscape:transform-center-y="-0.51743434"
             d="m 11.012364,34.439982 0.532191,-3.232667 -2.3612896,-2.271051 3.2389056,-0.492815 1.430222,-2.947499 1.469563,2.928081 3.245212,0.449399 -2.330661,2.302469 0.575427,3.225248 -2.909996,-1.505084 z" /><path
             id="path10665"
             style="fill:#49b293;fill-opacity:1;stroke-width:0.693706;stroke-miterlimit:0;stop-color:#000000"
             inkscape:transform-center-x="0.011446276"
             inkscape:transform-center-y="-0.51743434"
             d="m 89.126783,34.439982 0.532191,-3.232667 -2.361289,-2.271051 3.238905,-0.492815 1.430222,-2.947499 1.469563,2.928081 3.245212,0.449399 -2.330661,2.302469 0.575427,3.225248 -2.909996,-1.505084 z" /></g></g></g></g></svg>
