<?xml version="1.0" encoding="UTF-8" standalone="no"?>
<!-- Created with Inkscape (http://www.inkscape.org/) -->

<svg
   width="100"
   height="30"
   viewBox="0 0 26.458333 7.9375"
   version="1.1"
   id="svg3562"
   inkscape:version="1.2 (dc2aedaf03, 2022-05-15)"
   sodipodi:docname="photography.svg"
   xmlns:inkscape="http://www.inkscape.org/namespaces/inkscape"
   xmlns:sodipodi="http://sodipodi.sourceforge.net/DTD/sodipodi-0.dtd"
   xmlns="http://www.w3.org/2000/svg"
   xmlns:svg="http://www.w3.org/2000/svg">
  <sodipodi:namedview
     id="namedview3564"
     pagecolor="#505050"
     bordercolor="#eeeeee"
     borderopacity="1"
     inkscape:showpageshadow="0"
     inkscape:pageopacity="0"
     inkscape:pagecheckerboard="0"
     inkscape:deskcolor="#505050"
     inkscape:document-units="px"
     showgrid="false"
     inkscape:zoom="6.7277216"
     inkscape:cx="18.133925"
     inkscape:cy="27.200888"
     inkscape:window-width="1920"
     inkscape:window-height="1017"
     inkscape:window-x="-8"
     inkscape:window-y="-8"
     inkscape:window-maximized="1"
     inkscape:current-layer="layer1" />
  <defs
     id="defs3559" />
  <g
     inkscape:label="Layer 1"
     inkscape:groupmode="layer"
     id="layer1">
    <g
       style="fill:#a46ca6;fill-opacity:1"
       id="g9805"
       transform="matrix(0.66145733,0,0,0.66145733,7.9375083,-1.3229086)">
      <path
         d="M 5,8 C 5,6.343 7.343,5 9,5 V 4 A 4,4 0 0 0 5,8 Z"
         id="path9793"
         style="fill:#a46ca6;fill-opacity:1" />
      <path
         d="m 12.318,3 h 2.015 C 15.253,3 16,3.746 16,4.667 v 6.666 C 16,12.253 15.254,13 14.333,13 H 12.318 A 5.97,5.97 0 0 1 9,14 5.972,5.972 0 0 1 5.682,13 H 1.667 C 0.747,13 0,12.254 0,11.333 V 4.667 C 0,3.747 0.746,3 1.667,3 H 2 A 1,1 0 0 1 3,2 H 4 A 1,1 0 0 1 5,3 H 5.682 A 5.97,5.97 0 0 1 9,2 c 1.227,0 2.367,0.368 3.318,1 z M 2,4.5 a 0.5,0.5 0 1 0 -1,0 0.5,0.5 0 0 0 1,0 z M 14,8 A 5,5 0 1 0 4,8 5,5 0 0 0 14,8 Z"
         id="path9795"
         style="fill:#a46ca6;fill-opacity:1" />
    </g>
  </g>
</svg>
