<?xml version="1.0" encoding="UTF-8" standalone="no"?>
<!-- Created with Inkscape (http://www.inkscape.org/) -->

<svg
   width="80"
   height="30"
   viewBox="0 0 21.166666 7.9375"
   version="1.1"
   id="svg3562"
   inkscape:version="1.2 (dc2aedaf03, 2022-05-15)"
   sodipodi:docname="express.svg"
   xml:space="preserve"
   xmlns:inkscape="http://www.inkscape.org/namespaces/inkscape"
   xmlns:sodipodi="http://sodipodi.sourceforge.net/DTD/sodipodi-0.dtd"
   xmlns="http://www.w3.org/2000/svg"
   xmlns:svg="http://www.w3.org/2000/svg"><sodipodi:namedview
     id="namedview3564"
     pagecolor="#505050"
     bordercolor="#eeeeee"
     borderopacity="1"
     inkscape:showpageshadow="0"
     inkscape:pageopacity="0"
     inkscape:pagecheckerboard="0"
     inkscape:deskcolor="#505050"
     inkscape:document-units="px"
     showgrid="false"
     inkscape:zoom="6.7277216"
     inkscape:cx="37.977196"
     inkscape:cy="17.985286"
     inkscape:window-width="1920"
     inkscape:window-height="1017"
     inkscape:window-x="-8"
     inkscape:window-y="-8"
     inkscape:window-maximized="1"
     inkscape:current-layer="layer1"
     showguides="true"><sodipodi:guide
       position="8.0448126,1.8688113"
       orientation="0,-1"
       id="guide7559"
       inkscape:locked="false" /></sodipodi:namedview><defs
     id="defs3559"><style
       type="text/css"
       id="style4969">
   <![CDATA[
    .fil15 {fill:#290104}
    .fil14 {fill:#290104}
    .fil17 {fill:#381401}
    .fil13 {fill:#5D1917}
    .fil12 {fill:#5D1917}
    .fil9 {fill:#9D401F}
    .fil10 {fill:#9D401F}
    .fil16 {fill:#A64917}
    .fil6 {fill:#E0711C}
    .fil3 {fill:#F0B113}
    .fil8 {fill:#F4911B}
    .fil7 {fill:#F5DB5A}
    .fil11 {fill:#F76E2A}
    .fil0 {fill:#FFAF1B}
    .fil2 {fill:#FFC71B}
    .fil1 {fill:#FFC71B}
    .fil4 {fill:#FFD744}
    .fil5 {fill:#FFE474}
   ]]>
  </style><style
       type="text/css"
       id="style4969-1">
   <![CDATA[
    .fil15 {fill:#290104}
    .fil14 {fill:#290104}
    .fil17 {fill:#381401}
    .fil13 {fill:#5D1917}
    .fil12 {fill:#5D1917}
    .fil9 {fill:#9D401F}
    .fil10 {fill:#9D401F}
    .fil16 {fill:#A64917}
    .fil6 {fill:#E0711C}
    .fil3 {fill:#F0B113}
    .fil8 {fill:#F4911B}
    .fil7 {fill:#F5DB5A}
    .fil11 {fill:#F76E2A}
    .fil0 {fill:#FFAF1B}
    .fil2 {fill:#FFC71B}
    .fil1 {fill:#FFC71B}
    .fil4 {fill:#FFD744}
    .fil5 {fill:#FFE474}
   ]]>
  </style><style
       type="text/css"
       id="style4969-6">
   <![CDATA[
    .fil15 {fill:#290104}
    .fil14 {fill:#290104}
    .fil17 {fill:#381401}
    .fil13 {fill:#5D1917}
    .fil12 {fill:#5D1917}
    .fil9 {fill:#9D401F}
    .fil10 {fill:#9D401F}
    .fil16 {fill:#A64917}
    .fil6 {fill:#E0711C}
    .fil3 {fill:#F0B113}
    .fil8 {fill:#F4911B}
    .fil7 {fill:#F5DB5A}
    .fil11 {fill:#F76E2A}
    .fil0 {fill:#FFAF1B}
    .fil2 {fill:#FFC71B}
    .fil1 {fill:#FFC71B}
    .fil4 {fill:#FFD744}
    .fil5 {fill:#FFE474}
   ]]>
  </style><style
       type="text/css"
       id="style4969-0">
   <![CDATA[
    .fil15 {fill:#290104}
    .fil14 {fill:#290104}
    .fil17 {fill:#381401}
    .fil13 {fill:#5D1917}
    .fil12 {fill:#5D1917}
    .fil9 {fill:#9D401F}
    .fil10 {fill:#9D401F}
    .fil16 {fill:#A64917}
    .fil6 {fill:#E0711C}
    .fil3 {fill:#F0B113}
    .fil8 {fill:#F4911B}
    .fil7 {fill:#F5DB5A}
    .fil11 {fill:#F76E2A}
    .fil0 {fill:#FFAF1B}
    .fil2 {fill:#FFC71B}
    .fil1 {fill:#FFC71B}
    .fil4 {fill:#FFD744}
    .fil5 {fill:#FFE474}
   ]]>
  </style><linearGradient
       id="linearGradient14321"
       inkscape:swatch="solid"><stop
         style="stop-color:#ffffff;stop-opacity:1;"
         offset="0"
         id="stop14319" /></linearGradient><style
       type="text/css"
       id="style4969-5">
   <![CDATA[
    .fil15 {fill:#290104}
    .fil14 {fill:#290104}
    .fil17 {fill:#381401}
    .fil13 {fill:#5D1917}
    .fil12 {fill:#5D1917}
    .fil9 {fill:#9D401F}
    .fil10 {fill:#9D401F}
    .fil16 {fill:#A64917}
    .fil6 {fill:#E0711C}
    .fil3 {fill:#F0B113}
    .fil8 {fill:#F4911B}
    .fil7 {fill:#F5DB5A}
    .fil11 {fill:#F76E2A}
    .fil0 {fill:#FFAF1B}
    .fil2 {fill:#FFC71B}
    .fil1 {fill:#FFC71B}
    .fil4 {fill:#FFD744}
    .fil5 {fill:#FFE474}
   ]]>
  </style><style
       type="text/css"
       id="style4969-1-7">
   <![CDATA[
    .fil15 {fill:#290104}
    .fil14 {fill:#290104}
    .fil17 {fill:#381401}
    .fil13 {fill:#5D1917}
    .fil12 {fill:#5D1917}
    .fil9 {fill:#9D401F}
    .fil10 {fill:#9D401F}
    .fil16 {fill:#A64917}
    .fil6 {fill:#E0711C}
    .fil3 {fill:#F0B113}
    .fil8 {fill:#F4911B}
    .fil7 {fill:#F5DB5A}
    .fil11 {fill:#F76E2A}
    .fil0 {fill:#FFAF1B}
    .fil2 {fill:#FFC71B}
    .fil1 {fill:#FFC71B}
    .fil4 {fill:#FFD744}
    .fil5 {fill:#FFE474}
   ]]>
  </style><style
       type="text/css"
       id="style4969-6-1">
   <![CDATA[
    .fil15 {fill:#290104}
    .fil14 {fill:#290104}
    .fil17 {fill:#381401}
    .fil13 {fill:#5D1917}
    .fil12 {fill:#5D1917}
    .fil9 {fill:#9D401F}
    .fil10 {fill:#9D401F}
    .fil16 {fill:#A64917}
    .fil6 {fill:#E0711C}
    .fil3 {fill:#F0B113}
    .fil8 {fill:#F4911B}
    .fil7 {fill:#F5DB5A}
    .fil11 {fill:#F76E2A}
    .fil0 {fill:#FFAF1B}
    .fil2 {fill:#FFC71B}
    .fil1 {fill:#FFC71B}
    .fil4 {fill:#FFD744}
    .fil5 {fill:#FFE474}
   ]]>
  </style><style
       type="text/css"
       id="style4969-0-2">
   <![CDATA[
    .fil15 {fill:#290104}
    .fil14 {fill:#290104}
    .fil17 {fill:#381401}
    .fil13 {fill:#5D1917}
    .fil12 {fill:#5D1917}
    .fil9 {fill:#9D401F}
    .fil10 {fill:#9D401F}
    .fil16 {fill:#A64917}
    .fil6 {fill:#E0711C}
    .fil3 {fill:#F0B113}
    .fil8 {fill:#F4911B}
    .fil7 {fill:#F5DB5A}
    .fil11 {fill:#F76E2A}
    .fil0 {fill:#FFAF1B}
    .fil2 {fill:#FFC71B}
    .fil1 {fill:#FFC71B}
    .fil4 {fill:#FFD744}
    .fil5 {fill:#FFE474}
   ]]>
  </style><style
       id="style3506">.cls-1{fill:#10aa50;}.cls-2{fill:#b8c4c2;}.cls-3{fill:#12924f;}.cls-4{fill:#21313c;}</style></defs><g
     inkscape:label="Layer 1"
     inkscape:groupmode="layer"
     id="layer1"><g
       id="g9120"
       transform="translate(0,0.09887194)"><g
         id="g11566"
         transform="matrix(0.10478177,0,0,0.10478177,31.526457,-11.792621)"><g
           style="fill:none"
           id="g8566"
           transform="matrix(1.1964641,0,0,1.1964641,-298.95247,113.58318)"><path
             fill-rule="evenodd"
             clip-rule="evenodd"
             d="M 8.68927,35.4922 13.148,20.0493 h 17.8351 l 4.4588,15.4429 z"
             fill="#eed9c3"
             id="path8524" /><ellipse
             cx="27.7848"
             cy="27.8815"
             rx="1.2600501"
             ry="1.2428401"
             fill="#353535"
             id="ellipse8526" /><path
             fill-rule="evenodd"
             clip-rule="evenodd"
             d="m 19.446,26.4685 c 0,-0.4341 -0.3568,-0.7859 -0.7967,-0.7859 -1.0112,0 -2.7458,0 -3.7571,0 -0.4398,0 -0.7967,0.3518 -0.7967,0.7859 0,0.6764 0,1.6624 0,2.4334 0,0.6508 0.5351,1.1786 1.1948,1.1786 0.4093,0 0.886,0 1.3676,0 0.7394,0 1.4484,-0.2898 1.9716,-0.8057 0.5228,-0.5154 0.8165,-1.2151 0.8165,-1.9443 0,-0.3127 0,-0.6091 0,-0.862 z"
             fill="#a78347"
             id="path8528" /><path
             fill-rule="evenodd"
             clip-rule="evenodd"
             d="m 35.0003,5.29008 8.8513,-4.530803 -4.8514,18.000023 -4,4 z"
             fill="#e3b261"
             id="path8530" /><path
             fill-rule="evenodd"
             clip-rule="evenodd"
             d="M 8.85146,5.29008 1.93596e-4,0.759277 4.85162,18.7593 l 4,4 z"
             fill="#e3b261"
             id="path8532" /><path
             fill-rule="evenodd"
             clip-rule="evenodd"
             d="m 35.4419,13.5028 c 0,0 -6.6882,-4.39782 -13.3763,-4.39782 -6.6882,0 -13.37633,4.39782 -13.37633,4.39782 v 13.1936 l 1.78353,3.5183 c 1.2797,-4.8627 7.0715,-6.8884 11.1031,-3.8833 l 0.4897,0.365 0.4897,-0.365 c 4.0315,-3.0051 9.8233,-0.9794 11.103,3.8833 l 1.7836,-3.5183 z"
             fill="#e3b261"
             id="path8534" /><path
             fill-rule="evenodd"
             clip-rule="evenodd"
             d="M 17.6068,33.2935 14.0398,53.9634 9.12134,50.4451 13.148,35.4924 Z"
             fill="#d4d4d4"
             id="path8536" /><path
             fill-rule="evenodd"
             clip-rule="evenodd"
             d="m 26.5244,33.2935 3.567,20.6699 4.9184,-3.5183 -4.0267,-14.9527 z"
             fill="#d5d5d5"
             id="path8538" /><path
             fill-rule="evenodd"
             clip-rule="evenodd"
             d="M 8.68927,26.6968 5.12225,39.8904 9.58102,48.6861 13.148,35.4925 Z"
             fill="#e6e6e6"
             id="path8540" /><path
             fill-rule="evenodd"
             clip-rule="evenodd"
             d="m 35.4418,26.6968 3.5671,13.1936 -4.4588,8.7957 -3.567,-13.1936 z"
             fill="#e6e6e6"
             id="path8542" /><path
             fill-rule="evenodd"
             clip-rule="evenodd"
             d="m 17.6068,33.2937 -4.0129,21.5495 8.4716,4.3979 8.4717,-4.3979 -4.0129,-21.5495 -4.1262,-2.0349 -0.3326,-0.1641 z"
             fill="#e6e6e6"
             id="path8544" /><path
             fill-rule="evenodd"
             clip-rule="evenodd"
             d="m 23.6636,34.1729 h -3.1211 c 0,0 0,0.5211 0,1.1003 0,0.4081 0.1645,0.7991 0.457,1.0876 0.2925,0.2885 0.6889,0.4508 1.1027,0.4508 4e-4,0 0.0013,0 0.0017,0 0.4138,0 0.8102,-0.1623 1.1027,-0.4508 0.2925,-0.2885 0.457,-0.6795 0.457,-1.0876 0,-0.5792 0,-1.1003 0,-1.1003 z"
             fill="#353535"
             id="path8546" /></g></g><g
         id="g1159"
         transform="matrix(0.58095393,0,0,0.58095393,-37.95755,-81.904318)"><g
           id="g11547"
           transform="matrix(0.23229499,0,0,0.23229499,150.16538,108.43136)"><path
             style="fill:#cb9543;stroke:none;stroke-width:0.264583"
             d="m -281.97543,163.3039 0.14598,13.98034 1.97068,0.0426 c 0.66596,-1.33191 1.64922,-2.58945 2.41122,-3.86553 0.27403,-0.45873 0.5627,-2.12377 0.86657,-2.76993 0.0412,-0.94772 0.0623,-1.16702 0.045,-1.96248 -0.64588,-1.31452 -1.32917,-2.55286 -2.13214,-3.83748 -0.3974,-0.63579 -0.93963,-1.35562 -1.45521,-1.94019 -0.65436,0.19857 -1.32477,0.25559 -1.85208,0.35269 m 25.92917,13.75834 h 2.11666 c -0.10239,-1.29805 -0.13229,-4.23334 -0.13229,-4.23334 l 3.67198,-3.93955 -0.008,-1.69618 -4.00315,-4.28171 -1.73649,0.2397 c 0.26794,4.67834 0.1024,9.80381 0.0909,13.91108 m 7.40833,0 1.54331,-0.1323 0.30877,-1.4552 V 171.506 h 0.26459 l 1.5875,3.43958 1.05833,1.98437 1.5875,-0.39687 c -0.20849,-1.98067 -2.01269,-3.44726 -2.60165,-5.29167 -0.45323,-1.41816 1.43575,-2.00867 1.785,-3.26623 0.10787,-0.38825 0.19446,-1.28937 -0.11658,-1.77201 -0.87303,-1.35465 -2.96194,-2.86247 -3.82927,-3.29613 -0.40379,0.0646 -1.09985,0.12092 -1.57444,0.27969 0.0641,0.53579 -0.0131,2.35979 -0.0131,3.29218 v 10.58334 m 30.69167,-14.2875 -2.42544,4.23333 -1.54331,2.91042 1.76397,3.39539 2.20478,4.01294 1.4552,-1.05833 -0.44106,-1.32292 -2.24895,-3.43958 -0.79375,-1.5875 0.97022,-1.85209 2.64584,-4.49791 -1.5875,-0.79375 m -100.27709,0.26458 0.30877,1.71979 1.94788,-0.10492 -0.0958,2.0893 -0.0442,4.7625 v 5.55625 l 1.76845,-0.0655 0.0836,-3.6387 v -8.73125 h 2.11667 v -1.5875 h -6.08542 m 7.67292,0 0.26458,9.78958 -0.26458,4.23334 h 2.11666 l -0.13229,-5.55625 2.51354,-1.32292 0.26459,4.49792 0.0881,2.24895 1.76398,0.1323 -0.26458,-2.11667 0.26458,-11.90625 -1.98437,0.30877 -0.17648,4.89479 -1.27873,0.66146 -1.32292,0.2204 v -4.23334 l 0.13229,-1.54331 -1.98437,-0.30877 m 9.26041,14.02292 h 3.43959 l 1.49939,-0.1323 0.35269,-1.71979 c -0.82523,0 -3.5104,0.71259 -3.49433,0.27827 0.0237,-0.6399 0.0548,-3.70727 0.0548,-4.77618 0.96001,0 1.97772,0.0835 2.48373,0.0317 0.36261,-0.0371 0.1621,-0.88894 0.1621,-1.61916 h -2.64583 c -0.0503,-0.93107 -0.047,-3.33914 0.0168,-4.18915 0.46292,-0.22654 2.19461,-0.0888 3.00347,-0.16305 0.24234,-0.0222 0.0756,-0.43516 0.15471,-0.93947 0.0365,-0.23282 0,-0.5633 0,-0.79375 l -2.82231,0.0881 -1.89601,0.0442 -0.0442,3.30729 c 0.0227,2.32022 -0.18516,4.39273 0,6.61459 l -0.26459,3.96875 m 12.96459,-14.02292 -2.51354,6.61458 2.51354,7.40834 1.79839,-0.0291 1.42079,-3.41051 1.54332,-3.70416 -2.07248,-5.02709 -0.95094,-1.82301 -1.73908,-0.0291 m 14.2875,0 v 14.02292 l 2.11666,-0.0213 v -14.00163 h -2.11666 m 4.7625,14.02292 h 1.85208 v -11.1125 h 0.26458 l 2.24896,3.43958 0.13229,3.175 v 4.49792 l 2.02857,-0.0426 -0.17648,-2.07409 -0.2204,-5.02708 0.2204,-6.87917 h -1.85209 v 3.70417 c -0.68604,-0.84106 -1.8065,-2.39568 -3.06176,-3.78542 -0.48578,0.11279 -0.70796,0.18387 -1.34492,0.31534 0.0105,4.72831 -0.0745,9.71563 -0.0912,13.78883 m 30.1625,-14.02292 -2.51354,6.61458 2.51354,7.40834 1.76398,-0.1323 1.4552,-3.30729 1.54332,-3.70416 -2.07248,-5.02709 -0.88212,-1.71979 -1.8079,-0.13229 m 6.61458,0 c 0.0492,1.86584 0.26459,3.67242 0.26459,5.55625 0,1.45521 0.54345,4.26138 -0.1323,5.55625 -0.39211,0.75142 -1.79837,1.01335 -1.94019,1.85208 -0.11139,0.65696 0.63077,1.38854 1.27874,1.19063 0.71225,-0.21775 2.17593,-1.60205 2.51354,-2.24896 0.41989,-0.80513 -0.0979,-1.81742 -0.13229,-2.64583 -0.0879,-2.1082 0,-4.23969 0,-6.35 0,-0.70089 0.40931,-1.73541 0.17647,-2.38125 -0.27966,-0.77497 -1.3835,-0.52917 -2.02856,-0.52917 m 4.7625,0 v 14.02292 h 5.02709 v -1.85209 l -3.175,0.26459 v -4.7625 h 2.38125 v -1.5875 h -2.64584 l 0.26459,-4.49792 2.91041,0.26458 v -1.85208 h -4.7625 m 12.17084,0 c -0.38339,2.08148 0.38576,1.72402 2.11666,1.5875 l -0.26458,12.43542 1.98437,-0.30877 -0.13229,-3.13082 v -8.99583 h 2.38125 v -1.5875 h -6.08541 m -71.70205,2.11665 1.76398,5.02708 -1.4994,4.49792 h -0.26458 l -1.8079,-5.02709 0.96997,-2.64583 0.83793,-1.85208 m 40.48125,0 2.02856,2.11666 -1.76397,2.64584 h -0.26459 v -4.7625 m 8.73125,0 1.76398,5.02708 -1.49939,4.49792 h -0.26459 l -1.8079,-5.02709 0.96997,-2.64583 0.83793,-1.85208 m -15.875,0.26458 c 0.57547,0.57547 1.56448,1.28349 1.76398,2.11667 0.23918,0.99933 -1.31789,2.2344 -2.02856,2.64583 l -0.0274,-4.7625 m -23.30015,4.49792 -2.33707,4.49791 h -0.26458 v -6.61458 l 0.0237,-2.04786"
             id="path9169"
             sodipodi:nodetypes="ccccccsccccccccccccccccccccsccscccccccccccccccccccccccccccccccccccccccccccccccscscccssccccccccccccccccccccccccccccccccccccccccccccccssccccscccccccccccccccccccccccccccccccccccccccccccccccccccc" /></g></g></g></g></svg>
