<?xml version="1.0" encoding="UTF-8" standalone="no"?>
<!-- Created with Inkscape (http://www.inkscape.org/) -->

<svg
   width="100"
   height="30"
   viewBox="0 0 26.458333 7.9375"
   version="1.1"
   id="svg3562"
   inkscape:version="1.2 (dc2aedaf03, 2022-05-15)"
   sodipodi:docname="travel.svg"
   xmlns:inkscape="http://www.inkscape.org/namespaces/inkscape"
   xmlns:sodipodi="http://sodipodi.sourceforge.net/DTD/sodipodi-0.dtd"
   xmlns="http://www.w3.org/2000/svg"
   xmlns:svg="http://www.w3.org/2000/svg">
  <sodipodi:namedview
     id="namedview3564"
     pagecolor="#505050"
     bordercolor="#eeeeee"
     borderopacity="1"
     inkscape:showpageshadow="0"
     inkscape:pageopacity="0"
     inkscape:pagecheckerboard="0"
     inkscape:deskcolor="#505050"
     inkscape:document-units="px"
     showgrid="false"
     inkscape:zoom="6.7277216"
     inkscape:cx="18.133925"
     inkscape:cy="27.200888"
     inkscape:window-width="1920"
     inkscape:window-height="1017"
     inkscape:window-x="-8"
     inkscape:window-y="-8"
     inkscape:window-maximized="1"
     inkscape:current-layer="layer1" />
  <defs
     id="defs3559" />
  <g
     inkscape:label="Layer 1"
     inkscape:groupmode="layer"
     id="layer1">
    <g
       style="fill:#f4d9b3;fill-opacity:1"
       id="g9417"
       transform="matrix(0.49609375,0,0,0.49609375,9.260417,0)">
      <path
         d="M 8,0 A 8,8 0 1 0 8,16 8,8 0 0 0 8,0 Z M 2.04,4.326 C 2.365,5.655 4.572,6.866 5.757,7.516 6.237,7.779 6.55,7.95 6.5,8 6.42,8.08 6.338,8.158 6.258,8.234 5.842,8.63 5.471,8.983 5.5,9.5 5.535,10.134 6.118,10.324 6.714,10.517 7.291,10.705 7.882,10.897 8,11.5 8.082,11.917 7.925,12.488 7.78,13.02 7.565,13.802 7.374,14.5 8,14.5 9.5,14 11.798,11.314 12,9.5 12.138,8.257 10,7.5 8.5,7 8.022,6.84 7.745,7.081 7.51,7.284 7.338,7.434 7.188,7.563 7,7.5 6.555,7.352 4.5,5.5 5.5,5 6.28,4.61 6.452,4.829 6.727,5.182 6.805,5.281 6.89,5.39 7,5.5 7.609,5.804 7.662,5.368 7.723,4.867 7.762,4.545 7.804,4.196 8,4 8.434,3.566 9.265,3.209 10.028,2.88 10.74,2.574 11.393,2.293 11.607,2 A 7,7 0 1 1 2.04,4.327 Z"
         id="path9408"
         style="fill:#f4d9b3;fill-opacity:1" />
    </g>
  </g>
</svg>
