<?xml version="1.0" encoding="UTF-8" standalone="no"?>
<!-- Created with Inkscape (http://www.inkscape.org/) -->

<svg
   width="80"
   height="30"
   viewBox="0 0 21.166666 7.9375"
   version="1.1"
   id="svg3562"
   inkscape:version="1.2 (dc2aedaf03, 2022-05-15)"
   sodipodi:docname="express.svg"
   xml:space="preserve"
   xmlns:inkscape="http://www.inkscape.org/namespaces/inkscape"
   xmlns:sodipodi="http://sodipodi.sourceforge.net/DTD/sodipodi-0.dtd"
   xmlns="http://www.w3.org/2000/svg"
   xmlns:svg="http://www.w3.org/2000/svg"><sodipodi:namedview
     id="namedview3564"
     pagecolor="#505050"
     bordercolor="#eeeeee"
     borderopacity="1"
     inkscape:showpageshadow="0"
     inkscape:pageopacity="0"
     inkscape:pagecheckerboard="0"
     inkscape:deskcolor="#505050"
     inkscape:document-units="px"
     showgrid="false"
     inkscape:zoom="6.7277216"
     inkscape:cx="37.977196"
     inkscape:cy="17.985286"
     inkscape:window-width="1920"
     inkscape:window-height="1017"
     inkscape:window-x="-8"
     inkscape:window-y="-8"
     inkscape:window-maximized="1"
     inkscape:current-layer="layer1"
     showguides="true"><sodipodi:guide
       position="8.0448126,1.8688113"
       orientation="0,-1"
       id="guide7559"
       inkscape:locked="false" /></sodipodi:namedview><defs
     id="defs3559"><style
       type="text/css"
       id="style4969">
   <![CDATA[
    .fil15 {fill:#290104}
    .fil14 {fill:#290104}
    .fil17 {fill:#381401}
    .fil13 {fill:#5D1917}
    .fil12 {fill:#5D1917}
    .fil9 {fill:#9D401F}
    .fil10 {fill:#9D401F}
    .fil16 {fill:#A64917}
    .fil6 {fill:#E0711C}
    .fil3 {fill:#F0B113}
    .fil8 {fill:#F4911B}
    .fil7 {fill:#F5DB5A}
    .fil11 {fill:#F76E2A}
    .fil0 {fill:#FFAF1B}
    .fil2 {fill:#FFC71B}
    .fil1 {fill:#FFC71B}
    .fil4 {fill:#FFD744}
    .fil5 {fill:#FFE474}
   ]]>
  </style><style
       type="text/css"
       id="style4969-1">
   <![CDATA[
    .fil15 {fill:#290104}
    .fil14 {fill:#290104}
    .fil17 {fill:#381401}
    .fil13 {fill:#5D1917}
    .fil12 {fill:#5D1917}
    .fil9 {fill:#9D401F}
    .fil10 {fill:#9D401F}
    .fil16 {fill:#A64917}
    .fil6 {fill:#E0711C}
    .fil3 {fill:#F0B113}
    .fil8 {fill:#F4911B}
    .fil7 {fill:#F5DB5A}
    .fil11 {fill:#F76E2A}
    .fil0 {fill:#FFAF1B}
    .fil2 {fill:#FFC71B}
    .fil1 {fill:#FFC71B}
    .fil4 {fill:#FFD744}
    .fil5 {fill:#FFE474}
   ]]>
  </style><style
       type="text/css"
       id="style4969-6">
   <![CDATA[
    .fil15 {fill:#290104}
    .fil14 {fill:#290104}
    .fil17 {fill:#381401}
    .fil13 {fill:#5D1917}
    .fil12 {fill:#5D1917}
    .fil9 {fill:#9D401F}
    .fil10 {fill:#9D401F}
    .fil16 {fill:#A64917}
    .fil6 {fill:#E0711C}
    .fil3 {fill:#F0B113}
    .fil8 {fill:#F4911B}
    .fil7 {fill:#F5DB5A}
    .fil11 {fill:#F76E2A}
    .fil0 {fill:#FFAF1B}
    .fil2 {fill:#FFC71B}
    .fil1 {fill:#FFC71B}
    .fil4 {fill:#FFD744}
    .fil5 {fill:#FFE474}
   ]]>
  </style><style
       type="text/css"
       id="style4969-0">
   <![CDATA[
    .fil15 {fill:#290104}
    .fil14 {fill:#290104}
    .fil17 {fill:#381401}
    .fil13 {fill:#5D1917}
    .fil12 {fill:#5D1917}
    .fil9 {fill:#9D401F}
    .fil10 {fill:#9D401F}
    .fil16 {fill:#A64917}
    .fil6 {fill:#E0711C}
    .fil3 {fill:#F0B113}
    .fil8 {fill:#F4911B}
    .fil7 {fill:#F5DB5A}
    .fil11 {fill:#F76E2A}
    .fil0 {fill:#FFAF1B}
    .fil2 {fill:#FFC71B}
    .fil1 {fill:#FFC71B}
    .fil4 {fill:#FFD744}
    .fil5 {fill:#FFE474}
   ]]>
  </style><linearGradient
       id="linearGradient14321"
       inkscape:swatch="solid"><stop
         style="stop-color:#ffffff;stop-opacity:1;"
         offset="0"
         id="stop14319" /></linearGradient><style
       type="text/css"
       id="style4969-5">
   <![CDATA[
    .fil15 {fill:#290104}
    .fil14 {fill:#290104}
    .fil17 {fill:#381401}
    .fil13 {fill:#5D1917}
    .fil12 {fill:#5D1917}
    .fil9 {fill:#9D401F}
    .fil10 {fill:#9D401F}
    .fil16 {fill:#A64917}
    .fil6 {fill:#E0711C}
    .fil3 {fill:#F0B113}
    .fil8 {fill:#F4911B}
    .fil7 {fill:#F5DB5A}
    .fil11 {fill:#F76E2A}
    .fil0 {fill:#FFAF1B}
    .fil2 {fill:#FFC71B}
    .fil1 {fill:#FFC71B}
    .fil4 {fill:#FFD744}
    .fil5 {fill:#FFE474}
   ]]>
  </style><style
       type="text/css"
       id="style4969-1-7">
   <![CDATA[
    .fil15 {fill:#290104}
    .fil14 {fill:#290104}
    .fil17 {fill:#381401}
    .fil13 {fill:#5D1917}
    .fil12 {fill:#5D1917}
    .fil9 {fill:#9D401F}
    .fil10 {fill:#9D401F}
    .fil16 {fill:#A64917}
    .fil6 {fill:#E0711C}
    .fil3 {fill:#F0B113}
    .fil8 {fill:#F4911B}
    .fil7 {fill:#F5DB5A}
    .fil11 {fill:#F76E2A}
    .fil0 {fill:#FFAF1B}
    .fil2 {fill:#FFC71B}
    .fil1 {fill:#FFC71B}
    .fil4 {fill:#FFD744}
    .fil5 {fill:#FFE474}
   ]]>
  </style><style
       type="text/css"
       id="style4969-6-1">
   <![CDATA[
    .fil15 {fill:#290104}
    .fil14 {fill:#290104}
    .fil17 {fill:#381401}
    .fil13 {fill:#5D1917}
    .fil12 {fill:#5D1917}
    .fil9 {fill:#9D401F}
    .fil10 {fill:#9D401F}
    .fil16 {fill:#A64917}
    .fil6 {fill:#E0711C}
    .fil3 {fill:#F0B113}
    .fil8 {fill:#F4911B}
    .fil7 {fill:#F5DB5A}
    .fil11 {fill:#F76E2A}
    .fil0 {fill:#FFAF1B}
    .fil2 {fill:#FFC71B}
    .fil1 {fill:#FFC71B}
    .fil4 {fill:#FFD744}
    .fil5 {fill:#FFE474}
   ]]>
  </style><style
       type="text/css"
       id="style4969-0-2">
   <![CDATA[
    .fil15 {fill:#290104}
    .fil14 {fill:#290104}
    .fil17 {fill:#381401}
    .fil13 {fill:#5D1917}
    .fil12 {fill:#5D1917}
    .fil9 {fill:#9D401F}
    .fil10 {fill:#9D401F}
    .fil16 {fill:#A64917}
    .fil6 {fill:#E0711C}
    .fil3 {fill:#F0B113}
    .fil8 {fill:#F4911B}
    .fil7 {fill:#F5DB5A}
    .fil11 {fill:#F76E2A}
    .fil0 {fill:#FFAF1B}
    .fil2 {fill:#FFC71B}
    .fil1 {fill:#FFC71B}
    .fil4 {fill:#FFD744}
    .fil5 {fill:#FFE474}
   ]]>
  </style><style
       id="style3506">.cls-1{fill:#10aa50;}.cls-2{fill:#b8c4c2;}.cls-3{fill:#12924f;}.cls-4{fill:#21313c;}</style></defs><g
     inkscape:label="Layer 1"
     inkscape:groupmode="layer"
     id="layer1"><g
       id="g8586"
       transform="matrix(0.59307128,0,0,0.59307128,-28.462689,-80.44027)"><path
         d="m 57.589785,140.3927 -1.858963,-1.07315 -1.858433,1.07315 v -1.07315 l 1.858698,-1.07315 1.858962,1.07315 v 1.07315 z"
         fill="#a435f0"
         id="path8568"
         style="stroke-width:0.264583" /><path
         d="m 53.872389,141.29387 h 0.973667 v 2.36564 c 0,0.61119 0.456406,0.90911 0.885031,0.90911 0.432329,0 0.885296,-0.30586 0.885296,-0.91731 v -2.35744 h 0.973666 v 2.422 c 0,0.56303 -0.177006,0.99748 -0.531018,1.2954 -0.354277,0.29765 -0.796661,0.44264 -1.336146,0.44264 -0.538956,0 -0.981604,-0.14472 -1.327415,-0.44264 -0.346075,-0.29766 -0.523081,-0.71597 -0.523081,-1.27133 z m 12.135379,2.94005 c -0.294746,0.26247 -0.630502,0.39105 -1.013354,0.39105 -0.6985,0 -1.166813,-0.39793 -1.219729,-1.01414 h 3.145896 c 0,0 0.02117,-0.19897 0.02117,-0.38577 0,-0.57943 -0.185208,-1.0623 -0.563562,-1.45653 -0.369888,-0.39423 -0.852488,-0.58737 -1.440127,-0.58737 -0.61939,0 -1.126596,0.19314 -1.529027,0.58737 -0.39423,0.39423 -0.595313,0.90911 -0.595313,1.55311 v 0.0317 c 0,0.63579 0.201083,1.14273 0.595313,1.52109 0.394229,0.37809 0.91731,0.57123 1.553104,0.57123 0.739246,0 1.327414,-0.29157 1.768739,-0.79428 z m -1.850496,-1.97458 c 0.216959,-0.16907 0.482865,-0.25744 0.780521,-0.25744 0.281517,0 0.514879,0.0884 0.716227,0.26564 0.192088,0.16139 0.295804,0.35957 0.3048,0.58737 h -2.159264 c 0.03122,-0.23548 0.150283,-0.43391 0.357981,-0.59531 z m 11.651721,3.733 c -0.395023,0.93266 -0.808302,1.24989 -1.441979,1.24989 h -0.439209 v -0.86307 h 0.355071 c 0.218017,0 0.420688,-0.082 0.613834,-0.52758 l 0.193145,-0.44608 -1.665816,-4.11163 h 0.989806 l 1.182952,2.96122 1.215231,-2.96122 h 0.989542 l -1.992313,4.69847 z M 61.38047,139.74103 v 1.92008 c -0.319087,-0.28575 -0.815446,-0.45587 -1.2954,-0.45587 -0.5715,0 -1.0541,0.20108 -1.448329,0.61118 -0.386292,0.40243 -0.579437,0.90117 -0.579437,1.50469 0,0.60378 0.193145,1.10252 0.579437,1.51289 0.394229,0.40243 0.877094,0.60377 1.448329,0.60377 0.658813,0 1.075267,-0.25902 1.2954,-0.46196 v 0.37333 h 0.965729 V 139.7413 H 61.38047 Z m -0.289719,4.46564 c -0.233362,0.23336 -0.531018,0.35428 -0.877093,0.35428 -0.346075,0 -0.627592,-0.12092 -0.860954,-0.35428 -0.224896,-0.23336 -0.337873,-0.53102 -0.337873,-0.88503 0,-0.35428 0.112712,-0.65194 0.337873,-0.8853 0.233362,-0.23336 0.514879,-0.35401 0.860954,-0.35401 0.346075,0 0.643731,0.12065 0.877093,0.35401 0.2413,0.23336 0.36248,0.53102 0.36248,0.8853 0,0.35401 -0.12118,0.65167 -0.36248,0.88503 z m 10.832042,-2.99323 c -0.733425,0 -1.11469,0.30427 -1.375833,0.59743 -0.104511,-0.19923 -0.398727,-0.59743 -1.086115,-0.59743 -0.581025,0 -0.923396,0.29368 -1.094317,0.50271 v -0.42175 h -0.957262 v 4.05527 h 0.957262 v -2.33363 c 0,-0.54715 0.338138,-0.94138 0.788459,-0.94138 0.459052,0 0.724429,0.34607 0.724429,0.90117 v 2.37357 h 0.957527 v -2.33362 c 0,-0.5551 0.329671,-0.94139 0.804333,-0.94139 0.458788,0 0.724165,0.34608 0.724165,0.90091 v 2.37384 h 0.965729 v -2.51037 c 0,-1.05727 -0.568325,-1.62507 -1.408377,-1.62507 z"
         fill="#000000"
         id="path8570"
         style="fill:#ffffff;stroke-width:0.264583" /></g></g></svg>
