<?xml version="1.0" encoding="UTF-8" standalone="no"?>
<!-- Created with Inkscape (http://www.inkscape.org/) -->

<svg
   width="80"
   height="30"
   viewBox="0 0 21.166666 7.9375"
   version="1.1"
   id="svg3562"
   inkscape:version="1.2 (dc2aedaf03, 2022-05-15)"
   sodipodi:docname="express.svg"
   xml:space="preserve"
   xmlns:inkscape="http://www.inkscape.org/namespaces/inkscape"
   xmlns:sodipodi="http://sodipodi.sourceforge.net/DTD/sodipodi-0.dtd"
   xmlns="http://www.w3.org/2000/svg"
   xmlns:svg="http://www.w3.org/2000/svg"><sodipodi:namedview
     id="namedview3564"
     pagecolor="#505050"
     bordercolor="#eeeeee"
     borderopacity="1"
     inkscape:showpageshadow="0"
     inkscape:pageopacity="0"
     inkscape:pagecheckerboard="0"
     inkscape:deskcolor="#505050"
     inkscape:document-units="px"
     showgrid="false"
     inkscape:zoom="6.7277216"
     inkscape:cx="37.977196"
     inkscape:cy="17.985286"
     inkscape:window-width="1920"
     inkscape:window-height="1017"
     inkscape:window-x="-8"
     inkscape:window-y="-8"
     inkscape:window-maximized="1"
     inkscape:current-layer="layer1"
     showguides="true"><sodipodi:guide
       position="8.0448126,1.8688113"
       orientation="0,-1"
       id="guide7559"
       inkscape:locked="false" /></sodipodi:namedview><defs
     id="defs3559"><style
       type="text/css"
       id="style4969">
   <![CDATA[
    .fil15 {fill:#290104}
    .fil14 {fill:#290104}
    .fil17 {fill:#381401}
    .fil13 {fill:#5D1917}
    .fil12 {fill:#5D1917}
    .fil9 {fill:#9D401F}
    .fil10 {fill:#9D401F}
    .fil16 {fill:#A64917}
    .fil6 {fill:#E0711C}
    .fil3 {fill:#F0B113}
    .fil8 {fill:#F4911B}
    .fil7 {fill:#F5DB5A}
    .fil11 {fill:#F76E2A}
    .fil0 {fill:#FFAF1B}
    .fil2 {fill:#FFC71B}
    .fil1 {fill:#FFC71B}
    .fil4 {fill:#FFD744}
    .fil5 {fill:#FFE474}
   ]]>
  </style><style
       type="text/css"
       id="style4969-1">
   <![CDATA[
    .fil15 {fill:#290104}
    .fil14 {fill:#290104}
    .fil17 {fill:#381401}
    .fil13 {fill:#5D1917}
    .fil12 {fill:#5D1917}
    .fil9 {fill:#9D401F}
    .fil10 {fill:#9D401F}
    .fil16 {fill:#A64917}
    .fil6 {fill:#E0711C}
    .fil3 {fill:#F0B113}
    .fil8 {fill:#F4911B}
    .fil7 {fill:#F5DB5A}
    .fil11 {fill:#F76E2A}
    .fil0 {fill:#FFAF1B}
    .fil2 {fill:#FFC71B}
    .fil1 {fill:#FFC71B}
    .fil4 {fill:#FFD744}
    .fil5 {fill:#FFE474}
   ]]>
  </style><style
       type="text/css"
       id="style4969-6">
   <![CDATA[
    .fil15 {fill:#290104}
    .fil14 {fill:#290104}
    .fil17 {fill:#381401}
    .fil13 {fill:#5D1917}
    .fil12 {fill:#5D1917}
    .fil9 {fill:#9D401F}
    .fil10 {fill:#9D401F}
    .fil16 {fill:#A64917}
    .fil6 {fill:#E0711C}
    .fil3 {fill:#F0B113}
    .fil8 {fill:#F4911B}
    .fil7 {fill:#F5DB5A}
    .fil11 {fill:#F76E2A}
    .fil0 {fill:#FFAF1B}
    .fil2 {fill:#FFC71B}
    .fil1 {fill:#FFC71B}
    .fil4 {fill:#FFD744}
    .fil5 {fill:#FFE474}
   ]]>
  </style><style
       type="text/css"
       id="style4969-0">
   <![CDATA[
    .fil15 {fill:#290104}
    .fil14 {fill:#290104}
    .fil17 {fill:#381401}
    .fil13 {fill:#5D1917}
    .fil12 {fill:#5D1917}
    .fil9 {fill:#9D401F}
    .fil10 {fill:#9D401F}
    .fil16 {fill:#A64917}
    .fil6 {fill:#E0711C}
    .fil3 {fill:#F0B113}
    .fil8 {fill:#F4911B}
    .fil7 {fill:#F5DB5A}
    .fil11 {fill:#F76E2A}
    .fil0 {fill:#FFAF1B}
    .fil2 {fill:#FFC71B}
    .fil1 {fill:#FFC71B}
    .fil4 {fill:#FFD744}
    .fil5 {fill:#FFE474}
   ]]>
  </style><linearGradient
       id="linearGradient14321"
       inkscape:swatch="solid"><stop
         style="stop-color:#ffffff;stop-opacity:1;"
         offset="0"
         id="stop14319" /></linearGradient><style
       type="text/css"
       id="style4969-5">
   <![CDATA[
    .fil15 {fill:#290104}
    .fil14 {fill:#290104}
    .fil17 {fill:#381401}
    .fil13 {fill:#5D1917}
    .fil12 {fill:#5D1917}
    .fil9 {fill:#9D401F}
    .fil10 {fill:#9D401F}
    .fil16 {fill:#A64917}
    .fil6 {fill:#E0711C}
    .fil3 {fill:#F0B113}
    .fil8 {fill:#F4911B}
    .fil7 {fill:#F5DB5A}
    .fil11 {fill:#F76E2A}
    .fil0 {fill:#FFAF1B}
    .fil2 {fill:#FFC71B}
    .fil1 {fill:#FFC71B}
    .fil4 {fill:#FFD744}
    .fil5 {fill:#FFE474}
   ]]>
  </style><style
       type="text/css"
       id="style4969-1-7">
   <![CDATA[
    .fil15 {fill:#290104}
    .fil14 {fill:#290104}
    .fil17 {fill:#381401}
    .fil13 {fill:#5D1917}
    .fil12 {fill:#5D1917}
    .fil9 {fill:#9D401F}
    .fil10 {fill:#9D401F}
    .fil16 {fill:#A64917}
    .fil6 {fill:#E0711C}
    .fil3 {fill:#F0B113}
    .fil8 {fill:#F4911B}
    .fil7 {fill:#F5DB5A}
    .fil11 {fill:#F76E2A}
    .fil0 {fill:#FFAF1B}
    .fil2 {fill:#FFC71B}
    .fil1 {fill:#FFC71B}
    .fil4 {fill:#FFD744}
    .fil5 {fill:#FFE474}
   ]]>
  </style><style
       type="text/css"
       id="style4969-6-1">
   <![CDATA[
    .fil15 {fill:#290104}
    .fil14 {fill:#290104}
    .fil17 {fill:#381401}
    .fil13 {fill:#5D1917}
    .fil12 {fill:#5D1917}
    .fil9 {fill:#9D401F}
    .fil10 {fill:#9D401F}
    .fil16 {fill:#A64917}
    .fil6 {fill:#E0711C}
    .fil3 {fill:#F0B113}
    .fil8 {fill:#F4911B}
    .fil7 {fill:#F5DB5A}
    .fil11 {fill:#F76E2A}
    .fil0 {fill:#FFAF1B}
    .fil2 {fill:#FFC71B}
    .fil1 {fill:#FFC71B}
    .fil4 {fill:#FFD744}
    .fil5 {fill:#FFE474}
   ]]>
  </style><style
       type="text/css"
       id="style4969-0-2">
   <![CDATA[
    .fil15 {fill:#290104}
    .fil14 {fill:#290104}
    .fil17 {fill:#381401}
    .fil13 {fill:#5D1917}
    .fil12 {fill:#5D1917}
    .fil9 {fill:#9D401F}
    .fil10 {fill:#9D401F}
    .fil16 {fill:#A64917}
    .fil6 {fill:#E0711C}
    .fil3 {fill:#F0B113}
    .fil8 {fill:#F4911B}
    .fil7 {fill:#F5DB5A}
    .fil11 {fill:#F76E2A}
    .fil0 {fill:#FFAF1B}
    .fil2 {fill:#FFC71B}
    .fil1 {fill:#FFC71B}
    .fil4 {fill:#FFD744}
    .fil5 {fill:#FFE474}
   ]]>
  </style><style
       id="style3506">.cls-1{fill:#10aa50;}.cls-2{fill:#b8c4c2;}.cls-3{fill:#12924f;}.cls-4{fill:#21313c;}</style></defs><g
     inkscape:label="Layer 1"
     inkscape:groupmode="layer"
     id="layer1"><g
       fill="#464342"
       id="g16889"
       transform="matrix(0.04926315,0,0,0.04926315,7.5653,0.03284559)"
       style="fill:#ffffff;fill-opacity:1"><path
         d="m 8.708,61.26 c 0,20.802 12.089,38.779 29.619,47.298 L 13.258,39.872 c -2.916,6.536 -4.55,13.769 -4.55,21.388 z"
         id="path16879"
         style="fill:#ffffff;fill-opacity:1" /><path
         d="m 96.74,58.608 c 0,-6.495 -2.333,-10.993 -4.334,-14.494 -2.664,-4.329 -5.161,-7.995 -5.161,-12.324 0,-4.831 3.664,-9.328 8.825,-9.328 0.233,0 0.454,0.029 0.681,0.042 C 87.401,13.938 74.944,8.708 61.262,8.708 c -18.36,0 -34.513,9.42 -43.91,23.688 1.233,0.037 2.395,0.063 3.382,0.063 5.497,0 14.006,-0.667 14.006,-0.667 2.833,-0.167 3.167,3.994 0.337,4.329 0,0 -2.847,0.335 -6.015,0.501 L 48.2,93.547 59.701,59.054 51.513,36.62 c -2.83,-0.166 -5.511,-0.501 -5.511,-0.501 -2.832,-0.166 -2.5,-4.496 0.332,-4.329 0,0 8.679,0.667 13.843,0.667 5.496,0 14.006,-0.667 14.006,-0.667 2.835,-0.167 3.168,3.994 0.337,4.329 0,0 -2.853,0.335 -6.015,0.501 l 18.992,56.494 5.242,-17.517 c 2.272,-7.269 4.001,-12.49 4.001,-16.989 z"
         id="path16881"
         style="fill:#ffffff;fill-opacity:1" /><path
         d="m 62.184,65.857 -15.768,45.819 c 4.708,1.384 9.687,2.141 14.846,2.141 6.12,0 11.989,-1.058 17.452,-2.979 -0.141,-0.225 -0.269,-0.464 -0.374,-0.724 z"
         id="path16883"
         style="fill:#ffffff;fill-opacity:1" /><path
         d="m 107.376,36.046 c 0.226,1.674 0.354,3.471 0.354,5.404 0,5.333 -0.996,11.328 -3.996,18.824 l -16.053,46.413 c 15.624,-9.111 26.133,-26.038 26.133,-45.426 0.001,-9.137 -2.333,-17.729 -6.438,-25.215 z"
         id="path16885"
         style="fill:#ffffff;fill-opacity:1" /><path
         d="M 61.262,0 C 27.483,0 0,27.481 0,61.26 c 0,33.783 27.483,61.263 61.262,61.263 33.778,0 61.265,-27.48 61.265,-61.263 C 122.526,27.481 95.04,0 61.262,0 Z m 0,119.715 c -32.23,0 -58.453,-26.223 -58.453,-58.455 0,-32.23 26.222,-58.451 58.453,-58.451 32.229,0 58.45,26.221 58.45,58.451 0,32.232 -26.221,58.455 -58.45,58.455 z"
         id="path16887"
         style="fill:#ffffff;fill-opacity:1" /></g><text
       xml:space="preserve"
       style="font-style:normal;font-variant:normal;font-weight:bold;font-stretch:normal;font-size:1.51694px;line-height:1.25;font-family:Ebrima;-inkscape-font-specification:'Ebrima Bold';fill:#000000;fill-opacity:1;stroke:none;stroke-width:0.0554874"
       x="5.9965892"
       y="7.9129968"
       id="text6994"><tspan
         sodipodi:role="line"
         id="tspan6992"
         style="font-style:normal;font-variant:normal;font-weight:bold;font-stretch:normal;font-size:1.51694px;font-family:Ebrima;-inkscape-font-specification:'Ebrima Bold';fill:#ffffff;stroke-width:0.0554874"
         x="5.9965892"
         y="7.9129968">WORDPRESS</tspan></text></g></svg>
