<?xml version="1.0" encoding="UTF-8" standalone="no"?>
<!-- Created with Inkscape (http://www.inkscape.org/) -->

<svg
   width="80"
   height="30"
   viewBox="0 0 21.166666 7.9375"
   version="1.1"
   id="svg3562"
   inkscape:version="1.2.2 (732a01da63, 2022-12-09)"
   sodipodi:docname="wordPress.svg"
   xml:space="preserve"
   xmlns:inkscape="http://www.inkscape.org/namespaces/inkscape"
   xmlns:sodipodi="http://sodipodi.sourceforge.net/DTD/sodipodi-0.dtd"
   xmlns="http://www.w3.org/2000/svg"
   xmlns:svg="http://www.w3.org/2000/svg"><sodipodi:namedview
     id="namedview3564"
     pagecolor="#505050"
     bordercolor="#eeeeee"
     borderopacity="1"
     inkscape:showpageshadow="0"
     inkscape:pageopacity="0"
     inkscape:pagecheckerboard="0"
     inkscape:deskcolor="#505050"
     inkscape:document-units="px"
     showgrid="false"
     inkscape:zoom="6.7277216"
     inkscape:cx="15.607067"
     inkscape:cy="17.985286"
     inkscape:window-width="3840"
     inkscape:window-height="2054"
     inkscape:window-x="-11"
     inkscape:window-y="-11"
     inkscape:window-maximized="1"
     inkscape:current-layer="layer1"
     showguides="true"><sodipodi:guide
       position="8.0448126,1.8688113"
       orientation="0,-1"
       id="guide7559"
       inkscape:locked="false" /></sodipodi:namedview><defs
     id="defs3559"><style
       type="text/css"
       id="style4969">
   <![CDATA[
    .fil15 {fill:#290104}
    .fil14 {fill:#290104}
    .fil17 {fill:#381401}
    .fil13 {fill:#5D1917}
    .fil12 {fill:#5D1917}
    .fil9 {fill:#9D401F}
    .fil10 {fill:#9D401F}
    .fil16 {fill:#A64917}
    .fil6 {fill:#E0711C}
    .fil3 {fill:#F0B113}
    .fil8 {fill:#F4911B}
    .fil7 {fill:#F5DB5A}
    .fil11 {fill:#F76E2A}
    .fil0 {fill:#FFAF1B}
    .fil2 {fill:#FFC71B}
    .fil1 {fill:#FFC71B}
    .fil4 {fill:#FFD744}
    .fil5 {fill:#FFE474}
   ]]>
  </style><style
       type="text/css"
       id="style4969-1">
   <![CDATA[
    .fil15 {fill:#290104}
    .fil14 {fill:#290104}
    .fil17 {fill:#381401}
    .fil13 {fill:#5D1917}
    .fil12 {fill:#5D1917}
    .fil9 {fill:#9D401F}
    .fil10 {fill:#9D401F}
    .fil16 {fill:#A64917}
    .fil6 {fill:#E0711C}
    .fil3 {fill:#F0B113}
    .fil8 {fill:#F4911B}
    .fil7 {fill:#F5DB5A}
    .fil11 {fill:#F76E2A}
    .fil0 {fill:#FFAF1B}
    .fil2 {fill:#FFC71B}
    .fil1 {fill:#FFC71B}
    .fil4 {fill:#FFD744}
    .fil5 {fill:#FFE474}
   ]]>
  </style><style
       type="text/css"
       id="style4969-6">
   <![CDATA[
    .fil15 {fill:#290104}
    .fil14 {fill:#290104}
    .fil17 {fill:#381401}
    .fil13 {fill:#5D1917}
    .fil12 {fill:#5D1917}
    .fil9 {fill:#9D401F}
    .fil10 {fill:#9D401F}
    .fil16 {fill:#A64917}
    .fil6 {fill:#E0711C}
    .fil3 {fill:#F0B113}
    .fil8 {fill:#F4911B}
    .fil7 {fill:#F5DB5A}
    .fil11 {fill:#F76E2A}
    .fil0 {fill:#FFAF1B}
    .fil2 {fill:#FFC71B}
    .fil1 {fill:#FFC71B}
    .fil4 {fill:#FFD744}
    .fil5 {fill:#FFE474}
   ]]>
  </style><style
       type="text/css"
       id="style4969-0">
   <![CDATA[
    .fil15 {fill:#290104}
    .fil14 {fill:#290104}
    .fil17 {fill:#381401}
    .fil13 {fill:#5D1917}
    .fil12 {fill:#5D1917}
    .fil9 {fill:#9D401F}
    .fil10 {fill:#9D401F}
    .fil16 {fill:#A64917}
    .fil6 {fill:#E0711C}
    .fil3 {fill:#F0B113}
    .fil8 {fill:#F4911B}
    .fil7 {fill:#F5DB5A}
    .fil11 {fill:#F76E2A}
    .fil0 {fill:#FFAF1B}
    .fil2 {fill:#FFC71B}
    .fil1 {fill:#FFC71B}
    .fil4 {fill:#FFD744}
    .fil5 {fill:#FFE474}
   ]]>
  </style><linearGradient
       id="linearGradient14321"
       inkscape:swatch="solid"><stop
         style="stop-color:#ffffff;stop-opacity:1;"
         offset="0"
         id="stop14319" /></linearGradient><style
       type="text/css"
       id="style4969-5">
   <![CDATA[
    .fil15 {fill:#290104}
    .fil14 {fill:#290104}
    .fil17 {fill:#381401}
    .fil13 {fill:#5D1917}
    .fil12 {fill:#5D1917}
    .fil9 {fill:#9D401F}
    .fil10 {fill:#9D401F}
    .fil16 {fill:#A64917}
    .fil6 {fill:#E0711C}
    .fil3 {fill:#F0B113}
    .fil8 {fill:#F4911B}
    .fil7 {fill:#F5DB5A}
    .fil11 {fill:#F76E2A}
    .fil0 {fill:#FFAF1B}
    .fil2 {fill:#FFC71B}
    .fil1 {fill:#FFC71B}
    .fil4 {fill:#FFD744}
    .fil5 {fill:#FFE474}
   ]]>
  </style><style
       type="text/css"
       id="style4969-1-7">
   <![CDATA[
    .fil15 {fill:#290104}
    .fil14 {fill:#290104}
    .fil17 {fill:#381401}
    .fil13 {fill:#5D1917}
    .fil12 {fill:#5D1917}
    .fil9 {fill:#9D401F}
    .fil10 {fill:#9D401F}
    .fil16 {fill:#A64917}
    .fil6 {fill:#E0711C}
    .fil3 {fill:#F0B113}
    .fil8 {fill:#F4911B}
    .fil7 {fill:#F5DB5A}
    .fil11 {fill:#F76E2A}
    .fil0 {fill:#FFAF1B}
    .fil2 {fill:#FFC71B}
    .fil1 {fill:#FFC71B}
    .fil4 {fill:#FFD744}
    .fil5 {fill:#FFE474}
   ]]>
  </style><style
       type="text/css"
       id="style4969-6-1">
   <![CDATA[
    .fil15 {fill:#290104}
    .fil14 {fill:#290104}
    .fil17 {fill:#381401}
    .fil13 {fill:#5D1917}
    .fil12 {fill:#5D1917}
    .fil9 {fill:#9D401F}
    .fil10 {fill:#9D401F}
    .fil16 {fill:#A64917}
    .fil6 {fill:#E0711C}
    .fil3 {fill:#F0B113}
    .fil8 {fill:#F4911B}
    .fil7 {fill:#F5DB5A}
    .fil11 {fill:#F76E2A}
    .fil0 {fill:#FFAF1B}
    .fil2 {fill:#FFC71B}
    .fil1 {fill:#FFC71B}
    .fil4 {fill:#FFD744}
    .fil5 {fill:#FFE474}
   ]]>
  </style><style
       type="text/css"
       id="style4969-0-2">
   <![CDATA[
    .fil15 {fill:#290104}
    .fil14 {fill:#290104}
    .fil17 {fill:#381401}
    .fil13 {fill:#5D1917}
    .fil12 {fill:#5D1917}
    .fil9 {fill:#9D401F}
    .fil10 {fill:#9D401F}
    .fil16 {fill:#A64917}
    .fil6 {fill:#E0711C}
    .fil3 {fill:#F0B113}
    .fil8 {fill:#F4911B}
    .fil7 {fill:#F5DB5A}
    .fil11 {fill:#F76E2A}
    .fil0 {fill:#FFAF1B}
    .fil2 {fill:#FFC71B}
    .fil1 {fill:#FFC71B}
    .fil4 {fill:#FFD744}
    .fil5 {fill:#FFE474}
   ]]>
  </style><style
       id="style3506">.cls-1{fill:#10aa50;}.cls-2{fill:#b8c4c2;}.cls-3{fill:#12924f;}.cls-4{fill:#21313c;}</style></defs><g
     inkscape:label="Layer 1"
     inkscape:groupmode="layer"
     id="layer1"><g
       fill="#464342"
       id="g16889"
       transform="matrix(0.04926315,0,0,0.04926315,7.5653,0.03284559)"
       style="fill:#ffffff;fill-opacity:1"><path
         d="m 8.708,61.26 c 0,20.802 12.089,38.779 29.619,47.298 L 13.258,39.872 c -2.916,6.536 -4.55,13.769 -4.55,21.388 z"
         id="path16879"
         style="fill:#ffffff;fill-opacity:1" /><path
         d="m 96.74,58.608 c 0,-6.495 -2.333,-10.993 -4.334,-14.494 -2.664,-4.329 -5.161,-7.995 -5.161,-12.324 0,-4.831 3.664,-9.328 8.825,-9.328 0.233,0 0.454,0.029 0.681,0.042 C 87.401,13.938 74.944,8.708 61.262,8.708 c -18.36,0 -34.513,9.42 -43.91,23.688 1.233,0.037 2.395,0.063 3.382,0.063 5.497,0 14.006,-0.667 14.006,-0.667 2.833,-0.167 3.167,3.994 0.337,4.329 0,0 -2.847,0.335 -6.015,0.501 L 48.2,93.547 59.701,59.054 51.513,36.62 c -2.83,-0.166 -5.511,-0.501 -5.511,-0.501 -2.832,-0.166 -2.5,-4.496 0.332,-4.329 0,0 8.679,0.667 13.843,0.667 5.496,0 14.006,-0.667 14.006,-0.667 2.835,-0.167 3.168,3.994 0.337,4.329 0,0 -2.853,0.335 -6.015,0.501 l 18.992,56.494 5.242,-17.517 c 2.272,-7.269 4.001,-12.49 4.001,-16.989 z"
         id="path16881"
         style="fill:#ffffff;fill-opacity:1" /><path
         d="m 62.184,65.857 -15.768,45.819 c 4.708,1.384 9.687,2.141 14.846,2.141 6.12,0 11.989,-1.058 17.452,-2.979 -0.141,-0.225 -0.269,-0.464 -0.374,-0.724 z"
         id="path16883"
         style="fill:#ffffff;fill-opacity:1" /><path
         d="m 107.376,36.046 c 0.226,1.674 0.354,3.471 0.354,5.404 0,5.333 -0.996,11.328 -3.996,18.824 l -16.053,46.413 c 15.624,-9.111 26.133,-26.038 26.133,-45.426 0.001,-9.137 -2.333,-17.729 -6.438,-25.215 z"
         id="path16885"
         style="fill:#ffffff;fill-opacity:1" /><path
         d="M 61.262,0 C 27.483,0 0,27.481 0,61.26 c 0,33.783 27.483,61.263 61.262,61.263 33.778,0 61.265,-27.48 61.265,-61.263 C 122.526,27.481 95.04,0 61.262,0 Z m 0,119.715 c -32.23,0 -58.453,-26.223 -58.453,-58.455 0,-32.23 26.222,-58.451 58.453,-58.451 32.229,0 58.45,26.221 58.45,58.451 0,32.232 -26.221,58.455 -58.45,58.455 z"
         id="path16887"
         style="fill:#ffffff;fill-opacity:1" /></g><g
       aria-label="WORDPRESS"
       id="text6994"
       style="font-weight:bold;font-size:1.51694px;line-height:1.25;font-family:Ebrima;-inkscape-font-specification:'Ebrima Bold';stroke-width:0.0554874"><path
         d="M 7.5076036,6.8508425 7.2268809,7.9129968 H 6.9617126 L 6.7854276,7.2315589 Q 6.7713544,7.178229 6.7683917,7.1123072 h -0.00296 q -0.00667,0.072588 -0.019258,0.1192517 L 6.5654417,7.9129968 H 6.2891631 L 6.0099217,6.8508425 h 0.2614647 l 0.1496201,0.7073622 q 0.00963,0.045182 0.014073,0.1214737 h 0.00444 q 0.00296,-0.057033 0.02148,-0.1244365 L 6.6535842,6.8508425 H 6.9098641 L 7.083927,7.5641302 q 0.00963,0.039257 0.017036,0.1140668 h 0.00296 q 0.00296,-0.058515 0.015555,-0.118511 L 7.2661376,6.8508425 Z"
         style="fill:#ffffff"
         id="path307" /><path
         d="m 8.09127,7.9315141 q -0.2281335,0 -0.371828,-0.1481387 -0.1436946,-0.1488793 -0.1436946,-0.3873826 0,-0.2518357 0.1459166,-0.4073813 0.1459166,-0.1555456 0.386642,-0.1555456 0.2273928,0 0.3673839,0.1488793 0.1407317,0.1488794 0.1407317,0.3925675 0,0.2503544 -0.1459166,0.4036779 Q 8.3253291,7.9315141 8.09127,7.9315141 Z m 0.01037,-0.8925355 q -0.1259178,0 -0.1999872,0.094809 -0.074069,0.094068 -0.074069,0.2496136 0,0.1577677 0.074069,0.2496137 0.074069,0.091846 0.1940617,0.091846 0.1236958,0 0.1962837,-0.088883 0.072588,-0.089624 0.072588,-0.2481323 0,-0.1651746 -0.070366,-0.2570206 -0.070366,-0.091846 -0.1925803,-0.091846 z"
         style="fill:#ffffff"
         id="path309" /><path
         d="M 9.6837608,7.9129968 H 9.4089635 L 9.2437889,7.6396809 q -0.018517,-0.031109 -0.035553,-0.055552 -0.017036,-0.024443 -0.034813,-0.041479 -0.017036,-0.017777 -0.036294,-0.026665 -0.018517,-0.00963 -0.040738,-0.00963 h -0.06444 V 7.9129968 H 8.7927066 V 6.8508425 h 0.379235 q 0.386642,0 0.386642,0.2888704 0,0.055552 -0.017036,0.1029564 -0.017036,0.046664 -0.048145,0.084439 -0.031109,0.037775 -0.075551,0.065181 -0.043701,0.027406 -0.097771,0.04296 v 0.00296 q 0.023702,0.00741 0.045923,0.024443 0.022221,0.016295 0.04296,0.038516 0.020739,0.022221 0.039257,0.048145 0.019258,0.025184 0.034813,0.049626 z M 9.0319506,7.0300903 v 0.2955366 h 0.1036971 q 0.077032,0 0.1236958,-0.044442 0.047404,-0.045182 0.047404,-0.1118447 0,-0.1392503 -0.166656,-0.1392503 z"
         style="fill:#ffffff"
         id="path311" /><path
         d="M 9.7830137,7.9129968 V 6.8508425 h 0.3762723 q 0.56589,0 0.56589,0.5177447 0,0.2481322 -0.154805,0.3962709 -0.154064,0.1481387 -0.411085,0.1481387 z m 0.2392443,-0.867352 v 0.6732903 h 0.118511 q 0.155545,0 0.243688,-0.093327 0.08888,-0.093327 0.08888,-0.2540578 0,-0.1518421 -0.08814,-0.2385032 -0.0874,-0.087402 -0.24591,-0.087402 z"
         style="fill:#ffffff"
         id="path313" /><path
         d="M 11.140705,7.5470942 V 7.9129968 H 10.901461 V 6.8508425 h 0.37479 q 0.401456,0 0.401456,0.3384969 0,0.1599897 -0.115548,0.2592426 -0.114807,0.098512 -0.307388,0.098512 z m 0,-0.5125598 v 0.33109 h 0.09407 q 0.191098,0 0.191098,-0.1673967 0,-0.1636933 -0.191098,-0.1636933 z"
         style="fill:#ffffff"
         id="path315" /><path
         d="M 12.724307,7.9129968 H 12.44951 L 12.284335,7.6396809 q -0.01852,-0.031109 -0.03555,-0.055552 -0.01704,-0.024443 -0.03481,-0.041479 -0.01704,-0.017777 -0.03629,-0.026665 -0.01852,-0.00963 -0.04074,-0.00963 h -0.06444 V 7.9129968 H 11.833253 V 6.8508425 h 0.379235 q 0.386642,0 0.386642,0.2888704 0,0.055552 -0.01704,0.1029564 -0.01704,0.046664 -0.04814,0.084439 -0.03111,0.037775 -0.07555,0.065181 -0.0437,0.027406 -0.09777,0.04296 v 0.00296 q 0.0237,0.00741 0.04592,0.024443 0.02222,0.016295 0.04296,0.038516 0.02074,0.022221 0.03926,0.048145 0.01926,0.025184 0.03481,0.049626 z m -0.65181,-0.8829065 v 0.2955366 h 0.103697 q 0.07703,0 0.123696,-0.044442 0.0474,-0.045182 0.0474,-0.1118447 0,-0.1392503 -0.166656,-0.1392503 z"
         style="fill:#ffffff"
         id="path317" /><path
         d="M 13.460556,7.9129968 H 12.82356 V 6.8508425 h 0.612553 V 7.0456448 H 13.062804 V 7.281926 h 0.347385 v 0.1940617 h -0.347385 v 0.2429474 h 0.397752 z"
         style="fill:#ffffff"
         id="path319" /><path
         d="M 13.58203,7.8722586 V 7.6352368 q 0.06444,0.054071 0.139991,0.081476 0.07555,0.026665 0.152583,0.026665 0.04518,0 0.07851,-0.00815 0.03407,-0.00815 0.05629,-0.022221 0.02296,-0.014814 0.03407,-0.034072 0.01111,-0.019999 0.01111,-0.04296 0,-0.031109 -0.01778,-0.055552 -0.01778,-0.024443 -0.04889,-0.045182 -0.03037,-0.02074 -0.07259,-0.039998 -0.04222,-0.019258 -0.09111,-0.039257 -0.124437,-0.051849 -0.185915,-0.1266586 -0.06074,-0.07481 -0.06074,-0.1807292 0,-0.082958 0.03333,-0.1422131 0.03333,-0.059996 0.09036,-0.098512 0.05777,-0.038516 0.133325,-0.056293 0.07555,-0.018517 0.15999,-0.018517 0.08296,0 0.146657,0.01037 0.06444,0.00963 0.118511,0.030368 v 0.2214673 q -0.02667,-0.018517 -0.05851,-0.032591 -0.03111,-0.014073 -0.06444,-0.022962 -0.03333,-0.00963 -0.06666,-0.014073 -0.03259,-0.00444 -0.06222,-0.00444 -0.04074,0 -0.07407,0.00815 -0.03333,0.00741 -0.05629,0.02148 -0.02296,0.014073 -0.03555,0.034072 -0.01259,0.019258 -0.01259,0.043701 0,0.026665 0.01407,0.048145 0.01407,0.020739 0.04,0.039997 0.02592,0.018517 0.06296,0.037035 0.03703,0.017777 0.0837,0.037035 0.0637,0.026665 0.114067,0.057033 0.05111,0.029628 0.0874,0.067403 0.03629,0.037775 0.05555,0.086661 0.01926,0.048145 0.01926,0.1125853 0,0.088883 -0.03407,0.1496201 -0.03333,0.059996 -0.09111,0.097772 -0.05777,0.037035 -0.134806,0.05333 -0.07629,0.016295 -0.161472,0.016295 -0.0874,0 -0.166656,-0.014814 -0.07851,-0.014814 -0.136287,-0.044442 z"
         style="fill:#ffffff"
         id="path321" /><path
         d="M 14.432346,7.8722586 V 7.6352368 q 0.06444,0.054071 0.139991,0.081476 0.07555,0.026665 0.152583,0.026665 0.04518,0 0.07851,-0.00815 0.03407,-0.00815 0.05629,-0.022221 0.02296,-0.014814 0.03407,-0.034072 0.01111,-0.019999 0.01111,-0.04296 0,-0.031109 -0.01778,-0.055552 -0.01778,-0.024443 -0.04889,-0.045182 -0.03037,-0.02074 -0.07259,-0.039998 -0.04222,-0.019258 -0.09111,-0.039257 -0.124437,-0.051849 -0.185914,-0.1266586 -0.06074,-0.07481 -0.06074,-0.1807292 0,-0.082958 0.03333,-0.1422131 0.03333,-0.059996 0.09036,-0.098512 0.05778,-0.038516 0.133325,-0.056293 0.07555,-0.018517 0.15999,-0.018517 0.08296,0 0.146657,0.01037 0.06444,0.00963 0.118511,0.030368 v 0.2214673 q -0.02666,-0.018517 -0.05851,-0.032591 -0.03111,-0.014073 -0.06444,-0.022962 -0.03333,-0.00963 -0.06666,-0.014073 -0.03259,-0.00444 -0.06222,-0.00444 -0.04074,0 -0.07407,0.00815 -0.03333,0.00741 -0.05629,0.02148 -0.02296,0.014073 -0.03555,0.034072 -0.01259,0.019258 -0.01259,0.043701 0,0.026665 0.01407,0.048145 0.01407,0.020739 0.04,0.039997 0.02592,0.018517 0.06296,0.037035 0.03704,0.017777 0.0837,0.037035 0.0637,0.026665 0.114067,0.057033 0.05111,0.029628 0.0874,0.067403 0.03629,0.037775 0.05555,0.086661 0.01926,0.048145 0.01926,0.1125853 0,0.088883 -0.03407,0.1496201 -0.03333,0.059996 -0.0911,0.097772 -0.05777,0.037035 -0.134806,0.05333 -0.07629,0.016295 -0.161472,0.016295 -0.0874,0 -0.166656,-0.014814 -0.07851,-0.014814 -0.136287,-0.044442 z"
         style="fill:#ffffff"
         id="path323" /></g></g></svg>
